<svg width="24" height="26" viewBox="0 0 24 26" fill="none" xmlns="http://www.w3.org/2000/svg">
<path d="M12.3684 6.33075L13.1968 8.2111C13.1968 8.34542 13.3349 8.47973 13.611 8.47973L15.6821 8.61404C16.0964 8.61404 16.2344 9.15128 15.9583 9.4199L14.4395 10.763C14.3014 10.8973 14.3014 11.0316 14.3014 11.1659L14.7156 13.1806C14.8537 13.5835 14.3014 13.9865 14.0253 13.7179L12.0922 12.7777C11.9542 12.6434 11.8161 12.6434 11.678 12.7777L9.88305 13.7179C9.46883 13.9865 9.05461 13.5835 9.19268 13.1806L9.6069 11.1659C9.6069 11.0316 9.6069 10.8973 9.46883 10.763L7.95002 9.4199C7.5358 9.28559 7.81195 8.74835 8.22617 8.61404L10.2973 8.47973C10.4353 8.47973 10.5734 8.34542 10.7115 8.2111L11.5399 6.33075C11.678 5.92782 12.2303 5.92782 12.3684 6.33075Z" stroke="#7C53D6" stroke-width="1.3" stroke-miterlimit="10" stroke-linecap="round" stroke-linejoin="round"/>
<path d="M21.326 10.2589C21.3617 5.21476 17.187 1.09757 12.0016 1.06286C6.81623 1.02814 2.5837 5.08905 2.54801 10.1332C2.51233 15.1773 6.687 19.2945 11.8724 19.3292C17.0578 19.3639 21.2903 15.303 21.326 10.2589Z" stroke="#7C53D6" stroke-width="1.3" stroke-miterlimit="10" stroke-linecap="round" stroke-linejoin="round"/>
<path d="M10.7114 19.2246L8.36417 25L5.32655 21.6422L0.908203 22.0451L3.80775 14.9267" stroke="#7C53D6" stroke-width="1.3" stroke-miterlimit="10" stroke-linecap="round" stroke-linejoin="round"/>
<path d="M13.1963 19.2246L15.5435 25L18.4431 21.6422L22.9995 22.0451L19.9619 14.9266" stroke="#7C53D6" stroke-width="1.3" stroke-miterlimit="10" stroke-linecap="round" stroke-linejoin="round"/>
</svg>
