<svg width="100" height="100" viewBox="0 0 100 100" fill="none" xmlns="http://www.w3.org/2000/svg">
<mask id="mask0_959_1320" style="mask-type:alpha" maskUnits="userSpaceOnUse" x="0" y="0" width="100" height="100">
<circle cx="50" cy="50" r="50" fill="#C4C4C4"/>
</mask>
<g mask="url(#mask0_959_1320)">
<circle cx="50" cy="50" r="50" fill="#D4D8FF"/>
<ellipse cx="53" cy="131" rx="132" ry="63" fill="#BEC3F3"/>
<path d="M73.3315 34.7929V39.9674L69.8582 43.5321H24.4741L21.0008 39.9674V34.7929C21.0008 31.9296 23.3278 29.6184 26.2107 29.6184H68.1216C71.0045 29.6184 73.3315 31.9296 73.3315 34.7929Z" fill="#5E57B0"/>
<path d="M73.3308 39.9674V70.9385C73.3308 73.6254 71.0039 75.7945 68.1209 75.7945H26.2101C23.3271 75.7945 21.0002 73.6254 21.0002 70.9385V39.9674H73.3308Z" fill="white"/>
<rect x="25.6977" y="44.8087" width="40.2918" height="2.51027" rx="1.25513" fill="#C5C9F7"/>
<rect x="25.6977" y="51.0432" width="25.4561" height="2.51027" rx="1.25513" fill="#C5C9F7"/>
<rect x="25.6977" y="57.2781" width="25.4561" height="2.51027" rx="1.25513" fill="#C5C9F7"/>
<rect x="25.6977" y="67.9045" width="13.5068" height="2.51027" rx="1.25513" fill="#C5C9F7"/>
<rect x="57.3206" y="56.1564" width="21.6793" height="23.4962" rx="4" fill="#5E57B0"/>
<path d="M61.7983 74.2727H63.5434C63.8195 74.2727 64.0434 74.0489 64.0434 73.7727V62.4197C64.0434 62.1435 63.8195 61.9197 63.5434 61.9197H61.7983C61.5221 61.9197 61.2983 62.1435 61.2983 62.4197V73.7727C61.2983 74.0489 61.5221 74.2727 61.7983 74.2727Z" fill="white"/>
<path d="M67.2885 74.2727H69.0336C69.3098 74.2727 69.5336 74.0489 69.5336 73.7727V66.5374C69.5336 66.2612 69.3098 66.0374 69.0336 66.0374H67.2885C67.0124 66.0374 66.7885 66.2612 66.7885 66.5374V73.7727C66.7885 74.0489 67.0124 74.2727 67.2885 74.2727Z" fill="white"/>
<path d="M72.7788 74.2727H74.5239C74.8 74.2727 75.0239 74.0489 75.0239 73.7727V70.655C75.0239 70.3789 74.8 70.155 74.5239 70.155H72.7788C72.5026 70.155 72.2788 70.3789 72.2788 70.655V73.7727C72.2788 74.0489 72.5026 74.2727 72.7788 74.2727Z" fill="white"/>
</g>
</svg>
