<svg width="40" height="40" viewBox="0 0 40 40" fill="none" xmlns="http://www.w3.org/2000/svg">
<mask id="mask0_1727_735" style="mask-type:alpha" maskUnits="userSpaceOnUse" x="0" y="0" width="40" height="40">
<circle cx="20" cy="20" r="20" fill="#C4C4C4"/>
</mask>
<g mask="url(#mask0_1727_735)">
<circle cx="20" cy="20" r="20" fill="#FFDC8F"/>
<path d="M11.5073 23.4147L19.2079 21.6426L27.2399 24.0843C29.3067 24.7126 30.9704 26.2553 31.7526 28.2688L35.2047 37.154L18.2582 42.2641L4.10352 37.154L6.25988 28.56C6.90341 25.9952 8.93038 24.0077 11.5073 23.4147Z" fill="#F97736"/>
<path d="M26.5382 45.7798C23.9081 46.5412 22.3934 47.3201 19.5555 47.3201C16.9946 47.3201 14.5721 46.9741 12.2188 46.4203L13.9811 22.8687L19.7089 21.5469L24.913 23.3862L26.5382 45.7798Z" fill="white"/>
<path d="M24.9032 10.9449C24.9032 10.9449 26.8416 9.90355 26.5434 8.51512C26.2452 7.12669 19.4855 5.14321 16.8015 7.47379C16.8015 7.47379 14.8134 7.17628 15.6584 12.9779C16.5033 18.73 23.9091 14.0688 23.9091 14.0688" fill="#87240F"/>
<path d="M25.2505 9.4082C25.2505 9.4082 27.6859 18.1355 22.0694 19.6231L23.3053 24.3834C23.4047 24.8297 23.1065 25.276 22.6592 25.4247C21.5657 25.7718 18.5472 26.119 16.41 24.2347C16.1615 24.0363 16.0621 23.7388 16.1118 23.4413C16.3106 22.152 17.1985 18.433 16.9997 16.1024C16.9997 16.1024 14.7133 16.0528 14.8625 14.0198C15.0116 11.9867 16.6021 12.1851 17.4967 13.5239C17.4967 13.5239 18.4908 12.0859 18.1926 9.70572C18.1429 9.70572 22.4174 10.3999 25.2505 9.4082Z" fill="#FFA643"/>
<path d="M22.1028 19.8392L21.475 19.9407C20.2436 20.1397 18.9972 19.6848 18.1836 18.7393V18.7393" stroke="#9E5B12" stroke-width="0.586433"/>
</g>
</svg>
