<svg width="130" height="130" viewBox="0 0 130 130" fill="none" xmlns="http://www.w3.org/2000/svg">
<mask id="mask0_1757_1331" style="mask-type:alpha" maskUnits="userSpaceOnUse" x="0" y="0" width="130" height="130">
<circle cx="65" cy="65" r="65" fill="#C4C4C4"/>
</mask>
<g mask="url(#mask0_1757_1331)">
<circle cx="65" cy="65" r="65" fill="#FFDC8F"/>
<path d="M27.9508 78.2773L62.4251 70.3438L95.8949 80.5186C97.9617 81.1469 99.6254 82.6895 100.408 84.703L114.415 120.756L59.3387 137.364L13.3359 120.756L22.7034 83.4226C23.347 80.8578 25.3739 78.8703 27.9508 78.2773Z" fill="#F97736"/>
<path d="M86.2463 148.79C77.6983 151.265 72.7755 153.796 63.5526 153.796C55.2295 153.796 47.3563 152.672 39.708 150.872L45.4358 74.329L64.0511 70.0332L80.9643 76.0111L86.2463 148.79Z" fill="white"/>
<path d="M80.9334 35.5716C80.9334 35.5716 87.2333 32.1873 86.2641 27.6749C85.2949 23.1625 63.326 16.7162 54.6031 24.2906C54.6031 24.2906 48.1416 23.3236 50.8877 42.179C53.6339 60.8732 77.7027 45.7245 77.7027 45.7245" fill="#87240F"/>
<path d="M82.063 30.5742C82.063 30.5742 89.9783 58.9379 71.7247 63.7726L75.7412 79.2437C76.0643 80.6941 75.0951 82.1445 73.6413 82.628C70.0875 83.7561 60.2775 84.8842 53.3315 78.7602C52.5238 78.1156 52.2007 77.1486 52.3623 76.1817C53.0084 71.9916 55.8942 59.9048 55.2481 52.3304C55.2481 52.3304 47.8174 52.1693 48.302 45.5618C48.7866 38.9544 53.9558 39.599 56.8634 43.9502C56.8634 43.9502 60.0941 39.2767 59.1249 31.5411C58.9634 31.5411 72.8555 33.7974 82.063 30.5742Z" fill="#FFA643"/>
<path d="M71.842 64.4772L66.6005 65.3244C64.5874 65.6499 62.5497 64.9061 61.2196 63.3603L59.1045 60.9023" stroke="#9E5B12" stroke-width="0.586433"/>
</g>
<circle cx="110" cy="110" r="16" fill="white"/>
<path d="M112.221 112.143L109.67 112.667C109.535 112.686 109.398 112.673 109.269 112.631C109.14 112.588 109.022 112.516 108.925 112.421C108.828 112.325 108.754 112.209 108.709 112.081C108.664 111.952 108.649 111.816 108.666 111.68L109.199 109.156C109.262 108.821 109.422 108.511 109.661 108.267L114.488 103.44C114.907 103.027 115.472 102.795 116.061 102.795C116.65 102.795 117.215 103.027 117.634 103.44L117.857 103.672C118.064 103.878 118.228 104.123 118.34 104.393C118.452 104.663 118.51 104.953 118.51 105.245C118.51 105.537 118.452 105.827 118.34 106.097C118.228 106.367 118.064 106.612 117.857 106.818L113.03 111.689C112.809 111.915 112.529 112.072 112.221 112.143V112.143Z" stroke="#FB6C37" stroke-width="1.3" stroke-linecap="round" stroke-linejoin="round"/>
<path d="M116.666 108.108V115.166C116.666 115.458 116.608 115.747 116.496 116.016C116.385 116.286 116.221 116.531 116.015 116.737C115.808 116.943 115.563 117.107 115.294 117.219C115.024 117.33 114.735 117.388 114.443 117.388H106.15C105.858 117.388 105.569 117.33 105.3 117.219C105.03 117.107 104.785 116.943 104.579 116.737C104.372 116.531 104.209 116.286 104.097 116.016C103.985 115.747 103.928 115.458 103.928 115.166V106.908C103.925 106.615 103.981 106.324 104.092 106.052C104.202 105.78 104.366 105.533 104.572 105.325C104.779 105.117 105.025 104.952 105.295 104.839C105.566 104.726 105.857 104.668 106.15 104.668H113.181" stroke="#FB6C37" stroke-width="1.3" stroke-linecap="round" stroke-linejoin="round"/>
</svg>
