<svg width="48" height="48" viewBox="0 0 48 48" fill="none" xmlns="http://www.w3.org/2000/svg">
<mask id="mask0_336_138" style="mask-type:alpha" maskUnits="userSpaceOnUse" x="0" y="0" width="48" height="48">
<circle cx="24" cy="24" r="24" fill="#C4C4C4"/>
</mask>
<g mask="url(#mask0_336_138)">
<circle cx="24" cy="24" r="24" fill="#FFDC8F"/>
<path d="M12.9686 28.2922L23.0491 25.9724L33.3423 29.1015C35.409 29.7298 37.0727 31.2725 37.855 33.286L42.2452 44.5861L21.9095 50.7183L4.92383 44.5861L7.72118 33.4375C8.36472 30.8728 10.3917 28.8852 12.9686 28.2922Z" fill="#F97736"/>
<path d="M31.8445 54.9368C28.6883 55.8505 26.8707 56.7852 23.4653 56.7852C20.3921 56.7852 17.4851 56.3699 14.6611 55.7054L16.776 27.4434L23.6494 25.8573L29.8942 28.0645L31.8445 54.9368Z" fill="white"/>
<path d="M29.8829 13.1345C29.8829 13.1345 32.209 11.885 31.8511 10.2188C31.4932 8.55272 23.3817 6.17255 20.1609 8.96925C20.1609 8.96925 17.7751 8.61223 18.7891 15.5742C19.803 22.4767 28.69 16.8833 28.69 16.8833" fill="#87240F"/>
<path d="M30.3002 11.2899C30.3002 11.2899 33.2227 21.7626 26.4829 23.5477L27.966 29.2601C28.0852 29.7957 27.7274 30.3312 27.1906 30.5097C25.8784 30.9263 22.2563 31.3428 19.6916 29.0816C19.3934 28.8436 19.2741 28.4866 19.3337 28.1296C19.5723 26.5825 20.6378 22.1196 20.3993 19.3229C20.3993 19.3229 17.6556 19.2634 17.8346 16.8238C18.0135 14.3841 19.9221 14.6221 20.9957 16.2287C20.9957 16.2287 22.1886 14.5031 21.8307 11.6469C21.7711 11.6469 26.9004 12.48 30.3002 11.2899Z" fill="#FFA643"/>
<path d="M26.5263 23.8076L25.773 23.9293C24.2953 24.1682 22.7996 23.6223 21.8232 22.4876V22.4876" stroke="#9E5B12" stroke-width="0.586433"/>
</g>
</svg>
