<svg width="1440" height="487" viewBox="0 0 1440 487" fill="none" xmlns="http://www.w3.org/2000/svg">
<rect width="1440" height="486" fill="#D1F1FF"/>
<path opacity="0.7" d="M1382.3 485.933C1382.3 485.933 1367.69 441.626 1382.3 424.747C1396.92 407.868 1450.58 397.741 1450.58 397.741" stroke="#74BEDF"/>
<path opacity="0.5" d="M1372.6 485.908C1372.6 485.908 1309.41 384.259 1481.28 341.477" stroke="#74BEDF"/>
<path opacity="0.3" d="M1353.19 485.485C1353.19 485.485 1303.41 400.706 1344.38 361.727C1385.36 322.749 1461.29 295.752 1461.29 295.752" stroke="#74BEDF"/>
<path d="M1394.54 485.485C1394.54 485.485 1381.46 422.19 1442.42 431.498" stroke="#74BEDF"/>
<path opacity="0.1" d="M1330.84 472.43C1330.84 472.43 1262.3 381.76 1314.71 336.468C1367.11 291.176 1440.73 259.731 1440.73 259.731" stroke="#74BEDF"/>
</svg>
