<svg width="1440" height="487" viewBox="0 0 1440 487" fill="none" xmlns="http://www.w3.org/2000/svg">
<rect width="1440" height="486" fill="#FBE5FF"/>
<path d="M1354.56 237.056H1246.54C1245.08 237.056 1244.11 236.071 1244.11 234.594V171.327C1244.11 169.85 1245.08 168.865 1246.54 168.865H1354.56C1356.03 168.865 1357 169.85 1357 171.327V234.84C1357 236.071 1356.03 237.056 1354.56 237.056Z" fill="#EEC3F5"/>
<path d="M1279.21 227.208C1279.21 227.208 1278.72 240.255 1273.12 245.917H1292.87C1298.72 240.255 1298.96 227.208 1298.96 227.208H1279.21Z" fill="#E99EF6"/>
<path d="M1250.2 204.314C1250.2 204.314 1249.71 217.361 1244.11 223.023H1263.86C1269.71 217.361 1269.95 204.314 1269.95 204.314H1250.2Z" fill="#D96EEB"/>
<path d="M1343.1 215.638H1324.08C1324.08 215.638 1324.57 230.162 1320.67 234.84H1339.69C1343.59 230.162 1343.1 215.638 1343.1 215.638Z" fill="#E99EF6"/>
<path fill-rule="evenodd" clipRule="evenodd" d="M1259.67 178.269C1259.67 177.674 1260.78 177.193 1262.14 177.193H1340.65C1342.02 177.193 1343.12 177.674 1343.12 178.269C1343.12 178.863 1342.02 179.345 1340.65 179.345H1262.14C1260.78 179.345 1259.67 178.863 1259.67 178.269ZM1259.67 184.725C1259.67 184.13 1260.78 183.649 1262.14 183.649H1340.65C1342.02 183.649 1343.12 184.13 1343.12 184.725C1343.12 185.319 1342.02 185.801 1340.65 185.801H1262.14C1260.78 185.801 1259.67 185.319 1259.67 184.725Z" fill="#FBE5FF"/>
<path d="M1219.4 192.251H1181.36C1179.65 192.251 1178.44 190.774 1178.44 189.296V162.217C1178.44 160.494 1179.9 159.263 1181.36 159.263H1219.4C1221.11 159.263 1222.33 160.74 1222.33 162.217V189.05C1222.33 190.774 1220.86 192.251 1219.4 192.251Z" fill="#EEC3F5"/>
<path d="M1219.4 159.263H1181.36C1179.65 159.263 1178.44 160.74 1178.44 162.217V166.648H1222.57V162.217C1222.33 160.494 1220.86 159.263 1219.4 159.263Z" fill="#E99EF6"/>
<path d="M1199.16 184.127C1199.16 184.619 1198.92 184.865 1198.19 184.865H1192.82C1192.09 184.865 1191.85 184.619 1191.85 184.127C1191.85 183.634 1192.09 183.388 1192.82 183.388H1194.53V176.003L1193.07 176.988C1192.82 176.988 1192.82 177.234 1192.58 177.234C1192.34 177.234 1192.09 177.234 1192.09 176.988C1192.09 176.741 1191.85 176.495 1191.85 176.249C1191.85 176.003 1192.09 175.757 1192.34 175.511L1194.77 174.034C1195.02 173.787 1195.51 173.787 1195.75 173.787C1195.99 173.787 1196.24 173.787 1196.48 174.034C1196.72 174.28 1196.72 174.526 1196.72 174.772V183.634H1198.43C1198.92 183.388 1199.16 183.634 1199.16 184.127Z" fill="#D96EEB"/>
<path d="M1208.67 184.127C1208.67 184.619 1208.43 184.866 1207.7 184.866H1201.6C1201.36 184.866 1201.11 184.866 1200.87 184.619C1200.62 184.373 1200.62 184.127 1200.62 183.881C1200.62 183.635 1200.87 183.389 1201.11 182.896L1204.77 178.957C1205.26 178.465 1205.5 177.973 1205.75 177.48C1205.99 176.988 1205.99 176.742 1205.99 176.249C1205.99 175.757 1205.75 175.265 1205.5 175.019C1205.26 174.772 1204.77 174.526 1204.28 174.526C1203.79 174.526 1203.31 174.526 1203.06 174.772C1202.58 175.019 1202.33 175.265 1201.84 175.511L1201.6 175.757H1201.36C1201.11 175.757 1201.11 175.757 1200.87 175.511C1200.62 175.265 1200.62 175.019 1200.62 175.019C1200.62 174.772 1200.62 174.772 1200.62 174.526L1200.87 174.28C1201.36 173.788 1201.84 173.541 1202.58 173.295C1203.31 173.049 1203.79 173.049 1204.53 173.049C1205.5 173.049 1206.48 173.295 1207.21 173.788C1207.94 174.28 1208.18 175.019 1208.18 176.003C1208.18 176.742 1207.94 177.234 1207.7 177.727C1207.45 178.219 1206.96 178.957 1206.23 179.696L1203.55 182.65H1207.7C1208.43 183.389 1208.67 183.635 1208.67 184.127Z" fill="#D96EEB"/>
<path d="M1207.7 163.695H1193.8C1193.31 163.695 1193.07 163.449 1193.07 162.956C1193.07 162.464 1193.31 162.218 1193.8 162.218H1207.7C1208.18 162.218 1208.43 162.464 1208.43 162.956C1208.43 163.449 1207.94 163.695 1207.7 163.695Z" fill="#FBE5FF"/>
<path d="M920.32 234.332H918.299V83.7842V79.4776H920.32V234.332Z" fill="#CBC7D2"/>
<mask id="mask0_1107_161" style="mask-type:alpha" maskUnits="userSpaceOnUse" x="888" y="222" width="63" height="38">
<path d="M894.17 259.711C892.975 259.711 888.241 260.364 888.517 258.8C891.827 239.839 904.333 222.168 919.277 222.168C934.22 222.168 946.772 239.839 950.082 258.8C950.358 260.364 946.267 259.711 945.072 259.711H894.17Z" fill="#716981"/>
</mask>
<g mask="url(#mask0_1107_161)">
<path d="M894.17 259.711C892.975 259.711 888.241 260.364 888.517 258.8C891.827 239.839 904.333 222.168 919.277 222.168C934.22 222.168 946.772 239.839 950.082 258.8C950.358 260.364 946.267 259.711 945.072 259.711H894.17Z" fill="#615872"/>
<path d="M882.801 255.212L885.504 252.135C886.896 250.55 889.377 250.596 890.71 252.23V252.23C892.003 253.816 894.392 253.913 895.811 252.439L896.298 251.933C897.724 250.451 900.137 250.596 901.374 252.239V252.239C902.569 253.827 904.878 254.026 906.327 252.667L907.316 251.74C908.846 250.305 911.264 250.437 912.63 252.029V252.029C914.076 253.717 916.702 253.719 918.188 252.066V252.066C919.622 250.472 922.123 250.377 923.643 251.891L924.404 252.649C925.77 254.01 928.02 253.865 929.201 252.34L929.3 252.212C930.522 250.632 932.901 250.617 934.144 252.18V252.18C935.376 253.731 937.731 253.731 938.963 252.18L939.055 252.065C940.284 250.518 942.61 250.447 943.932 251.917L944.42 252.46C945.703 253.886 947.968 253.788 949.122 252.255V252.255C950.321 250.662 952.703 250.631 953.943 252.192L956.344 255.212" stroke="#7E7591" stroke-width="0.507468"/>
<path d="M887.283 247.161L889.986 244.083C891.378 242.499 893.86 242.544 895.192 244.178V244.178C896.486 245.764 898.875 245.862 900.294 244.387L900.78 243.881C902.206 242.399 904.619 242.545 905.856 244.188V244.188C907.052 245.775 909.36 245.975 910.81 244.615L911.798 243.688C913.329 242.254 915.747 242.385 917.112 243.978V243.978C918.559 245.665 921.184 245.667 922.67 244.015V244.015C924.105 242.42 926.606 242.325 928.125 243.839L928.886 244.597C930.253 245.958 932.503 245.813 933.683 244.288L933.782 244.16C935.004 242.58 937.384 242.565 938.626 244.129V244.129C939.858 245.679 942.213 245.679 943.446 244.129L943.537 244.013C944.767 242.466 947.092 242.395 948.414 243.865L948.903 244.408C950.185 245.835 952.451 245.736 953.604 244.204V244.204C954.804 242.61 957.185 242.579 958.426 244.14L960.826 247.161" stroke="#7E7591" stroke-width="0.507468"/>
<path d="M887.283 231.058L889.986 227.98C891.378 226.396 893.86 226.441 895.192 228.075V228.075C896.486 229.661 898.875 229.759 900.294 228.284L900.78 227.778C902.206 226.296 904.619 226.442 905.856 228.085V228.085C907.052 229.672 909.36 229.872 910.81 228.513L911.798 227.586C913.329 226.151 915.747 226.283 917.112 227.875V227.875C918.559 229.562 921.184 229.564 922.67 227.912V227.912C924.105 226.317 926.606 226.223 928.125 227.736L928.886 228.494C930.253 229.855 932.503 229.71 933.683 228.185L933.782 228.057C935.004 226.478 937.384 226.462 938.626 228.026V228.026C939.858 229.576 942.213 229.576 943.446 228.026L943.537 227.911C944.767 226.363 947.092 226.293 948.414 227.762L948.903 228.306C950.185 229.732 952.451 229.633 953.604 228.101V228.101C954.804 226.508 957.185 226.476 958.426 228.038L960.826 231.058" stroke="#7E7591" stroke-width="0.507468"/>
<path d="M880.695 239.109L883.399 236.032C884.79 234.447 887.272 234.493 888.604 236.127V236.127C889.898 237.713 892.287 237.81 893.706 236.336L894.193 235.83C895.618 234.348 898.032 234.493 899.268 236.136V236.136C900.464 237.724 902.772 237.923 904.222 236.564L905.211 235.637C906.741 234.202 909.159 234.334 910.524 235.926V235.926C911.971 237.613 914.597 237.616 916.083 235.963V235.963C917.517 234.369 920.018 234.274 921.537 235.787L922.299 236.546C923.665 237.907 925.915 237.762 927.095 236.236L927.194 236.109C928.416 234.529 930.796 234.514 932.038 236.077V236.077C933.271 237.628 935.625 237.628 936.858 236.077L936.949 235.962C938.179 234.415 940.504 234.344 941.826 235.813L942.315 236.357C943.597 237.783 945.863 237.684 947.016 236.152V236.152C948.216 234.559 950.597 234.528 951.838 236.089L954.238 239.109" stroke="#7E7591" stroke-width="0.507468"/>
</g>
<path opacity="0.08" fill-rule="evenodd" clipRule="evenodd" d="M889.008 259.559C888.65 259.399 888.451 259.157 888.514 258.8C891.635 240.924 902.929 224.195 916.733 222.339C904.364 230.573 897.293 249.217 895.168 258.42L889.008 259.559Z" fill="black"/>
<path opacity="0.08" fill-rule="evenodd" clipRule="evenodd" d="M949.603 259.559C949.961 259.399 950.16 259.157 950.097 258.8C946.976 240.924 935.682 224.195 921.878 222.339C934.248 230.573 941.318 249.217 943.444 258.42L949.603 259.559Z" fill="white"/>
<path d="M919.3 226.16C920.384 226.16 921.252 225.306 921.252 224.239V220.098C921.252 219.03 920.384 218.177 919.3 218.177C918.216 218.177 917.348 219.03 917.348 220.098V224.239C917.391 225.306 918.259 226.16 919.3 226.16Z" fill="#645C74"/>
<ellipse cx="919.275" cy="259.13" rx="30.8341" ry="2.60073" fill="white"/>
<path d="M919.276 264.957C914.591 264.957 910.794 261.219 910.794 256.609C910.794 256.609 915.963 256.518 919.276 256.518C922.588 256.518 927.758 256.609 927.758 256.609C927.758 261.219 923.96 264.957 919.276 264.957Z" fill="#FFC082"/>
<path d="M864.852 176.5H862.83V84.5317V78.9376H864.852V176.5Z" fill="#CBC7D2"/>
<mask id="mask1_1107_161" style="mask-type:alpha" maskUnits="userSpaceOnUse" x="823" y="160" width="81" height="50">
<path d="M830.884 209.466C829.331 209.466 823.181 210.314 823.54 208.282C827.84 183.653 844.085 160.7 863.495 160.7C882.905 160.7 899.21 183.653 903.51 208.282C903.868 210.314 898.555 209.466 897.002 209.466H830.884Z" fill="#716981"/>
</mask>
<g mask="url(#mask1_1107_161)">
<path d="M830.884 209.466C829.331 209.466 823.181 210.314 823.54 208.282C827.84 183.653 844.085 160.7 863.495 160.7C882.905 160.7 899.21 183.653 903.51 208.282C903.868 210.314 898.555 209.466 897.002 209.466H830.884Z" fill="#615872"/>
<path d="M816.111 203.622L819.623 199.625C821.43 197.567 824.654 197.626 826.385 199.748V199.748C828.065 201.808 831.168 201.935 833.011 200.019L833.643 199.362C835.495 197.437 838.63 197.626 840.237 199.76V199.76C841.789 201.823 844.788 202.081 846.671 200.316L847.955 199.112C849.943 197.248 853.083 197.419 854.857 199.488V199.488C856.736 201.679 860.147 201.682 862.077 199.536V199.536C863.94 197.464 867.189 197.341 869.163 199.307L870.151 200.292C871.926 202.06 874.849 201.872 876.382 199.891L876.511 199.724C878.098 197.673 881.189 197.653 882.803 199.684V199.684C884.403 201.698 887.462 201.698 889.063 199.684L889.182 199.534C890.779 197.524 893.8 197.432 895.516 199.341L896.151 200.047C897.817 201.9 900.76 201.772 902.258 199.781V199.781C903.817 197.712 906.91 197.671 908.521 199.699L911.639 203.622" stroke="#7E7591" stroke-width="0.65917"/>
<path d="M821.938 193.164L825.449 189.166C827.256 187.108 830.48 187.167 832.211 189.289V189.289C833.891 191.349 836.994 191.476 838.837 189.561L839.47 188.903C841.321 186.978 844.456 187.168 846.063 189.302V189.302C847.615 191.364 850.614 191.623 852.497 189.857L853.781 188.653C855.769 186.79 858.91 186.961 860.683 189.029V189.029C862.562 191.221 865.973 191.224 867.903 189.077V189.077C869.766 187.006 873.015 186.883 874.989 188.849L875.978 189.834C877.752 191.602 880.675 191.413 882.208 189.432L882.337 189.266C883.924 187.214 887.015 187.194 888.629 189.225V189.225C890.23 191.239 893.288 191.239 894.889 189.225L895.008 189.076C896.605 187.066 899.626 186.974 901.343 188.883L901.977 189.589C903.643 191.441 906.586 191.313 908.085 189.322V189.322C909.643 187.253 912.736 187.212 914.347 189.241L917.465 193.164" stroke="#7E7591" stroke-width="0.65917"/>
<path d="M821.938 172.247L825.449 168.25C827.256 166.192 830.48 166.251 832.211 168.373V168.373C833.891 170.433 836.994 170.56 838.837 168.644L839.47 167.987C841.321 166.062 844.456 166.251 846.063 168.385V168.385C847.615 170.448 850.614 170.706 852.497 168.941L853.781 167.737C855.769 165.873 858.91 166.044 860.683 168.113V168.113C862.562 170.304 865.973 170.307 867.903 168.161V168.161C869.766 166.089 873.015 165.966 874.989 167.932L875.978 168.917C877.752 170.685 880.675 170.497 882.208 168.516L882.337 168.349C883.924 166.298 887.015 166.278 888.629 168.309V168.309C890.23 170.323 893.288 170.323 894.889 168.309L895.008 168.159C896.605 166.149 899.626 166.057 901.343 167.966L901.977 168.672C903.643 170.525 906.586 170.397 908.085 168.406V168.406C909.643 166.337 912.736 166.296 914.347 168.324L917.465 172.247" stroke="#7E7591" stroke-width="0.65917"/>
<path d="M813.379 182.706L816.89 178.708C818.698 176.65 821.921 176.709 823.652 178.831V178.831C825.333 180.891 828.436 181.018 830.279 179.103L830.911 178.445C832.763 176.52 835.898 176.71 837.504 178.844V178.844C839.057 180.906 842.055 181.165 843.938 179.399L845.223 178.195C847.21 176.332 850.351 176.503 852.125 178.571V178.571C854.004 180.762 857.415 180.765 859.345 178.619V178.619C861.208 176.548 864.457 176.425 866.43 178.391L867.419 179.375C869.194 181.143 872.117 180.955 873.649 178.974L873.778 178.808C875.366 176.756 878.456 176.736 880.07 178.767V178.767C881.671 180.781 884.73 180.781 886.331 178.767L886.449 178.617C888.047 176.607 891.067 176.515 892.784 178.424L893.419 179.13C895.085 180.983 898.027 180.855 899.526 178.864V178.864C901.084 176.795 904.177 176.754 905.789 178.782L908.907 182.706" stroke="#7E7591" stroke-width="0.65917"/>
</g>
<path opacity="0.08" fill-rule="evenodd" clipRule="evenodd" d="M824.183 209.269C823.716 209.061 823.458 208.747 823.54 208.282C827.594 185.061 842.267 163.33 860.199 160.921C844.131 171.617 834.947 195.835 832.186 207.789L824.183 209.269Z" fill="black"/>
<path opacity="0.08" fill-rule="evenodd" clipRule="evenodd" d="M902.893 209.269C903.36 209.061 903.618 208.747 903.536 208.282C899.482 185.061 884.809 163.33 866.877 160.921C882.945 171.617 892.13 195.835 894.891 207.789L902.893 209.269Z" fill="white"/>
<path d="M863.529 165.885C864.938 165.885 866.064 164.776 866.064 163.39V158.011C866.064 156.624 864.938 155.515 863.529 155.515C862.12 155.515 860.993 156.624 860.993 158.011V163.39C861.05 164.776 862.177 165.885 863.529 165.885Z" fill="#645C74"/>
<ellipse cx="863.497" cy="208.712" rx="40.0516" ry="3.37819" fill="white"/>
<path d="M863.498 216.28C857.413 216.28 852.48 211.425 852.48 205.437C852.48 205.437 859.195 205.318 863.498 205.318C867.801 205.318 874.516 205.437 874.516 205.437C874.516 211.425 869.583 216.28 863.498 216.28Z" fill="#FFC082"/>
<path d="M952.312 174.898H950.291V81.1845V78H952.312V174.898Z" fill="#CBC7D2"/>
<mask id="mask2_1107_161" style="mask-type:alpha" maskUnits="userSpaceOnUse" x="928" y="165" width="47" height="29">
<path d="M932.972 193.665C932.088 193.665 928.587 194.148 928.791 192.991C931.239 178.97 940.487 165.904 951.537 165.904C962.587 165.904 971.868 178.97 974.316 192.991C974.52 194.148 971.495 193.665 970.611 193.665H932.972Z" fill="#716981"/>
</mask>
<g mask="url(#mask2_1107_161)">
<path d="M932.972 193.665C932.088 193.665 928.587 194.148 928.791 192.991C931.239 178.97 940.487 165.904 951.537 165.904C962.587 165.904 971.868 178.97 974.316 192.991C974.52 194.148 971.495 193.665 970.611 193.665H932.972Z" fill="#615872"/>
<path d="M924.568 190.338L926.567 188.063C927.596 186.891 929.431 186.925 930.417 188.133V188.133C931.373 189.306 933.14 189.378 934.189 188.287L934.549 187.913C935.603 186.817 937.388 186.925 938.302 188.14V188.14C939.186 189.314 940.893 189.461 941.965 188.456L942.696 187.771C943.828 186.71 945.616 186.807 946.625 187.985V187.985C947.695 189.232 949.637 189.234 950.736 188.012V188.012C951.796 186.833 953.646 186.763 954.769 187.882L955.332 188.443C956.342 189.449 958.006 189.342 958.879 188.214L958.952 188.119C959.856 186.952 961.615 186.94 962.534 188.096V188.096C963.445 189.243 965.187 189.243 966.098 188.096L966.166 188.011C967.075 186.867 968.794 186.815 969.772 187.901L970.133 188.303C971.082 189.358 972.757 189.285 973.61 188.152V188.152C974.497 186.974 976.258 186.951 977.175 188.105L978.95 190.338" stroke="#7E7591" stroke-width="0.375249"/>
<path d="M927.881 184.385L929.88 182.109C930.909 180.937 932.744 180.971 933.729 182.179V182.179C934.686 183.352 936.452 183.424 937.501 182.334L937.861 181.959C938.916 180.864 940.7 180.971 941.615 182.186V182.186C942.499 183.36 944.206 183.507 945.278 182.502L946.009 181.817C947.14 180.756 948.928 180.853 949.938 182.031V182.031C951.008 183.279 952.949 183.28 954.048 182.058V182.058C955.109 180.879 956.958 180.809 958.082 181.928L958.645 182.489C959.655 183.495 961.319 183.388 962.191 182.26L962.265 182.166C963.168 180.998 964.928 180.986 965.847 182.142V182.142C966.758 183.289 968.499 183.289 969.41 182.142L969.478 182.057C970.387 180.913 972.107 180.861 973.084 181.948L973.446 182.349C974.394 183.404 976.069 183.331 976.922 182.198V182.198C977.809 181.02 979.57 180.997 980.488 182.151L982.262 184.385" stroke="#7E7591" stroke-width="0.375249"/>
<path d="M927.881 172.477L929.88 170.202C930.909 169.03 932.744 169.064 933.729 170.272V170.272C934.686 171.445 936.452 171.517 937.501 170.426L937.861 170.052C938.916 168.956 940.7 169.064 941.615 170.279V170.279C942.499 171.453 944.206 171.6 945.278 170.595L946.009 169.91C947.14 168.849 948.928 168.946 949.938 170.124V170.124C951.008 171.371 952.949 171.373 954.048 170.151V170.151C955.109 168.972 956.958 168.902 958.082 170.021L958.645 170.582C959.655 171.588 961.319 171.481 962.191 170.353L962.265 170.258C963.168 169.09 964.928 169.079 965.847 170.235V170.235C966.758 171.382 968.499 171.382 969.41 170.235L969.478 170.15C970.387 169.006 972.107 168.954 973.084 170.04L973.446 170.442C974.394 171.497 976.069 171.424 976.922 170.291V170.291C977.809 169.113 979.57 169.09 980.488 170.244L982.262 172.477" stroke="#7E7591" stroke-width="0.375249"/>
<path d="M923.012 178.431L925.011 176.155C926.04 174.984 927.875 175.017 928.86 176.226V176.226C929.817 177.398 931.583 177.471 932.632 176.38L932.992 176.006C934.047 174.91 935.831 175.018 936.746 176.233V176.233C937.63 177.407 939.337 177.554 940.409 176.549L941.14 175.863C942.271 174.803 944.059 174.9 945.069 176.077V176.077C946.138 177.325 948.08 177.327 949.179 176.105V176.105C950.239 174.926 952.089 174.856 953.213 175.975L953.775 176.535C954.786 177.542 956.45 177.435 957.322 176.307L957.395 176.212C958.299 175.044 960.059 175.033 960.977 176.189V176.189C961.889 177.336 963.63 177.336 964.541 176.189L964.609 176.104C965.518 174.96 967.238 174.907 968.215 175.994L968.576 176.396C969.525 177.451 971.2 177.378 972.053 176.244V176.244C972.94 175.066 974.701 175.043 975.618 176.198L977.393 178.431" stroke="#7E7591" stroke-width="0.375249"/>
</g>
<path opacity="0.08" fill-rule="evenodd" clipRule="evenodd" d="M929.159 193.553C928.894 193.434 928.747 193.255 928.794 192.991C931.102 179.772 939.454 167.4 949.663 166.029C940.516 172.118 935.287 185.905 933.716 192.71L929.159 193.553Z" fill="black"/>
<path opacity="0.08" fill-rule="evenodd" clipRule="evenodd" d="M973.962 193.553C974.227 193.434 974.374 193.255 974.328 192.991C972.02 179.771 963.667 167.4 953.458 166.029C962.605 172.118 967.834 185.905 969.405 192.71L973.962 193.553Z" fill="white"/>
<path d="M951.557 168.855C952.358 168.855 953 168.224 953 167.435V164.373C953 163.584 952.358 162.952 951.557 162.952C950.755 162.952 950.113 163.584 950.113 164.373V167.435C950.145 168.224 950.787 168.855 951.557 168.855Z" fill="#645C74"/>
<ellipse cx="951.537" cy="193.235" rx="22.8004" ry="1.92312" fill="white"/>
<path d="M951.536 197.544C948.072 197.544 945.264 194.78 945.264 191.371C945.264 191.371 949.087 191.304 951.536 191.304C953.986 191.304 957.809 191.371 957.809 191.371C957.809 194.78 955 197.544 951.536 197.544Z" fill="#FFC082"/>
<path d="M1079.72 367C1100.2 367 1116.8 350.416 1116.8 329.959C1116.8 309.503 1100.2 292.919 1079.72 292.919C1059.24 292.919 1042.64 309.503 1042.64 329.959C1042.64 350.416 1059.24 367 1079.72 367Z" fill="#EEC3F5"/>
<path d="M1079.72 360.669C1096.69 360.669 1110.46 346.92 1110.46 329.959C1110.46 312.999 1096.69 299.25 1079.72 299.25C1062.74 299.25 1048.98 312.999 1048.98 329.959C1048.98 346.92 1062.74 360.669 1079.72 360.669Z" fill="white"/>
<path d="M1094.7 340.373C1094.47 340.373 1094.17 340.314 1093.93 340.137L1079.01 331.143C1078.3 330.729 1078.12 329.841 1078.47 329.19L1089.97 308.362C1090.38 307.652 1091.27 307.416 1091.98 307.771C1092.69 308.185 1092.93 309.072 1092.57 309.783L1081.79 329.368L1095.41 337.652C1096.12 338.066 1096.36 338.953 1095.95 339.663C1095.65 340.137 1095.18 340.373 1094.7 340.373Z" fill="#D76CE9"/>
<path d="M1079.72 330.551C1079.54 330.551 1079.3 330.433 1079.19 330.255L1067.34 309.427C1067.16 309.132 1067.28 308.777 1067.58 308.599C1067.87 308.422 1068.23 308.54 1068.41 308.836L1080.25 329.664C1080.43 329.96 1080.31 330.315 1080.01 330.492C1079.96 330.492 1079.84 330.551 1079.72 330.551Z" fill="#D76CE9"/>
<path opacity="0.7" d="M1382.3 485.933C1382.3 485.933 1367.69 441.626 1382.3 424.747C1396.92 407.868 1450.58 397.741 1450.58 397.741" stroke="#C761DA"/>
<path opacity="0.5" d="M1372.6 485.908C1372.6 485.908 1309.41 384.259 1481.28 341.477" stroke="#C761DA"/>
<path opacity="0.3" d="M1353.19 485.486C1353.19 485.486 1303.41 400.706 1344.38 361.728C1385.36 322.75 1461.29 295.753 1461.29 295.753" stroke="#C761DA"/>
<path d="M1394.54 485.486C1394.54 485.486 1381.46 422.19 1442.42 431.498" stroke="#C761DA"/>
<path opacity="0.1" d="M1330.84 472.43C1330.84 472.43 1262.3 381.76 1314.71 336.468C1367.11 291.176 1440.73 259.731 1440.73 259.731" stroke="#C761DA"/>
</svg>
