<svg width="1440" height="1024" viewBox="0 0 1440 1024" fill="none" xmlns="http://www.w3.org/2000/svg">
<path d="M1177.29 169.97C1258.88 146.037 1270.91 125.115 1267.49 108H432C432 108 576.169 128.171 618.569 145.826C660.969 163.481 725.55 194.763 738.286 248.156C754.206 314.896 871.49 285.697 901.793 322.405C932.097 359.112 852.5 349 866.481 379.969C879.747 409.352 942.084 416.535 947.084 447.686C950.739 479.462 827.63 496.765 837.997 555.998C846.29 603.384 892.048 617.396 912.079 622.992C946.846 632.705 1002.28 636.931 994.51 653.93C986.738 670.929 903.5 668.5 916.903 707C916.903 707 930.5 680 988.156 683.895C1060.31 688.77 1073.89 633.953 994.51 599.099C861.156 540.543 1034.8 518.314 1071.5 488C1108.2 457.686 1033.06 454 1026.94 439.5C1022.93 430 1038.15 421.467 1049.99 416.217C1103.73 392.378 1113.24 362.637 1093 346C1072.76 329.363 1004.76 344.48 1008.57 276.67C1012.38 208.861 1075.29 199.886 1177.29 169.97Z" fill="url(#paint0_linear_54_1647)"/>
<rect y="-49" width="1440" height="1073" rx="4" fill="#FEF7EC"/>
<mask id="mask0_54_1647" style="mask-type:alpha" maskUnits="userSpaceOnUse" x="0" y="-49" width="1440" height="1073">
<rect y="-49" width="1440" height="1073" rx="4" fill="#FEF7EC"/>
</mask>
<g mask="url(#mask0_54_1647)">
<path d="M997.106 584.386C997.106 584.386 991.927 573.125 993.546 568.66C995.165 564.195 1000.4 564.637 1001.47 571.86C1001.47 571.86 1008.01 567.121 1011.94 571.359C1016 575.63 1005.96 580.536 997.106 584.386Z" fill="#FCE3E1"/>
<path d="M838.577 499.924C838.577 499.924 841.45 492.777 840.254 489.961C839.058 487.144 835.837 487.701 835.487 492.194C835.487 492.194 831.263 489.345 828.985 492.135C826.564 494.719 832.92 497.611 838.577 499.924Z" fill="#FCE2E0"/>
<path d="M1152.16 50.6281C1283.34 12.1519 1302.68 -21.4841 1297.18 -49H-46C-46 -49 185.775 -16.5721 253.939 11.812C322.103 40.196 425.927 90.4869 446.402 176.325C471.997 283.623 660.549 236.68 709.266 295.694C757.983 354.708 630.019 338.451 652.497 388.239C673.823 435.477 774.039 447.025 782.078 497.106C787.953 548.192 590.037 576.01 606.703 671.237C620.036 747.418 693.599 769.946 725.801 778.942C781.695 794.557 870.815 801.352 858.322 828.68C845.828 856.009 712.01 852.104 733.557 914C733.557 914 755.416 870.593 848.108 876.855C964.099 884.691 985.932 796.564 858.322 740.529C643.935 646.391 923.092 610.653 982.096 561.918C1041.1 513.183 920.304 507.257 910.46 483.946C904.011 468.673 928.477 454.955 947.507 446.514C1033.91 408.189 1049.2 360.375 1016.66 333.628C984.12 306.88 874.794 331.183 880.923 222.167C887.053 113.152 988.192 98.7233 1152.16 50.6281Z" fill="url(#paint1_linear_54_1647)"/>
<path fill-rule="evenodd" clipRule="evenodd" d="M729 907.075C729 907.075 310.153 888.704 0 755V908L729 907.075Z" fill="#FCD39B"/>
<path fill-rule="evenodd" clipRule="evenodd" d="M711 907.075C711 907.075 1129.85 888.704 1440 755V908L711 907.075Z" fill="#FCD39B"/>
<rect y="904" width="1440" height="120" fill="#FEE0B6"/>
<path d="M922.461 702C922.461 702 918.138 699.161 917.788 697.151C917.437 695.14 919.307 694.194 921.293 696.559C921.293 696.559 922.461 693.484 924.798 694.076C927.135 694.667 924.681 698.688 922.461 702Z" fill="#FCE2E0"/>
<path fill-rule="evenodd" clipRule="evenodd" d="M1302 307H1367C1367 307 1361.64 298.447 1354 298.447C1346.37 298.447 1344.65 289 1334.5 289C1324.35 289 1322.14 299.881 1314.97 299.881C1307.8 299.881 1302 307 1302 307Z" fill="white"/>
<path fill-rule="evenodd" clipRule="evenodd" d="M18 451H76C76 451 71.2133 443.397 64.404 443.397C57.5948 443.397 56.0578 435 47 435C37.9422 435 35.9685 444.672 29.574 444.672C23.1795 444.672 18 451 18 451Z" fill="white"/>
<path fill-rule="evenodd" clipRule="evenodd" d="M102 322H200C200 322 191.912 309.17 180.407 309.17C168.902 309.17 166.305 295 151 295C135.695 295 132.361 311.321 121.556 311.321C110.752 311.321 102 322 102 322Z" fill="white"/>
<path d="M1283 1024H1478.59C1478.59 1024 1503.02 1001.73 1488.26 992.788C1473.5 983.845 1448.89 1008.39 1448.89 1008.39C1448.89 1008.39 1479.47 945.969 1443.8 940.358C1408.12 934.747 1361.03 996.996 1361.03 996.996C1361.03 996.996 1380.01 961.224 1352.94 960.348C1325.88 959.471 1283 1024 1283 1024Z" fill="#72A142"/>
<path d="M1353 1023C1353 1023 1366.64 1001 1398 981" stroke="#7A7498" stroke-width="2" stroke-miterlimit="10" stroke-linecap="round"/>
<path fill-rule="evenodd" clipRule="evenodd" d="M73 716H143C143 716 137.223 706.972 129.005 706.972C120.787 706.972 118.932 697 108 697C97.0681 697 94.6862 708.485 86.9686 708.485C79.2511 708.485 73 716 73 716Z" fill="white"/>
<path d="M113.909 952.745C113.909 952.745 100.81 948.347 99.4078 954.287C97.9994 960.064 103.37 961.41 107.534 959.123C111.613 956.758 113.228 954.161 113.909 952.745Z" fill="#72A142"/>
<path d="M107.988 943.655C107.929 944.23 107.458 944.739 106.889 944.842C104.138 945.603 95.6813 946.911 90.5897 938.116C86.8166 931.64 83.1349 925.406 80.8567 921.57C79.8906 919.891 81.3685 917.954 83.1849 918.374C92.1816 920.396 110.598 926.878 107.988 943.655Z" fill="#72A142"/>
<path d="M128.327 980.228C128.327 980.228 118.889 950.428 88.4932 924.382" stroke="#7A7498" stroke-width="2" stroke-miterlimit="10" stroke-linecap="round"/>
<path d="M204.846 1023.89H-3.94819C-17.6398 991.706 -27.7492 930.736 -3.94819 928.594C15.0926 926.88 38.5844 951.208 47.9502 963.587C44.1415 953.351 41.023 933.164 59.0195 934.307C77.016 935.449 103.809 976.192 114.955 996.421C114.018 986.389 117.88 966.718 140.832 968.293C163.784 969.868 193.072 1006.01 204.846 1023.89Z" fill="#72A142"/>
<path d="M186.5 1024.03C186.5 1024.03 158.462 1006.82 161.515 994.239C164.569 981.656 182.796 998.403 182.796 998.403C182.796 998.403 160.868 951.216 183.073 950.661C205.372 950.106 199.08 1024.03 199.08 1024.03H186.5Z" fill="#679835"/>
<path d="M184.115 966.102C184.115 966.102 193 1008.13 193 1023" stroke="#7A7498" stroke-width="2" stroke-miterlimit="10" stroke-linecap="round"/>
<path d="M65.4919 948.376C73.7616 961.157 93.9097 993.935 108.344 1022.8" stroke="#7A7498" stroke-width="2" stroke-miterlimit="10" stroke-linecap="round"/>
<path fill-rule="evenodd" clipRule="evenodd" d="M1115 688H1246C1246 688 1235.19 670.894 1219.81 670.894C1204.43 670.894 1200.96 652 1180.5 652C1160.04 652 1155.58 673.761 1141.14 673.761C1126.7 673.761 1115 688 1115 688Z" fill="white"/>
<path fill-rule="evenodd" clipRule="evenodd" d="M1132 407H1240C1240 407 1231.09 392.745 1218.41 392.745C1205.73 392.745 1202.87 377 1186 377C1169.13 377 1165.46 395.134 1153.55 395.134C1141.64 395.134 1132 407 1132 407Z" fill="white"/>
</g>
<defs>
<linearGradient id="paint0_linear_54_1647" x1="987.5" y1="129.5" x2="1038.87" y2="830.737" gradientUnits="userSpaceOnUse">
<stop offset="0.00655767" stop-color="#BF599C" stop-opacity="0"/>
<stop offset="0.328185" stop-color="#FFE7F3" stop-opacity="0.16"/>
<stop offset="1" stop-color="#F2D0DA"/>
</linearGradient>
<linearGradient id="paint1_linear_54_1647" x1="847.053" y1="-14.4349" x2="929.634" y2="1112.93" gradientUnits="userSpaceOnUse">
<stop offset="0.00655767" stop-color="#FEF7EC"/>
<stop offset="0.328185" stop-color="#FFF4E3"/>
<stop offset="1" stop-color="#FEF0DA"/>
</linearGradient>
</defs>
</svg>
