<svg width="64" height="64" viewBox="0 0 64 64" fill="none" xmlns="http://www.w3.org/2000/svg">
<mask id="mask0_67_1099" style="mask-type:alpha" maskUnits="userSpaceOnUse" x="0" y="0" width="64" height="64">
<circle cx="32" cy="32" r="32" fill="#FF9A9A"/>
</mask>
<g mask="url(#mask0_67_1099)">
<circle opacity="0.4" cx="32" cy="32" r="32" fill="#FF9A9A"/>
<ellipse cx="32.0004" cy="68" rx="41.6" ry="28" fill="#FEB5B5"/>
</g>
<rect x="47.6289" y="51.1676" width="31.259" height="37.5767" rx="3" transform="rotate(-180 47.6289 51.1676)" fill="#AC3113"/>
<path d="M38.5533 41.9709C38.001 41.9709 37.5533 42.4186 37.5533 42.9709L37.5533 48.3853L19.1049 48.3853C18.5526 48.3853 18.1049 47.9376 18.1049 47.3853L18.1049 17.3732C18.1049 16.8209 18.5526 16.3732 19.1049 16.3732L43.0361 16.3732C43.5884 16.3732 44.0361 16.8209 44.0361 17.3732L44.0361 41.9709L38.5533 41.9709Z" fill="#8D250C"/>
<path d="M39.3998 41.9793C38.8475 41.9793 38.3998 42.427 38.3998 42.9793L38.3998 48.3992L21.1998 48.3992C20.0952 48.3992 19.1998 47.5038 19.1998 46.3992L19.1998 18.3594C19.1998 17.2548 20.0952 16.3594 21.1998 16.3594L42.7998 16.3594C43.9044 16.3594 44.7998 17.2548 44.7998 18.3594L44.7998 41.9793L39.3998 41.9793Z" fill="white"/>
<path d="M31.5098 41.691H39.5098" stroke="#FFD9D9" stroke-linecap="round"/>
<path d="M44.8117 41.9683L38.3867 48.3715V42.9683C38.3867 42.4161 38.8344 41.9683 39.3867 41.9683H44.8117Z" fill="#DFCBCB"/>
<rect x="26.4004" y="12.8324" width="11.2" height="4.46872" rx="2" fill="#80250F"/>
<rect x="21.8076" y="19.291" width="6.4" height="6.4" rx="1" fill="#AEFAD5"/>
<rect x="21.8076" y="28.891" width="6.4" height="6.4" rx="1" fill="#FFD9D9"/>
<rect x="21.8076" y="38.491" width="6.4" height="6.4" rx="1" fill="#FFD9D9"/>
<path d="M23.7218 22.1587C23.6241 22.0611 23.4658 22.0611 23.3682 22.1587C23.2706 22.2563 23.2706 22.4146 23.3682 22.5123L23.7218 22.1587ZM23.3682 22.5123L24.4294 23.5736L24.783 23.22L23.7218 22.1587L23.3682 22.5123Z" fill="#60BD90"/>
<path d="M26.4688 21.568L24.6228 23.4139" stroke="#60BD90" stroke-width="0.5" stroke-linecap="round"/>
<path d="M31.5098 22.491H39.5098" stroke="#60BD90" stroke-linecap="round"/>
<path d="M31.5098 32.091H39.5098" stroke="#FFD9D9" stroke-linecap="round"/>
</svg>
