<svg width="100" height="100" viewBox="0 0 100 100" fill="none" xmlns="http://www.w3.org/2000/svg">
<mask id="mask0_967_187" style="mask-type:alpha" maskUnits="userSpaceOnUse" x="0" y="0" width="100" height="100">
<circle cx="50" cy="50" r="50" fill="#FF9A9A"/>
</mask>
<g mask="url(#mask0_967_187)">
<circle opacity="0.4" cx="50" cy="50" r="50" fill="#FF9A9A"/>
<ellipse cx="50" cy="106.25" rx="65" ry="43.75" fill="#FEB5B5"/>
</g>
<rect x="74.4205" y="79.9493" width="48.8422" height="58.7136" rx="3" transform="rotate(-180 74.4205 79.9493)" fill="#AC3113"/>
<path d="M59.677 65.5795C59.1247 65.5795 58.677 66.0272 58.677 66.5795L58.677 75.6019L29.2888 75.6019C28.7365 75.6019 28.2888 75.1542 28.2888 74.6019L28.2888 26.583C28.2888 26.0307 28.7365 25.583 29.2888 25.583L67.8064 25.583C68.3587 25.583 68.8064 26.0307 68.8064 26.583L68.8064 65.5795L59.677 65.5795Z" fill="#8D250C"/>
<path d="M61.0002 65.5925C60.4479 65.5925 60.0002 66.0402 60.0002 66.5925L60.0002 75.6237L32.0002 75.6237C30.8956 75.6237 30.0002 74.7282 30.0002 73.6237L30.0002 27.5614C30.0002 26.4568 30.8956 25.5614 32.0002 25.5614L68.0002 25.5614C69.1048 25.5614 70.0002 26.4568 70.0002 27.5614L70.0002 65.5925L61.0002 65.5925Z" fill="white"/>
<path d="M49.2336 65.1422H61.7336" stroke="#FFD9D9" stroke-linecap="round"/>
<path d="M70.0187 65.5756L59.9796 75.5804V66.5756C59.9796 66.0233 60.4273 65.5756 60.9796 65.5756H70.0187Z" fill="#DFCBCB"/>
<rect x="41.2502" y="20.0505" width="17.5" height="6.98237" rx="2" fill="#80250F"/>
<rect x="34.0738" y="30.1422" width="10" height="10" rx="1" fill="#AEFAD5"/>
<rect x="34.0738" y="45.1421" width="10" height="10" rx="1" fill="#FFD9D9"/>
<rect x="34.0738" y="60.1421" width="10" height="10" rx="1" fill="#FFD9D9"/>
<path d="M36.9654 34.7224C36.8678 34.6248 36.7095 34.6248 36.6118 34.7224C36.5142 34.82 36.5142 34.9783 36.6118 35.076L36.9654 34.7224ZM36.6118 35.076L38.27 36.7343L38.6235 36.3808L36.9654 34.7224L36.6118 35.076Z" fill="#60BD90"/>
<path d="M41.3577 33.7L38.4734 36.5843" stroke="#60BD90" stroke-width="0.5" stroke-linecap="round"/>
<path d="M49.2336 35.1421H61.7336" stroke="#60BD90" stroke-linecap="round"/>
<path d="M49.2336 50.142H61.7336" stroke="#FFD9D9" stroke-linecap="round"/>
</svg>
