<svg width="39" height="39" viewBox="0 0 39 39" fill="none" xmlns="http://www.w3.org/2000/svg">
<path d="M34.125 3.25H9.75C8.88805 3.25 8.0614 3.59241 7.4519 4.2019C6.84241 4.8114 6.5 5.63805 6.5 6.5V11.375H3.25V14.625H6.5V17.875H3.25V21.125H6.5V24.375H3.25V27.625H6.5V32.5C6.5 33.362 6.84241 34.1886 7.4519 34.7981C8.0614 35.4076 8.88805 35.75 9.75 35.75H34.125C34.556 35.75 34.9693 35.5788 35.274 35.274C35.5788 34.9693 35.75 34.556 35.75 34.125V4.875C35.75 4.44402 35.5788 4.0307 35.274 3.72595C34.9693 3.4212 34.556 3.25 34.125 3.25ZM21.125 8.12337C23.803 8.12337 26 10.3187 26 12.9984C25.9953 14.29 25.4802 15.5274 24.567 16.4409C23.6539 17.3544 22.4166 17.8699 21.125 17.875C18.4486 17.875 16.25 15.6764 16.25 12.9984C16.25 10.3187 18.4486 8.12337 21.125 8.12337ZM30.875 29.25H11.375V28.0312C11.375 24.4254 15.7706 20.7188 21.125 20.7188C26.4794 20.7188 30.875 24.4254 30.875 28.0312V29.25Z" fill="#FB6C37"/>
</svg>
