<svg width="49" height="49" viewBox="0 0 49 49" fill="none" xmlns="http://www.w3.org/2000/svg">
<path d="M36.0644 8.32184C36.9954 7.8716 37.6403 6.92151 37.6403 5.81879C37.6403 5.08208 37.3476 4.37554 36.8267 3.85461C36.3058 3.33367 35.5992 3.04102 34.8625 3.04102C34.1258 3.04102 33.4193 3.33367 32.8983 3.85461C32.3774 4.37554 32.0847 5.08208 32.0847 5.81879C32.0847 6.93677 32.7448 7.89449 33.6949 8.3371C32.596 14.2895 30.9095 18.7194 24.6328 19.6657C24.6328 19.6657 26.3231 28.1173 34.2291 28.1173C42.1351 28.1173 42.9364 19.7496 42.9364 19.7496C36.5223 20.0778 35.9805 12.0154 36.0644 8.32184Z" fill="#F19534"/>
<path d="M13.2548 8.32184C12.3238 7.8716 11.679 6.92151 11.679 5.81879C11.679 5.08208 11.9716 4.37554 12.4926 3.85461C13.0135 3.33367 13.7201 3.04102 14.4568 3.04102C15.1935 3.04102 15.9 3.33367 16.4209 3.85461C16.9419 4.37554 17.2345 5.08208 17.2345 5.81879C17.2345 6.93677 16.5744 7.89449 15.6243 8.3371C16.7232 14.2895 18.4098 18.7194 24.6865 19.6657C24.6865 19.6657 22.9961 28.1173 15.0902 28.1173C7.18418 28.1173 6.38672 19.7535 6.38672 19.7535C12.797 20.0778 13.3388 12.0154 13.2548 8.32184Z" fill="#F19534"/>
<path d="M34.123 28.1174C34.1574 28.1174 34.1917 28.1212 34.2261 28.1212C36.4048 28.1212 38.0417 27.484 39.2703 26.5645L34.123 28.1174Z" fill="#FFCA28"/>
<path d="M45.4978 6.43323C44.2272 6.26153 43.0138 7.47108 42.7925 9.12706C42.6552 10.1611 42.9337 11.1265 43.4717 11.7484L42.5559 15.5449C42.5559 15.5449 41.1556 24.5155 34.0814 26.2859C28.4267 27.7015 26.3777 17.3497 25.8817 14.1522C26.9577 13.6181 27.7017 12.5115 27.7017 11.2257C27.7017 9.42087 26.2403 7.95948 24.4355 7.95948C22.6307 7.95948 21.1694 9.42087 21.1694 11.2257C21.1694 12.5192 21.9249 13.6371 23.0199 14.1637C22.6269 17.3192 20.8946 27.3276 14.7896 26.2821C8.59306 25.2176 5.88778 14.7818 5.26202 11.943C6.00606 11.3325 6.42197 10.2565 6.26934 9.10035C6.04804 7.44056 4.73546 6.25008 3.33894 6.43705C1.94242 6.62401 0.992332 8.11974 1.21364 9.77572C1.37389 10.9815 2.11413 11.9392 3.04132 12.3017L7.8948 42.4565C7.8948 42.4565 12.1301 45.8028 24.4355 45.8028C36.7409 45.8028 40.9763 42.4565 40.9763 42.4565L45.8412 12.2215C46.6272 11.8094 47.2453 10.8823 47.398 9.74519C47.6231 8.0854 46.7722 6.60494 45.4978 6.43323Z" fill="#FFCA28"/>
<path d="M24.5875 38.1216C26.64 38.1216 28.3039 36.1382 28.3039 33.6917C28.3039 31.2451 26.64 29.2617 24.5875 29.2617C22.535 29.2617 20.8711 31.2451 20.8711 33.6917C20.8711 36.1382 22.535 38.1216 24.5875 38.1216Z" fill="#26A69A"/>
<path d="M24.5871 30.3572C24.7321 30.5174 24.8618 30.8112 24.5871 31.3836C24.3123 31.9559 22.8319 32.7305 22.561 32.8869C22.2901 33.0472 22.1107 32.9747 22.0268 32.9098C21.6261 32.5893 21.7788 31.8643 22.0382 31.4217C22.5953 30.464 23.7743 29.4757 24.5871 30.3572Z" fill="#69F0AE"/>
<path d="M24.3127 35.3437C23.893 35.5459 22.5155 36.1603 22.9696 36.889C23.2367 37.3202 23.7899 37.5034 24.2974 37.5263C24.8049 37.5492 25.3047 37.3889 25.755 37.1561C27.8917 36.0496 28.0634 33.1421 27.6475 32.9208C27.2202 32.6919 26.9302 33.2833 26.7089 33.5351C26.036 34.2887 25.2219 34.9032 24.3127 35.3437Z" fill="#00796B"/>
<path d="M45.0582 30.0673C45.6534 26.7744 43.4404 25.9502 43.4404 25.9502C43.4404 25.9502 42.0133 25.6907 41.3418 29.3957C40.6702 33.0969 42.0973 33.3563 42.0973 33.3563C42.0973 33.3563 44.4592 33.3602 45.0582 30.0673Z" fill="#26A69A"/>
<path d="M44.0739 27.0754C44.5929 27.7698 43.9785 28.7962 42.9827 29.4792C42.6889 29.6814 42.2997 29.6051 42.2424 29.4372C42.0822 28.9565 42.1509 28.4108 42.3645 27.9491C42.9979 26.5641 43.8107 26.7243 44.0739 27.0754Z" fill="#69F0AE"/>
<path d="M3.72381 30.1659C3.12475 26.8768 5.34163 26.0488 5.34163 26.0488C5.34163 26.0488 6.76868 25.7894 7.44023 29.4944C8.11178 33.1955 6.68473 33.455 6.68473 33.455C6.68473 33.455 4.31905 33.4588 3.72381 30.1659Z" fill="#26A69A"/>
<path d="M6.02203 27.1674C6.53332 27.5489 6.32346 28.0488 5.93808 28.396C5.49929 28.7966 5.16351 29.2354 4.78958 29.6895C4.73235 29.7582 4.66748 29.8345 4.57591 29.8536C4.40039 29.8917 4.25921 29.7124 4.20197 29.5407C4.0379 29.0599 4.06843 28.4952 4.31263 28.0526C5.00707 26.7896 5.82361 27.0186 6.02203 27.1674Z" fill="#69F0AE"/>
<path d="M38.1529 33.2567C37.8897 34.7563 36.6877 35.798 35.4629 35.5843C34.2381 35.3706 34.0702 34.0924 34.3335 32.5928C34.5968 31.0933 35.1882 29.9448 36.4092 30.1585C37.634 30.3721 38.4162 31.761 38.1529 33.2567Z" fill="#F44336"/>
<path d="M11.6103 33.2567C11.8735 34.7563 13.0754 35.798 14.3003 35.5843C15.5251 35.3706 15.693 34.0924 15.4297 32.5928C15.1664 31.0933 14.575 29.9448 13.354 30.1585C12.133 30.3721 11.3508 31.761 11.6103 33.2567Z" fill="#F44336"/>
<path d="M13.3853 32.2574C13.1068 32.5703 12.4276 33.1999 12.1872 32.7191C11.8591 32.0628 12.3131 31.0708 12.8321 30.7426C13.351 30.4145 13.7745 30.6739 13.847 30.9677C13.9348 31.3417 13.6334 31.9751 13.3853 32.2574Z" fill="#FFA8A4"/>
<path d="M35.0956 33.2148C34.7179 33.1576 34.6759 31.8565 35.6909 30.8339C36.1754 30.3455 36.8699 30.9254 36.6944 31.7077C36.5265 32.4517 35.7863 33.3217 35.0956 33.2148Z" fill="#FFA8A4"/>
<path d="M41.6475 37.4736C39.3619 38.6183 34.1192 41.667 24.439 41.667C14.7587 41.667 9.51608 38.6183 7.23052 37.4736C7.23052 37.4736 6.41016 37.9124 6.41016 38.3703V41.8845C6.41016 42.3538 6.65817 42.785 7.06263 43.0254C8.84834 44.0785 14.2894 46.5663 24.4428 46.5663C34.5962 46.5663 40.0373 44.0785 41.823 43.0254C42.0215 42.9083 42.1861 42.7415 42.3005 42.5415C42.4149 42.3414 42.4752 42.115 42.4754 41.8845V38.3703C42.4678 37.9124 41.6475 37.4736 41.6475 37.4736Z" fill="#FFCA28"/>
<path d="M15.1108 42.2928C16.1792 42.5026 16.5035 42.5942 16.431 43.1895C16.2822 44.3609 13.8516 44.0823 12.4131 43.7046C9.44076 42.9224 8.83789 42.0982 8.83789 41.3618C8.83789 40.6864 9.35682 40.6063 10.1581 40.8886C11.1158 41.2282 12.5963 41.8006 15.1108 42.2928Z" fill="#FFF59D"/>
<path d="M41.6474 38.2441C41.6474 38.2441 35.3249 41.8232 24.4389 41.8232C13.553 41.8232 7.23047 38.2441 7.23047 38.2441" stroke="#F19534" stroke-width="4" stroke-miterlimit="10" stroke-linecap="round"/>
<path d="M10.2913 18.9145C12.3212 17.4645 13.4125 14.8661 13.5079 10.73C13.5155 10.356 13.6224 10.2454 13.8246 10.2225C14.1489 10.1881 14.2023 10.4819 14.1985 10.6918C14.1069 15.1561 13.5384 17.9453 11.2872 19.5173C11.1765 19.5937 10.3867 20.0744 10.0509 19.7425C9.6503 19.3533 10.1616 19.0061 10.2913 18.9145Z" fill="#FFCA28"/>
<path d="M12.1481 5.92908C12.0832 5.23845 12.2435 3.99455 14.0559 3.42984C14.5862 3.26577 14.9144 3.52523 14.9754 3.72746C15.1281 4.23112 14.6854 4.42954 14.4832 4.4944C13.0905 4.94464 13.0218 5.63909 12.7357 6.0817C12.4495 6.52431 12.171 6.13894 12.1481 5.92908Z" fill="#FFCA28"/>
<path d="M29.8453 17.9986C31.6806 16.3694 32.8978 14.5493 33.6991 10.4055C33.7716 10.0392 33.8784 9.94004 34.0768 9.94767C34.4012 9.9553 34.4164 10.2567 34.3821 10.4628C33.7029 14.8813 33.0581 16.1404 30.7954 18.6473C30.5397 18.9296 29.9178 19.1853 29.5668 18.8915C29.2501 18.6282 29.6164 18.2047 29.8453 17.9986Z" fill="#FFCA28"/>
<path d="M32.5465 5.96423C32.4816 5.2736 32.6419 4.02971 34.4543 3.465C34.9847 3.30093 35.3128 3.56039 35.3739 3.76262C35.5265 4.26628 35.0839 4.46469 34.8817 4.52956C33.489 4.9798 33.4203 5.67424 33.1341 6.11686C32.8517 6.55947 32.5694 6.17409 32.5465 5.96423Z" fill="#FFCA28"/>
<path d="M12.0534 27.327C7.61966 25.3162 6.31471 20.0697 5.62027 17.7918C5.5287 17.4904 5.57448 17.2042 5.87592 17.1126C6.17735 17.021 6.35669 17.2156 6.45208 17.5171C6.95574 19.1692 8.91316 24.6866 12.9539 26.2549C13.2477 26.3693 13.7056 26.6479 13.4576 27.1248C13.2935 27.4339 12.7669 27.6514 12.0534 27.327Z" fill="#FFF59D"/>
<path d="M4.83885 9.39772C4.62518 8.95511 4.53742 8.53539 3.37365 8.05081C3.07985 7.92871 2.88525 7.6578 2.96538 7.35255C3.04551 7.0473 3.35076 6.81836 3.79337 6.89467C5.23186 7.14269 5.54474 8.60407 5.60579 9.11155C5.66303 9.59995 5.05634 9.84034 4.83885 9.39772Z" fill="#FFF59D"/>
<path d="M36.9615 27.327C41.3953 25.3162 42.7002 20.0697 43.3947 17.7918C43.4863 17.4904 43.4405 17.2042 43.139 17.1126C42.8376 17.021 42.6583 17.2156 42.5629 17.5171C42.0592 19.1692 40.1018 24.6866 36.0611 26.2549C35.7672 26.3693 35.3094 26.6479 35.5574 27.1248C35.7215 27.4339 36.248 27.6514 36.9615 27.327Z" fill="#FFF59D"/>
<path d="M44.177 9.39772C44.3906 8.95511 44.4784 8.53539 45.6422 8.05081C45.936 7.92871 46.1306 7.6578 46.0504 7.35255C45.9703 7.0473 45.665 6.81836 45.2224 6.89467C43.7839 7.14269 43.4711 8.60407 43.41 9.11155C43.3528 9.59995 43.9633 9.84034 44.177 9.39772Z" fill="#FFF59D"/>
<path d="M22.6569 11.2755C22.8896 10.7986 23.2979 10.1461 24.6296 9.87139C25.1409 9.76455 25.2897 9.54324 25.2439 9.20747C25.1523 8.50921 24.2823 8.55881 23.813 8.66946C22.2486 9.03576 21.9014 10.4247 21.8365 10.9741C21.7717 11.4968 22.4279 11.7525 22.6569 11.2755Z" fill="#FFF59D"/>
</svg>
