<svg width="20" height="20" viewBox="0 0 20 20" fill="none" xmlns="http://www.w3.org/2000/svg">
<path d="M2.57715 7.83594H17.4305" stroke="#54586F" stroke-width="1.2" stroke-linecap="round" stroke-linejoin="round"/>
<path d="M13.7021 11.0908H13.7111" stroke="#54586F" stroke-width="1.2" stroke-linecap="round" stroke-linejoin="round"/>
<path d="M10.0039 11.0908H10.0129" stroke="#54586F" stroke-width="1.2" stroke-linecap="round" stroke-linejoin="round"/>
<path d="M6.29785 11.0908H6.30685" stroke="#54586F" stroke-width="1.2" stroke-linecap="round" stroke-linejoin="round"/>
<path d="M13.7021 14.3301H13.7111" stroke="#54586F" stroke-width="1.2" stroke-linecap="round" stroke-linejoin="round"/>
<path d="M10.0039 14.3301H10.0129" stroke="#54586F" stroke-width="1.2" stroke-linecap="round" stroke-linejoin="round"/>
<path d="M6.29785 14.3301H6.30685" stroke="#54586F" stroke-width="1.2" stroke-linecap="round" stroke-linejoin="round"/>
<path d="M13.3701 1.66602V4.40851" stroke="#54586F" stroke-width="1.2" stroke-linecap="round" stroke-linejoin="round"/>
<path d="M6.63867 1.66602V4.40851" stroke="#54586F" stroke-width="1.2" stroke-linecap="round" stroke-linejoin="round"/>
<path fill-rule="evenodd" clip-rule="evenodd" d="M13.5317 2.98228H6.47583C4.02833 2.98228 2.5 4.34395 2.5 6.84978V14.3914C2.5 16.9373 4.02833 18.3323 6.47583 18.3323H13.5242C15.9792 18.3323 17.5 16.9614 17.5 14.4556V6.85061C17.5083 4.34478 15.9867 2.98145 13.5317 2.98145V2.98228Z" stroke="#54586F" stroke-width="1.2" stroke-linecap="round" stroke-linejoin="round"/>
</svg>
