<svg width="39" height="39" viewBox="0 0 39 39" fill="none" xmlns="http://www.w3.org/2000/svg">
<path d="M19.7204 3.65577C10.8098 3.53542 3.53542 10.8098 3.65577 19.7204C3.7746 28.2661 10.7329 35.2244 19.2786 35.3433C28.1907 35.4651 35.4636 28.1907 35.3417 19.2801C35.2244 10.7329 28.2661 3.7746 19.7204 3.65577ZM18.4415 18.3166L22.3681 13.8224C22.5809 13.579 22.8816 13.43 23.2041 13.4083C23.5267 13.3866 23.8447 13.4939 24.0881 13.7066C24.3315 13.9194 24.4805 14.2201 24.5022 14.5426C24.5239 14.8652 24.4166 15.1832 24.2039 15.4266L20.2772 19.9207C20.1719 20.0413 20.0439 20.1399 19.9004 20.2109C19.757 20.282 19.6009 20.3241 19.4412 20.3349C19.2815 20.3456 19.1212 20.3248 18.9696 20.2736C18.8179 20.2224 18.6778 20.1419 18.5573 20.0365C18.4367 19.9312 18.3381 19.8032 18.2671 19.6597C18.196 19.5163 18.1539 19.3602 18.1432 19.2005C18.1324 19.0408 18.1532 18.8805 18.2044 18.7289C18.2556 18.5772 18.3362 18.4371 18.4415 18.3166ZM15.4815 25.2368C15.2529 25.4652 14.943 25.5935 14.6199 25.5935C14.2969 25.5935 13.987 25.4652 13.7584 25.2368L10.106 21.5805C9.99287 21.4673 9.90314 21.3329 9.84195 21.185C9.78077 21.0371 9.74931 20.8786 9.74938 20.7185C9.74945 20.5584 9.78105 20.3999 9.84237 20.2521C9.90369 20.1042 9.99353 19.9699 10.1068 19.8568C10.22 19.7436 10.3544 19.6539 10.5023 19.5927C10.6502 19.5315 10.8087 19.5001 10.9688 19.5001C11.1289 19.5002 11.2874 19.5318 11.4352 19.5931C11.5831 19.6544 11.7174 19.7443 11.8305 19.8575L15.4868 23.5138C15.7145 23.743 15.8418 24.0533 15.8408 24.3764C15.8398 24.6995 15.7105 25.009 15.4815 25.2368ZM28.9486 15.4266L20.4265 25.1766C20.3167 25.3024 20.1822 25.4043 20.0314 25.476C19.8806 25.5477 19.7167 25.5876 19.5498 25.5933H19.5087C19.3485 25.5933 19.1899 25.5618 19.042 25.5005C18.894 25.4392 18.7596 25.3493 18.6464 25.236L14.9947 21.5798C14.7662 21.3511 14.6379 21.041 14.6381 20.7177C14.6382 20.3945 14.7668 20.0845 14.9955 19.856C15.2242 19.6275 15.5342 19.4992 15.8575 19.4994C16.1808 19.4995 16.4908 19.6281 16.7192 19.8568L18.9892 22.129C19.0482 22.188 19.1187 22.2343 19.1963 22.2649C19.2739 22.2956 19.357 22.31 19.4405 22.3072C19.5239 22.3044 19.6058 22.2845 19.6812 22.2487C19.7567 22.213 19.8239 22.1621 19.8789 22.0993L27.1152 13.8224C27.3279 13.579 27.6286 13.43 27.9512 13.4083C28.2737 13.3866 28.5917 13.4939 28.8351 13.7066C29.0786 13.9194 29.2275 14.2201 29.2492 14.5426C29.271 14.8652 29.1636 15.1832 28.9509 15.4266H28.9486Z" fill="#FB6C37"/>
</svg>
