<svg width="35" height="35" viewBox="0 0 35 35" fill="none" xmlns="http://www.w3.org/2000/svg">
<path d="M24.4635 5.6875L29.9444 11.8535C30.1753 12.1133 30.1753 12.5371 29.9444 12.7969L16.6736 27.7266L11.0347 28.4307C10.2812 28.5264 9.64323 27.8086 9.7283 26.9609L10.3542 20.6172L23.625 5.6875C23.8559 5.42773 24.2326 5.42773 24.4635 5.6875ZM34.3073 4.12207L31.342 0.786133C30.4184 -0.25293 28.9175 -0.25293 27.9878 0.786133L25.8368 3.20605C25.6059 3.46582 25.6059 3.88965 25.8368 4.14941L31.3177 10.3154C31.5486 10.5752 31.9253 10.5752 32.1562 10.3154L34.3073 7.89551C35.2309 6.84961 35.2309 5.16113 34.3073 4.12207ZM23.3333 23.666V30.625H3.88889V8.75H17.8524C18.0469 8.75 18.2292 8.66113 18.3689 8.51074L20.7995 5.77637C21.2613 5.25683 20.9332 4.375 20.283 4.375H2.91667C1.30642 4.375 0 5.84473 0 7.65625V31.7187C0 33.5303 1.30642 35 2.91667 35H24.3056C25.9158 35 27.2222 33.5303 27.2222 31.7187V20.9316C27.2222 20.2002 26.4384 19.8379 25.9766 20.3506L23.546 23.085C23.4123 23.2422 23.3333 23.4473 23.3333 23.666Z" fill="#FB6C37"/>
</svg>
