<svg width="100" height="100" viewBox="0 0 100 100" fill="none" xmlns="http://www.w3.org/2000/svg">
<mask id="mask0_967_206" style="mask-type:alpha" maskUnits="userSpaceOnUse" x="0" y="0" width="100" height="100">
<circle cx="50" cy="50" r="50" fill="#FFCF9A"/>
</mask>
<g mask="url(#mask0_967_206)">
<circle cx="50" cy="50" r="50" fill="#FBE5FF"/>
<ellipse cx="50" cy="106.25" rx="65" ry="43.75" fill="#EEC3F5"/>
</g>
<path d="M77.4717 28.9349V34.4322L73.7817 38.2193H25.5659L21.876 34.4322V28.9349C21.876 25.8929 24.3481 23.4375 27.4109 23.4375H71.9367C74.9995 23.4375 77.4717 25.8929 77.4717 28.9349Z" fill="#BC32D3"/>
<path d="M77.4707 34.4323V67.3357C77.4707 70.1902 74.9986 72.4947 71.9358 72.4947H27.41C24.3472 72.4947 21.875 70.1902 21.875 67.3357V34.4323H77.4707Z" fill="white"/>
<path d="M68.5447 48.5418H62.6269C61.8092 48.5418 61.1475 47.88 61.1475 47.0623V41.1445C61.1475 40.3267 61.8092 39.665 62.6269 39.665H68.5447C69.3625 39.665 70.0242 40.3267 70.0242 41.1445V47.0623C70.0242 47.88 69.3625 48.5418 68.5447 48.5418Z" fill="#EFC7F6"/>
<path d="M36.5561 48.5418H30.6382C29.8205 48.5418 29.1588 47.88 29.1588 47.0623V41.1445C29.1588 40.3267 29.8205 39.665 30.6382 39.665H36.5561C37.3738 39.665 38.0355 40.3267 38.0355 41.1445V47.0623C38.0355 47.88 37.3738 48.5418 36.5561 48.5418Z" fill="#EFC7F6"/>
<path d="M36.8099 64.3777H30.8921C30.0743 64.3777 29.4126 63.716 29.4126 62.8982V56.9804C29.4126 56.1627 30.0743 55.501 30.8921 55.501H36.8099C37.6276 55.501 38.2893 56.1627 38.2893 56.9804V62.8982C38.2893 63.716 37.6276 64.3777 36.8099 64.3777Z" fill="#EFC7F6"/>
<path d="M52.5969 39.665H46.6148C45.8042 39.665 45.1675 40.3159 45.1675 41.1445V47.0623C45.1675 47.8907 45.8042 48.5418 46.6148 48.5418H52.5969C53.4075 48.5418 54.0442 47.8907 54.0442 47.0623V41.1445C54.0442 40.3159 53.4075 39.665 52.5969 39.665Z" fill="#EFC7F6"/>
<path d="M53.073 55.501H47.0909C46.2803 55.501 45.6436 56.1518 45.6436 56.9804V62.8982C45.6436 63.7266 46.2803 64.3777 47.0909 64.3777H53.073C53.8836 64.3777 54.5203 63.7266 54.5203 62.8982V56.9804C54.5203 56.1518 53.8836 55.501 53.073 55.501Z" fill="#EFC7F6"/>
<path d="M70.4577 52.8933C64.5066 52.8933 59.6655 57.7344 59.6655 63.6856C59.6655 69.6367 64.5066 74.4778 70.4577 74.4778C76.4089 74.4778 81.25 69.6367 81.25 63.6856C81.25 57.7344 76.4089 52.8933 70.4577 52.8933Z" fill="#BC32D3"/>
<path d="M67.5451 63.6855V62.1561C67.5451 60.2573 68.9765 59.4797 70.7281 60.4291L72.1412 61.1938L73.5543 61.9585C75.3059 62.9079 75.3059 64.4631 73.5543 65.4125L72.1412 66.1772L70.7281 66.9419C68.9765 67.8913 67.5451 67.1137 67.5451 65.2149V63.6855Z" stroke="white" stroke-width="1.5" stroke-miterlimit="10" stroke-linecap="round" stroke-linejoin="round"/>
<circle cx="28.1334" cy="29.0426" r="1.36682" fill="white"/>
<circle cx="34.5255" cy="29.0426" r="1.36682" fill="white"/>
<circle cx="40.9178" cy="29.0426" r="1.36682" fill="white"/>
</svg>
