<svg width="72" height="72" viewBox="0 0 72 72" fill="none" xmlns="http://www.w3.org/2000/svg">
<mask id="mask0_1397_3136" style="mask-type:alpha" maskUnits="userSpaceOnUse" x="0" y="0" width="72" height="72">
<circle cx="36" cy="36" r="36" fill="#FFCF9A"/>
</mask>
<g mask="url(#mask0_1397_3136)">
<circle cx="36" cy="36" r="36" fill="#FFECD7"/>
<ellipse cx="36.0002" cy="76.5" rx="46.8" ry="31.5" fill="#FFDDB8"/>
</g>
<rect x="57.6016" y="19.3496" width="36" height="43.2" rx="4" transform="rotate(90 57.6016 19.3496)" fill="#D68808"/>
<rect x="57.6016" y="20.1836" width="35.1663" height="42.2738" rx="4" transform="rotate(90 57.6016 20.1836)" fill="#C67B00"/>
<rect x="55.416" y="24.4961" width="28.8" height="36.0448" rx="2" transform="rotate(90 55.416 24.4961)" fill="#AA6B03"/>
<rect x="54.0244" y="22.9492" width="28.8" height="36.0448" rx="2" transform="rotate(90 54.0244 22.9492)" fill="#FFDF8E"/>
<path d="M50.1979 34H46.8646C46.404 34 46.0312 33.6273 46.0312 33.1667V29.8333C46.0312 29.3727 46.404 29 46.8646 29H50.1979C50.6585 29 51.0312 29.3727 51.0312 29.8333V33.1667C51.0312 33.6273 50.6585 34 50.1979 34Z" fill="#FFF3D5"/>
<path d="M26.1667 34H22.8333C22.3727 34 22 33.6273 22 33.1667V29.8333C22 29.3727 22.3727 29 22.8333 29H26.1667C26.6273 29 27 29.3727 27 29.8333V33.1667C27 33.6273 26.6273 34 26.1667 34Z" fill="#FFF3D5"/>
<path d="M26.3493 46.0156H23.016C22.5553 46.0156 22.1826 45.6429 22.1826 45.1823V41.849C22.1826 41.3883 22.5553 41.0156 23.016 41.0156H26.3493C26.8099 41.0156 27.1826 41.3883 27.1826 41.849V45.1823C27.1826 45.6429 26.8099 46.0156 26.3493 46.0156Z" fill="#FFF3D5"/>
<path d="M38.5598 29H35.1902C34.7336 29 34.375 29.3666 34.375 29.8333V33.1667C34.375 33.6333 34.7336 34 35.1902 34H38.5598C39.0164 34 39.375 33.6333 39.375 33.1667V29.8333C39.375 29.3666 39.0164 29 38.5598 29Z" fill="#FFF3D5"/>
<path d="M38.383 41.0156H35.0135C34.5569 41.0156 34.1982 41.3822 34.1982 41.849V45.1823C34.1982 45.6489 34.5569 46.0156 35.0135 46.0156H38.383C38.8396 46.0156 39.1982 45.6489 39.1982 45.1823V41.849C39.1982 41.3822 38.8396 41.0156 38.383 41.0156Z" fill="#FFF3D5"/>
<path d="M51.6464 41.625C47.3616 41.625 43.876 45.1106 43.876 49.3954C43.876 53.6803 47.3616 57.1658 51.6464 57.1658C55.9312 57.1658 59.4168 53.6803 59.4168 49.3954C59.4168 45.1106 55.9312 41.625 51.6464 41.625Z" fill="#60BD90"/>
<path d="M48.6985 48.659C48.4056 48.3661 47.9307 48.3661 47.6378 48.659C47.3449 48.9518 47.3449 49.4267 47.6377 49.7196L48.6985 48.659ZM47.6377 49.7196L50.0883 52.1704L51.149 51.1098L48.6985 48.659L47.6377 49.7196Z" fill="white"/>
<path d="M54.9199 47.417L50.6573 51.6796" stroke="white" stroke-width="1.5" stroke-linecap="round"/>
<rect x="21.6016" y="16.6494" width="3.6" height="5.4" rx="1" fill="#AA6B03"/>
<rect x="46.8008" y="16.6494" width="3.6" height="5.4" rx="1" fill="#AA6B03"/>
</svg>
