<svg width="64" height="64" viewBox="0 0 64 64" fill="none" xmlns="http://www.w3.org/2000/svg">
<mask id="mask0_67_1071" style="mask-type:alpha" maskUnits="userSpaceOnUse" x="0" y="0" width="64" height="64">
<circle cx="32" cy="32" r="32" fill="#FFCF9A"/>
</mask>
<g mask="url(#mask0_67_1071)">
<circle cx="32" cy="32" r="32" fill="#FBE5FF"/>
<ellipse cx="32.0004" cy="68" rx="41.6" ry="28" fill="#EEC3F5"/>
</g>
<path d="M49.5822 18.5183V22.0366L47.2207 24.4603H16.3626L14.001 22.0366V18.5183C14.001 16.5714 15.5832 15 17.5434 15H46.0399C48.0001 15 49.5822 16.5714 49.5822 18.5183Z" fill="#BC32D3"/>
<path d="M49.5813 22.0366V43.0948C49.5813 44.9217 47.9991 46.3966 46.0389 46.3966H17.5424C15.5822 46.3966 14 44.9217 14 43.0948V22.0366H49.5813Z" fill="white"/>
<path d="M43.869 31.0667H40.0816C39.5583 31.0667 39.1348 30.6432 39.1348 30.1199V26.3325C39.1348 25.8091 39.5583 25.3856 40.0816 25.3856H43.869C44.3924 25.3856 44.8159 25.8091 44.8159 26.3325V30.1199C44.8159 30.6432 44.3924 31.0667 43.869 31.0667Z" fill="#EFC7F6"/>
<path d="M23.3964 31.0668H19.609C19.0856 31.0668 18.6621 30.6433 18.6621 30.1199V26.3325C18.6621 25.8091 19.0856 25.3857 19.609 25.3857H23.3964C23.9197 25.3857 24.3432 25.8091 24.3432 26.3325V30.1199C24.3432 30.6433 23.9197 31.0668 23.3964 31.0668Z" fill="#EFC7F6"/>
<path d="M23.5585 41.2017H19.7711C19.2477 41.2017 18.8242 40.7783 18.8242 40.2549V36.4675C18.8242 35.9441 19.2477 35.5206 19.7711 35.5206H23.5585C24.0818 35.5206 24.5053 35.9441 24.5053 36.4675V40.2549C24.5053 40.7783 24.0818 41.2017 23.5585 41.2017Z" fill="#EFC7F6"/>
<path d="M33.6621 25.3856H29.8335C29.3147 25.3856 28.9072 25.8022 28.9072 26.3325V30.1199C28.9072 30.6501 29.3147 31.0667 29.8335 31.0667H33.6621C34.1808 31.0667 34.5883 30.6501 34.5883 30.1199V26.3325C34.5883 25.8022 34.1808 25.3856 33.6621 25.3856Z" fill="#EFC7F6"/>
<path d="M33.9677 35.5206H30.1392C29.6204 35.5206 29.2129 35.9372 29.2129 36.4675V40.2549C29.2129 40.7851 29.6204 41.2017 30.1392 41.2017H33.9677C34.4865 41.2017 34.894 40.7851 34.894 40.2549V36.4675C34.894 35.9372 34.4865 35.5206 33.9677 35.5206Z" fill="#EFC7F6"/>
<path d="M45.0926 33.8517C41.2838 33.8517 38.1855 36.95 38.1855 40.7587C38.1855 44.5675 41.2838 47.6658 45.0926 47.6658C48.9013 47.6658 51.9996 44.5675 51.9996 40.7587C51.9996 36.95 48.9013 33.8517 45.0926 33.8517Z" fill="#BC32D3"/>
<path d="M43.2285 40.7587V39.7799C43.2285 38.5647 44.1446 38.067 45.2656 38.6746L46.17 39.164L47.0744 39.6534C48.1954 40.2611 48.1954 41.2564 47.0744 41.864L46.17 42.3534L45.2656 42.8428C44.1446 43.4505 43.2285 42.9528 43.2285 41.7375V40.7587Z" stroke="white" stroke-width="1.5" stroke-miterlimit="10" stroke-linecap="round" stroke-linejoin="round"/>
<circle cx="18.0056" cy="18.5873" r="0.874765" fill="white"/>
<circle cx="22.0964" cy="18.5873" r="0.874765" fill="white"/>
<circle cx="26.1873" cy="18.5873" r="0.874765" fill="white"/>
</svg>
