<svg width="25" height="26" viewBox="0 0 25 26" fill="none" xmlns="http://www.w3.org/2000/svg">
<path d="M12.8383 6.33073L13.7007 8.21108C13.7007 8.34539 13.8444 8.4797 14.1319 8.4797L16.2879 8.61401C16.7191 8.61401 16.8629 9.15125 16.5754 9.41988L14.9943 10.763C14.8506 10.8973 14.8506 11.0316 14.8506 11.1659L15.2818 13.1806C15.4255 13.5835 14.8506 13.9864 14.5631 13.7178L12.5508 12.7776C12.4071 12.6433 12.2633 12.6433 12.1196 12.7776L10.251 13.7178C9.8198 13.9864 9.38859 13.5835 9.53233 13.1806L9.96353 11.1659C9.96353 11.0316 9.96354 10.8973 9.8198 10.763L8.2387 9.41988C7.80749 9.28556 8.09496 8.74832 8.52617 8.61401L10.6822 8.4797C10.826 8.4797 10.9697 8.34539 11.1134 8.21108L11.9758 6.33073C12.1196 5.9278 12.6945 5.9278 12.8383 6.33073Z" stroke="#AC3113" stroke-width="1.5" stroke-miterlimit="10" stroke-linecap="round" stroke-linejoin="round"/>
<path d="M22.1662 10.2588C22.2033 5.21475 17.8575 1.09757 12.4594 1.06286C7.06132 1.02815 2.6552 5.08904 2.61805 10.1331C2.5809 15.1772 6.92678 19.2944 12.3249 19.3291C17.7229 19.3638 22.129 15.3029 22.1662 10.2588Z" stroke="#AC3113" stroke-width="1.5" stroke-miterlimit="10" stroke-linecap="round" stroke-linejoin="round"/>
<path d="M11.1154 19.2247L8.67192 25L5.50972 21.6423L0.910156 22.0452L3.92862 14.9267" stroke="#AC3113" stroke-width="1.5" stroke-miterlimit="10" stroke-linecap="round" stroke-linejoin="round"/>
<path d="M13.7051 19.2246L16.1486 25L19.1671 21.6422L23.9104 22.0452L20.7482 14.9267" stroke="#AC3113" stroke-width="1.5" stroke-miterlimit="10" stroke-linecap="round" stroke-linejoin="round"/>
</svg>
