<svg width="30" height="30" viewBox="0 0 30 30" fill="none" xmlns="http://www.w3.org/2000/svg">
<circle cx="15" cy="15" r="15" fill="#F5F6FB"/>
<path fill-rule="evenodd" clipRule="evenodd" d="M12.5625 8.5H17.4375C19.6808 8.5 21.5 10.3192 21.5 12.5625V17.4375C21.5 19.6808 19.6808 21.5 17.4375 21.5H12.5625C10.3192 21.5 8.5 19.6808 8.5 17.4375V12.5625C8.5 10.3192 10.3192 8.5 12.5625 8.5ZM17.4375 20.2812C19.0056 20.2812 20.2812 19.0056 20.2812 17.4375V12.5625C20.2812 10.9944 19.0056 9.71875 17.4375 9.71875H12.5625C10.9944 9.71875 9.71875 10.9944 9.71875 12.5625V17.4375C9.71875 19.0056 10.9944 20.2812 12.5625 20.2812H17.4375Z" fill="#00004A"/>
<path fill-rule="evenodd" clipRule="evenodd" d="M11.75 15C11.75 13.2052 13.2052 11.75 15 11.75C16.7948 11.75 18.25 13.2052 18.25 15C18.25 16.7948 16.7948 18.25 15 18.25C13.2052 18.25 11.75 16.7948 11.75 15ZM12.9688 15C12.9688 16.1196 13.8804 17.0312 15 17.0312C16.1196 17.0312 17.0312 16.1196 17.0312 15C17.0312 13.8796 16.1196 12.9688 15 12.9688C13.8804 12.9688 12.9688 13.8796 12.9688 15Z" fill="#00004A"/>
<circle cx="18.3793" cy="11.6222" r="0.591697" fill="#00004A"/>
</svg>
