<svg width="172" height="38" viewBox="0 0 172 38" fill="none" xmlns="http://www.w3.org/2000/svg">
<path d="M0.611206 35.6889C2.31938 33.782 4.28918 32.104 6.43594 30.7005C5.6588 33.0574 5.71266 35.6736 6.58214 38C7.36698 35.2846 8.7289 32.7371 10.5448 30.5632C11.4681 29.4649 12.5069 28.4428 13.2456 27.2148C13.9842 25.9868 14.3844 24.4537 13.8765 23.1112C12.9763 20.6933 9.05976 19.4119 7.39775 21.6315C5.33563 24.385 3.57359 27.0317 2.33477 30.2658C1.99622 31.1506 1.68844 32.0506 1.39604 32.9583C1.18829 33.6295 1.06518 35.1855 0.611206 35.6889Z" fill="#F03027"/>
<path d="M29.6502 35.5135C27.8959 33.6447 25.8876 32.0125 23.7101 30.6624C24.5411 33.004 24.5488 35.6202 23.7409 37.9619C22.8868 35.2694 21.471 32.7523 19.6012 30.6243C18.6548 29.5412 17.5853 28.5572 16.8235 27.3368C16.0617 26.1241 15.6232 24.6062 16.0925 23.2485C16.9389 20.8154 20.8169 19.4348 22.5328 21.6162C24.6565 24.3164 26.4801 26.9249 27.8036 30.1285C28.1652 31.0056 28.4961 31.8981 28.8038 32.7981C29.0193 33.4617 29.1886 35.0177 29.6502 35.5135Z" fill="#F03027"/>
<path d="M28.8343 2.8069C27.5801 0.93055 14.5071 0 14.5071 0C14.5071 0 1.44188 0.93055 0.179984 2.8069C-0.497132 3.82136 0.718598 16.9024 4.12726 22.2569C7.54362 27.6114 14.5071 29.5793 14.5071 29.5793C14.5071 29.5793 21.4707 27.6114 24.887 22.2569C28.3034 16.8948 29.5114 3.81373 28.8343 2.8069Z" fill="#FFCB4A"/>
<path d="M28.8347 2.80688C28.7808 2.72298 28.7039 2.64671 28.6038 2.56281C28.7423 5.94177 27.4343 16.3609 24.4873 20.9907C21.0709 26.3452 14.1074 28.3207 14.1074 28.3207C14.1074 28.3207 7.14388 26.3452 3.72752 20.9907C3.08119 19.9763 2.51949 18.6872 2.02704 17.2457C2.60413 19.183 3.30433 20.945 4.13533 22.2493C7.54399 27.6114 14.5075 29.5792 14.5075 29.5792C14.5075 29.5792 21.471 27.6114 24.8874 22.2569C28.3038 16.8948 29.5118 3.81371 28.8347 2.80688Z" fill="#FFBB43"/>
<path d="M26.4648 4.31712C25.4183 2.75349 14.5075 1.97549 14.5075 1.97549C14.5075 1.97549 3.6044 2.75349 2.55795 4.31712C1.98856 5.16377 3.00423 16.0787 5.8512 20.5483C8.69816 25.018 14.5075 26.6656 14.5075 26.6656C14.5075 26.6656 20.3169 25.018 23.1715 20.5483C26.0185 16.0787 27.0265 5.16377 26.4648 4.31712Z" fill="#FFE878"/>
<path d="M26.4648 4.31713C26.4032 4.2256 26.3032 4.13407 26.1724 4.04254C26.4417 6.29264 25.3721 15.7583 22.7637 19.839C19.9167 24.3087 14.1074 25.9562 14.1074 25.9562C14.1074 25.9562 8.29804 24.3087 5.45107 19.839C5.43568 19.8161 5.42799 19.8009 5.4126 19.778C5.5511 20.0526 5.69729 20.3043 5.85118 20.5484C8.69815 25.018 14.5075 26.6656 14.5075 26.6656C14.5075 26.6656 20.3168 25.018 23.1715 20.5484C26.0185 16.0787 27.0265 5.16378 26.4648 4.31713Z" fill="#FFBB43"/>
<g opacity="0.49">
<path opacity="0.49" d="M6.10516 4.09592C5.42034 4.40865 4.73553 4.83579 4.38928 5.507C4.15075 5.97228 4.09689 6.51383 4.07381 7.04012C3.90453 10.5488 4.68167 14.1031 6.30521 17.2228C6.4668 17.5431 6.69763 17.894 7.05927 17.9245C6.12054 15.4074 5.60501 12.7455 5.52807 10.0759C5.50498 9.29022 5.52807 8.48934 5.7666 7.73422C6.00513 6.9791 6.49757 6.27738 7.21316 5.94177C7.74408 5.69006 8.35195 5.65193 8.92134 5.507C9.49074 5.36971 10.0909 5.07224 10.314 4.53832C11.3066 2.1433 6.69763 3.82134 6.10516 4.09592Z" fill="white"/>
</g>
<path d="M18.0393 16.9711L14.4998 15.1176L10.9526 16.9558L11.6374 13.0506L8.77509 10.2742L12.7378 9.70976L14.5152 6.14774L16.2849 9.71739L20.2476 10.2971L17.3698 13.0582L18.0393 16.9711Z" fill="#FFCB4A"/>
<path d="M51.6672 3.45733V4.75735H49.4814V11.4875H47.8361V4.75735H45.6503V3.45733H51.6672Z" fill="#F03027"/>
<path d="M56.6753 11.568C55.9075 11.568 55.2024 11.3916 54.56 11.0388C53.9175 10.686 53.4083 10.199 53.0322 9.57776C52.6561 8.94884 52.4681 8.2394 52.4681 7.44942C52.4681 6.66711 52.6561 5.96533 53.0322 5.34408C53.4083 4.71516 53.9175 4.2243 54.56 3.8715C55.2024 3.51869 55.9075 3.34229 56.6753 3.34229C57.4509 3.34229 58.156 3.51869 58.7906 3.8715C59.4331 4.2243 59.9384 4.71516 60.3066 5.34408C60.6827 5.96533 60.8707 6.66711 60.8707 7.44942C60.8707 8.2394 60.6827 8.94884 60.3066 9.57776C59.9384 10.199 59.4331 10.686 58.7906 11.0388C58.1482 11.3916 57.4431 11.568 56.6753 11.568ZM56.6753 10.13C57.1689 10.13 57.6037 10.0226 57.9798 9.80785C58.3558 9.58543 58.6496 9.27097 58.8611 8.86448C59.0727 8.45798 59.1785 7.9863 59.1785 7.44942C59.1785 6.91254 59.0727 6.44468 58.8611 6.04586C58.6496 5.63936 58.3558 5.32874 57.9798 5.11399C57.6037 4.89924 57.1689 4.79186 56.6753 4.79186C56.1817 4.79186 55.743 4.89924 55.3591 5.11399C54.983 5.32874 54.6892 5.63936 54.4777 6.04586C54.2662 6.44468 54.1604 6.91254 54.1604 7.44942C54.1604 7.9863 54.2662 8.45798 54.4777 8.86448C54.6892 9.27097 54.983 9.58543 55.3591 9.80785C55.743 10.0226 56.1817 10.13 56.6753 10.13Z" fill="#F03027"/>
<path d="M66.725 11.4875L63.74 7.9096V11.4875H62.0948V3.45733H63.74V7.05826L66.725 3.45733H68.7111L65.3265 7.43791L68.8051 11.4875H66.725Z" fill="#F03027"/>
<path d="M73.6949 11.568C72.9271 11.568 72.222 11.3916 71.5795 11.0388C70.9371 10.686 70.4279 10.199 70.0518 9.57776C69.6757 8.94884 69.4877 8.2394 69.4877 7.44942C69.4877 6.66711 69.6757 5.96533 70.0518 5.34408C70.4279 4.71516 70.9371 4.2243 71.5795 3.8715C72.222 3.51869 72.9271 3.34229 73.6949 3.34229C74.4705 3.34229 75.1756 3.51869 75.8102 3.8715C76.4527 4.2243 76.958 4.71516 77.3262 5.34408C77.7023 5.96533 77.8903 6.66711 77.8903 7.44942C77.8903 8.2394 77.7023 8.94884 77.3262 9.57776C76.958 10.199 76.4527 10.686 75.8102 11.0388C75.1678 11.3916 74.4627 11.568 73.6949 11.568ZM73.6949 10.13C74.1885 10.13 74.6233 10.0226 74.9994 9.80785C75.3754 9.58543 75.6692 9.27097 75.8807 8.86448C76.0923 8.45798 76.198 7.9863 76.198 7.44942C76.198 6.91254 76.0923 6.44468 75.8807 6.04586C75.6692 5.63936 75.3754 5.32874 74.9994 5.11399C74.6233 4.89924 74.1885 4.79186 73.6949 4.79186C73.2013 4.79186 72.7626 4.89924 72.3787 5.11399C72.0026 5.32874 71.7088 5.63936 71.4973 6.04586C71.2858 6.44468 71.18 6.91254 71.18 7.44942C71.18 7.9863 71.2858 8.45798 71.4973 8.86448C71.7088 9.27097 72.0026 9.58543 72.3787 9.80785C72.7626 10.0226 73.2013 10.13 73.6949 10.13Z" fill="#F03027"/>
<path d="M85.9187 3.45733V11.4875H84.2734V8.07066H80.7596V11.4875H79.1144V3.45733H80.7596V6.75914H84.2734V3.45733H85.9187Z" fill="#F03027"/>
<path d="M99.2815 3.45733V11.4875H97.6363V6.26445L95.4387 11.4875H94.193L91.9836 6.26445V11.4875H90.3383V3.45733H92.2069L94.8158 9.4282L97.4247 3.45733H99.2815Z" fill="#F03027"/>
<path d="M102.53 3.45733V8.4273C102.53 8.97185 102.675 9.38985 102.965 9.6813C103.255 9.96508 103.662 10.107 104.187 10.107C104.72 10.107 105.131 9.96508 105.421 9.6813C105.711 9.38985 105.856 8.97185 105.856 8.4273V3.45733H107.513V8.4158C107.513 9.0984 107.36 9.67747 107.054 10.153C106.757 10.6208 106.353 10.9736 105.844 11.2114C105.343 11.4492 104.782 11.568 104.163 11.568C103.552 11.568 102.996 11.4492 102.495 11.2114C102.001 10.9736 101.609 10.6208 101.319 10.153C101.03 9.67747 100.885 9.0984 100.885 8.4158V3.45733H102.53Z" fill="#F03027"/>
<path d="M111.97 3.45733C112.832 3.45733 113.588 3.62223 114.238 3.95203C114.896 4.28182 115.401 4.75351 115.754 5.36709C116.114 5.973 116.295 6.67861 116.295 7.48393C116.295 8.28925 116.114 8.99486 115.754 9.60077C115.401 10.199 114.896 10.663 114.238 10.9928C113.588 11.3226 112.832 11.4875 111.97 11.4875H109.102V3.45733H111.97ZM111.911 10.1185C112.773 10.1185 113.439 9.88838 113.909 9.4282C114.379 8.96802 114.614 8.31993 114.614 7.48393C114.614 6.64793 114.379 5.99601 113.909 5.52815C113.439 5.05263 112.773 4.81487 111.911 4.81487H110.748V10.1185H111.911Z" fill="#F03027"/>
<path d="M122.556 9.95741H119.289L118.748 11.4875H117.021L119.97 3.44583H121.886L124.836 11.4875H123.096L122.556 9.95741ZM122.109 8.6689L120.922 5.30957L119.735 8.6689H122.109Z" fill="#F03027"/>
<path d="M50.1865 18.4363V34.4967H46.896V18.4363H50.1865Z" fill="#F03027"/>
<path d="M67.4693 34.4967H64.1788L56.7281 23.4753V34.4967H53.4376V18.4133H56.7281L64.1788 29.4576V18.4133H67.4693V34.4967Z" fill="#F03027"/>
<path d="M76.456 18.4363C78.1796 18.4363 79.6917 18.7661 80.9923 19.4257C82.3085 20.0853 83.3192 21.0286 84.0243 22.2558C84.745 23.4676 85.1054 24.8788 85.1054 26.4895C85.1054 28.1001 84.745 29.5113 84.0243 30.7232C83.3192 31.9196 82.3085 32.8477 80.9923 33.5073C79.6917 34.1669 78.1796 34.4967 76.456 34.4967H70.7211V18.4363H76.456ZM76.3385 31.7586C78.0621 31.7586 79.394 31.2984 80.3342 30.378C81.2743 29.4576 81.7444 28.1615 81.7444 26.4895C81.7444 24.8175 81.2743 23.5136 80.3342 22.5779C79.394 21.6269 78.0621 21.1514 76.3385 21.1514H74.0116V31.7586H76.3385Z" fill="#F03027"/>
<path d="M95.1838 34.6577C93.6482 34.6577 92.238 34.3049 90.9531 33.5993C89.6682 32.8937 88.6497 31.9196 87.8976 30.6771C87.1455 29.4193 86.7694 28.0004 86.7694 26.4204C86.7694 24.8558 87.1455 23.4523 87.8976 22.2098C88.6497 20.9519 89.6682 19.9702 90.9531 19.2646C92.238 18.559 93.6482 18.2062 95.1838 18.2062C96.735 18.2062 98.1453 18.559 99.4145 19.2646C100.699 19.9702 101.71 20.9519 102.446 22.2098C103.199 23.4523 103.575 24.8558 103.575 26.4204C103.575 28.0004 103.199 29.4193 102.446 30.6771C101.71 31.9196 100.699 32.8937 99.4145 33.5993C98.1296 34.3049 96.7194 34.6577 95.1838 34.6577ZM95.1838 31.7816C96.171 31.7816 97.0406 31.5668 97.7927 31.1373C98.5448 30.6925 99.1324 30.0636 99.5555 29.2506C99.9786 28.4376 100.19 27.4942 100.19 26.4204C100.19 25.3467 99.9786 24.411 99.5555 23.6133C99.1324 22.8003 98.5448 22.1791 97.7927 21.7496C97.0406 21.3201 96.171 21.1053 95.1838 21.1053C94.1966 21.1053 93.3192 21.3201 92.5514 21.7496C91.7992 22.1791 91.2117 22.8003 90.7886 23.6133C90.3655 24.411 90.154 25.3467 90.154 26.4204C90.154 27.4942 90.3655 28.4376 90.7886 29.2506C91.2117 30.0636 91.7992 30.6925 92.5514 31.1373C93.3192 31.5668 94.1966 31.7816 95.1838 31.7816Z" fill="#F03027"/>
<path d="M120.054 34.4967H116.764L109.313 23.4753V34.4967H106.023V18.4133H109.313L116.764 29.4576V18.4133H120.054V34.4967Z" fill="#F03027"/>
<path d="M126.597 21.0363V25.0629H132.12V27.6169H126.597V31.8736H132.825V34.4967H123.306V18.4133H132.825V21.0363H126.597Z" fill="#F03027"/>
<path d="M141.48 34.6577C140.336 34.6577 139.302 34.466 138.378 34.0825C137.469 33.699 136.748 33.1468 136.215 32.4258C135.682 31.7049 135.408 30.8535 135.393 29.8718H138.918C138.965 30.5314 139.2 31.0529 139.623 31.4364C140.062 31.8199 140.657 32.0117 141.41 32.0117C142.177 32.0117 142.781 31.8353 143.219 31.4825C143.658 31.1143 143.877 30.6388 143.877 30.0559C143.877 29.5804 143.729 29.1892 143.431 28.8824C143.133 28.5756 142.757 28.3379 142.303 28.1691C141.864 27.9851 141.253 27.7857 140.469 27.5709C139.404 27.2641 138.534 26.965 137.86 26.6735C137.202 26.3668 136.63 25.9142 136.145 25.316C135.675 24.7024 135.44 23.8894 135.44 22.877C135.44 21.926 135.682 21.0977 136.168 20.392C136.654 19.6864 137.336 19.1496 138.213 18.7814C139.09 18.3979 140.093 18.2062 141.221 18.2062C142.914 18.2062 144.285 18.6127 145.335 19.4257C146.4 20.2233 146.988 21.3431 147.097 22.785H143.478C143.447 22.2328 143.204 21.7803 142.749 21.4275C142.311 21.0593 141.723 20.8752 140.986 20.8752C140.344 20.8752 139.827 21.0363 139.435 21.3584C139.059 21.6806 138.871 22.1484 138.871 22.762C138.871 23.1915 139.012 23.552 139.294 23.8434C139.592 24.1195 139.952 24.3496 140.375 24.5337C140.814 24.7024 141.425 24.9018 142.209 25.1319C143.274 25.4387 144.144 25.7455 144.818 26.0523C145.491 26.3591 146.071 26.8193 146.557 27.4328C147.043 28.0464 147.285 28.8517 147.285 29.8488C147.285 30.7078 147.058 31.5055 146.604 32.2418C146.149 32.978 145.484 33.5686 144.606 34.0135C143.729 34.443 142.687 34.6577 141.48 34.6577Z" fill="#F03027"/>
<path d="M153.429 18.4363V34.4967H150.138V18.4363H153.429Z" fill="#F03027"/>
<path d="M166.739 31.4364H160.205L159.124 34.4967H155.669L161.569 18.4133H165.4L171.299 34.4967H167.821L166.739 31.4364ZM165.846 28.8594L163.472 22.1407L161.099 28.8594H165.846Z" fill="#F03027"/>
</svg>
