<svg width="39" height="39" viewBox="0 0 39 39" fill="none" xmlns="http://www.w3.org/2000/svg">
<path d="M37.0504 28.2748V10.7248C37.0504 9.1063 35.7439 7.7998 34.1254 7.7998H6.80586C5.18736 7.7998 3.88086 9.1063 3.88086 10.7248V28.2748C3.88086 29.8933 5.18736 31.1998 6.80586 31.1998H34.1254C35.7439 31.1998 37.0504 29.8933 37.0504 28.2748ZM34.4959 10.5103C35.1394 11.1538 34.7884 11.8168 34.4374 12.1483L26.5204 19.4023L34.1254 27.3193C34.3594 27.5923 34.5154 28.0213 34.2424 28.3138C33.9889 28.6258 33.4039 28.6063 33.1504 28.4113L24.6289 21.1378L20.4559 24.9403L16.3024 21.1378L7.78086 28.4113C7.52736 28.6063 6.94236 28.6258 6.68886 28.3138C6.41586 28.0213 6.57186 27.5923 6.80586 27.3193L14.4109 19.4023L6.49386 12.1483C6.14286 11.8168 5.79186 11.1538 6.43536 10.5103C7.07886 9.8668 7.74186 10.1788 8.28786 10.6468L20.4559 20.4748L32.6434 10.6468C33.1894 10.1788 33.8524 9.8668 34.4959 10.5103Z" fill="#FB6C37"/>
</svg>
