<svg width="684" height="527" viewBox="0 0 684 527" fill="none" xmlns="http://www.w3.org/2000/svg">
<path d="M150.431 482.681L150.396 474.436L117.775 474.492L117.178 482.781L150.431 482.681Z" fill="#FFB494"/>
<path d="M148.554 521.896L147.964 526.382L86.9332 526.562C87.1183 525.031 87.4689 523.526 87.9785 522.075C89.8293 516.783 93.6718 512.433 98.3357 510.606C99.7118 510.068 101.036 509.401 102.291 508.614C115.019 500.659 117.178 482.78 117.178 482.78L150.431 482.681L148.554 521.896Z" fill="#3A395B"/>
<path d="M148.588 521.62L147.998 526.106L86.9676 526.286C87.1527 524.755 87.5033 523.25 88.0129 521.799L148.588 521.62Z" fill="#3A395B"/>
<path d="M123.734 486.203C121.131 494.854 113.379 516.264 102.29 508.618C115.018 500.663 117.177 482.784 117.177 482.784C117.177 482.784 118.825 477.748 121.936 479.623C122.468 479.972 122.922 480.433 123.268 480.974C123.613 481.516 123.842 482.126 123.939 482.765C124.147 483.911 124.076 485.091 123.734 486.203Z" fill="white"/>
<path d="M113.313 510.654C113.378 510.651 113.442 510.631 113.498 510.597C113.554 510.564 113.601 510.516 113.636 510.46C113.702 510.372 113.735 510.263 113.73 510.153C113.725 510.042 113.683 509.937 113.609 509.855C111.415 507.897 105.935 505.849 105.702 505.764C105.6 505.74 105.493 505.757 105.403 505.812C105.313 505.867 105.247 505.955 105.22 506.059C105.175 506.154 105.168 506.264 105.201 506.365C105.233 506.466 105.304 506.55 105.396 506.598C105.453 506.619 111.009 508.695 113.122 510.58C113.174 510.628 113.243 510.655 113.313 510.654Z" fill="#3A395B"/>
<path d="M120.858 502.439C120.928 502.434 120.996 502.412 121.055 502.373C121.115 502.334 121.163 502.281 121.197 502.218C121.258 502.128 121.286 502.018 121.274 501.909C121.263 501.8 121.213 501.699 121.134 501.624C118.119 499.355 110.999 499.788 110.697 499.806C110.589 499.825 110.491 499.881 110.419 499.964C110.347 500.048 110.305 500.154 110.301 500.265C110.291 500.315 110.292 500.366 110.304 500.416C110.316 500.465 110.338 500.511 110.369 500.55C110.401 500.59 110.44 500.622 110.485 500.644C110.53 500.665 110.579 500.677 110.629 500.677C110.7 500.672 117.839 500.239 120.687 502.381C120.736 502.419 120.796 502.439 120.858 502.439Z" fill="#3A395B"/>
<path d="M114.407 493.276C114.433 493.276 114.459 493.272 114.485 493.266C114.538 493.253 119.883 491.906 123.856 492.53C123.962 492.534 124.067 492.497 124.149 492.428C124.231 492.358 124.286 492.261 124.304 492.153C124.321 492.105 124.328 492.053 124.324 492.001C124.321 491.95 124.307 491.899 124.283 491.853C124.259 491.807 124.227 491.767 124.187 491.735C124.147 491.703 124.101 491.679 124.052 491.666C119.957 491.022 114.66 492.357 114.436 492.414C114.331 492.45 114.241 492.52 114.18 492.614C114.119 492.708 114.09 492.82 114.098 492.932C114.095 493.02 114.125 493.105 114.183 493.169C114.241 493.233 114.322 493.272 114.407 493.276Z" fill="#3A395B"/>
<path d="M126.256 484.504C126.344 484.496 126.428 484.461 126.497 484.404C126.566 484.347 126.616 484.27 126.641 484.184C126.664 484.136 126.677 484.084 126.68 484.031C126.683 483.978 126.676 483.925 126.659 483.875C126.642 483.825 126.615 483.778 126.58 483.739C126.545 483.699 126.503 483.667 126.456 483.644C124.571 482.99 117.303 483.63 116.994 483.658C116.887 483.678 116.79 483.736 116.719 483.821C116.648 483.906 116.608 484.013 116.606 484.124C116.597 484.174 116.599 484.225 116.612 484.274C116.625 484.323 116.648 484.368 116.68 484.406C116.712 484.445 116.753 484.476 116.798 484.497C116.843 484.517 116.892 484.528 116.941 484.527C117.015 484.52 124.392 483.87 126.162 484.484C126.192 484.496 126.224 484.502 126.256 484.504Z" fill="#3A395B"/>
<path d="M117.849 484.387C117.916 484.387 117.96 484.387 117.977 484.387L118.549 484.375L118.373 483.756C118.144 482.963 116.051 476.001 113.319 475.963C112.448 475.94 111.645 476.605 110.914 477.91C110.562 478.42 110.328 479.004 110.23 479.62C110.132 480.235 110.172 480.865 110.348 481.462C111.427 484.283 116.912 484.389 117.849 484.387ZM113.178 476.833H113.196C114.959 476.858 116.73 481.197 117.479 483.511C115.507 483.453 111.751 482.947 111.009 481.006C110.884 480.549 110.863 480.07 110.947 479.604C111.03 479.139 111.217 478.698 111.492 478.317C112.054 477.32 112.606 476.834 113.183 476.832L113.178 476.833Z" fill="#3A395B"/>
<path d="M113.788 489.974C113.831 489.974 113.877 489.974 113.918 489.967C115.851 489.76 118.165 484.819 118.423 484.257L118.716 483.615L118.141 483.658C117.686 483.691 113.662 484.043 112.483 486.207C112.281 486.593 112.17 487.021 112.159 487.458C112.148 487.895 112.237 488.329 112.42 488.725C112.755 489.557 113.215 489.975 113.788 489.974ZM117.479 484.593C116.523 486.503 114.963 488.991 113.96 489.098C113.832 489.112 113.44 489.154 113.085 488.263C112.956 488.007 112.888 487.723 112.886 487.435C112.884 487.147 112.949 486.863 113.074 486.605C113.759 485.355 116.112 484.784 117.483 484.593H117.479Z" fill="#3A395B"/>
<path d="M117.497 497.781C117.556 497.778 117.613 497.762 117.665 497.734C117.716 497.706 117.761 497.667 117.796 497.619C117.98 497.386 122.27 491.864 119.948 488.446C118.003 485.581 118.436 484.238 118.44 484.224C118.484 484.129 118.491 484.021 118.459 483.92C118.428 483.82 118.36 483.736 118.27 483.685C118.174 483.656 118.07 483.667 117.981 483.715C117.892 483.764 117.825 483.845 117.794 483.943C117.72 484.123 117.129 485.769 119.358 489.052C121.305 491.921 117.344 497.019 117.304 497.07C117.232 497.155 117.191 497.261 117.187 497.373C117.183 497.484 117.217 497.593 117.282 497.683C117.309 497.714 117.342 497.739 117.379 497.755C117.417 497.772 117.457 497.781 117.497 497.781Z" fill="#3A395B"/>
<path d="M117.776 474.492L150.405 476.527L150.396 474.436L117.776 474.492Z" fill="#3A395B"/>
<path d="M191.266 482.681L191.301 474.436L223.922 474.492L224.519 482.781L191.266 482.681Z" fill="#FFB494"/>
<path d="M193.143 521.896L193.732 526.382L254.763 526.562C254.578 525.031 254.228 523.526 253.718 522.075C251.867 516.783 248.025 512.433 243.361 510.606C241.985 510.068 240.661 509.401 239.405 508.614C226.677 500.659 224.519 482.78 224.519 482.78L191.266 482.681L193.143 521.896Z" fill="#3A395B"/>
<path d="M193.109 521.62L193.698 526.106L254.729 526.286C254.544 524.755 254.193 523.25 253.684 521.799L193.109 521.62Z" fill="#3A395B"/>
<path d="M217.962 486.203C220.565 494.854 228.317 516.264 239.406 508.618C226.678 500.663 224.519 482.784 224.519 482.784C224.519 482.784 222.871 477.748 219.76 479.623C219.228 479.972 218.774 480.433 218.428 480.974C218.083 481.516 217.854 482.126 217.757 482.765C217.549 483.911 217.62 485.091 217.962 486.203Z" fill="white"/>
<path d="M220.843 502.439C220.773 502.434 220.705 502.411 220.645 502.373C220.586 502.334 220.537 502.281 220.504 502.218C220.443 502.127 220.415 502.018 220.427 501.909C220.438 501.8 220.488 501.699 220.566 501.624C223.581 499.355 230.702 499.788 231.004 499.806C231.111 499.825 231.209 499.881 231.282 499.964C231.354 500.048 231.395 500.154 231.4 500.265C231.41 500.315 231.409 500.366 231.397 500.416C231.386 500.465 231.363 500.511 231.332 500.551C231.3 500.59 231.261 500.622 231.216 500.644C231.171 500.666 231.122 500.677 231.072 500.677C231 500.672 223.862 500.239 221.014 502.381C220.965 502.419 220.905 502.439 220.843 502.439Z" fill="#3A395B"/>
<path d="M227.295 493.276C227.269 493.276 227.243 493.272 227.218 493.266C227.165 493.253 221.82 491.906 217.847 492.53C217.74 492.534 217.636 492.497 217.553 492.428C217.471 492.358 217.416 492.261 217.399 492.153C217.382 492.105 217.375 492.053 217.378 492.001C217.382 491.95 217.396 491.899 217.419 491.853C217.443 491.807 217.476 491.767 217.515 491.735C217.555 491.703 217.601 491.679 217.65 491.666C221.746 491.022 227.042 492.357 227.266 492.414C227.371 492.45 227.461 492.52 227.522 492.614C227.584 492.708 227.613 492.82 227.605 492.932C227.608 493.02 227.577 493.105 227.519 493.169C227.461 493.233 227.381 493.272 227.295 493.276Z" fill="#3A395B"/>
<path d="M215.445 484.504C215.356 484.496 215.272 484.461 215.204 484.404C215.135 484.347 215.085 484.27 215.06 484.184C215.037 484.136 215.024 484.084 215.021 484.031C215.018 483.978 215.025 483.925 215.042 483.875C215.059 483.825 215.086 483.778 215.121 483.739C215.156 483.699 215.198 483.667 215.245 483.644C217.13 482.99 224.398 483.63 224.707 483.658C224.814 483.678 224.911 483.736 224.982 483.821C225.053 483.906 225.093 484.013 225.095 484.124C225.104 484.174 225.102 484.225 225.089 484.274C225.076 484.323 225.053 484.368 225.021 484.406C224.988 484.445 224.948 484.476 224.903 484.497C224.858 484.517 224.809 484.528 224.76 484.527C224.686 484.52 217.309 483.87 215.539 484.484C215.509 484.496 215.477 484.502 215.445 484.504Z" fill="#3A395B"/>
<path d="M231.352 481.459C231.528 480.862 231.568 480.231 231.47 479.616C231.372 479.001 231.137 478.416 230.785 477.907C230.055 476.602 229.251 475.936 228.38 475.959C225.648 475.998 223.555 482.96 223.326 483.753L223.15 484.371L223.722 484.383C223.74 484.383 223.784 484.383 223.85 484.383C224.784 484.388 230.269 484.281 231.352 481.459ZM230.2 478.311C230.475 478.693 230.661 479.133 230.745 479.599C230.828 480.065 230.807 480.544 230.683 481C229.938 482.942 226.188 483.448 224.212 483.505C224.961 481.192 226.729 476.851 228.495 476.828H228.513C229.09 476.832 229.642 477.318 230.2 478.314V478.311Z" fill="#3A395B"/>
<path d="M229.272 488.73C229.455 488.334 229.544 487.9 229.533 487.463C229.522 487.026 229.411 486.597 229.209 486.212C228.03 484.048 224.009 483.694 223.551 483.662L222.976 483.62L223.269 484.261C223.527 484.824 225.841 489.765 227.775 489.972C227.818 489.972 227.863 489.978 227.904 489.979C228.482 489.976 228.942 489.558 229.272 488.73ZM228.618 486.606C228.743 486.864 228.808 487.148 228.806 487.436C228.804 487.724 228.736 488.008 228.608 488.264C228.255 489.155 227.86 489.114 227.732 489.099C226.729 488.992 225.169 486.504 224.213 484.594C225.584 484.785 227.937 485.357 228.618 486.606Z" fill="#3A395B"/>
<path d="M224.2 497.781C224.141 497.778 224.084 497.762 224.032 497.734C223.981 497.706 223.936 497.667 223.901 497.619C223.718 497.386 219.427 491.864 221.749 488.446C223.694 485.581 223.261 484.238 223.257 484.224C223.213 484.129 223.206 484.021 223.238 483.92C223.269 483.82 223.337 483.736 223.427 483.685C223.523 483.656 223.627 483.667 223.716 483.715C223.805 483.764 223.872 483.845 223.903 483.943C223.978 484.123 224.569 485.769 222.339 489.052C220.392 491.921 224.353 497.019 224.393 497.07C224.465 497.154 224.506 497.261 224.51 497.373C224.514 497.484 224.48 497.593 224.415 497.683C224.388 497.714 224.355 497.739 224.318 497.756C224.281 497.773 224.24 497.781 224.2 497.781Z" fill="#3A395B"/>
<path d="M223.925 474.492L191.296 476.527L191.304 474.436L223.925 474.492Z" fill="#3A395B"/>
<path d="M225.114 222.07H128.049L115.695 474.673H152.168L171.385 272.989L190.21 474.673H225.31L225.114 222.07Z" fill="#3A5793"/>
<path d="M127.258 149.874L127.266 149.864L125.297 226.426L162.737 228.499L177.198 229.301L224.158 231.903L223.735 170.698L263.181 158.895C263.181 158.895 255.876 134.566 244.578 119.402C240.396 113.844 234.736 109.63 228.273 107.262C216.694 102.972 204.788 99.6638 192.676 97.3706C188.146 96.5091 183.422 95.7732 178.502 95.1629C170.259 94.1518 161.966 93.6114 153.664 93.5443C146.525 93.5523 138.018 93.904 131.901 94.4435C131.705 94.4579 131.508 94.4768 131.316 94.4957C126.038 94.9866 120.932 96.665 116.366 99.4101C113.428 101.183 110.435 103.071 107.386 105.075C98.2947 111.043 86.9168 119.272 77.7528 128.32L95.6543 170.675C95.6543 170.675 121.569 157.206 127.258 149.874Z" fill="white"/>
<path d="M174.853 108.485C175.107 108.437 175.362 108.382 175.605 108.317C177.039 107.958 178.385 107.305 179.563 106.398C180.741 105.491 181.726 104.348 182.458 103.04C183.585 101.05 184.092 98.7564 183.909 96.465L182.852 82.8504H163.53L163.354 84.4016L162.024 96.0217C161.812 97.7655 162.004 99.5357 162.584 101.19C163.164 102.845 164.115 104.338 165.362 105.55C166.61 106.761 168.118 107.658 169.766 108.168C171.414 108.678 173.156 108.786 174.853 108.485Z" fill="#FFB494"/>
<path d="M163.353 84.4016V84.4069C163.353 84.4069 171.164 96.5729 181.27 88.5813C182.31 93.3232 182.71 98.1879 182.458 103.04C183.585 101.05 184.092 98.7564 183.909 96.465L182.852 82.8504H163.53L163.353 84.4016Z" fill="#3A395B"/>
<path d="M190.105 60.7213C189.061 71.1797 185.522 87.1289 173.676 89.0633C172.679 89.2238 171.661 89.181 170.68 88.9373C166.526 87.9086 156.507 83.0022 155.453 59.5963C155.283 56.103 156.012 52.6249 157.567 49.5078C159.122 46.3908 161.449 43.7431 164.317 41.8279C168.724 38.8927 174.531 37.4692 181.151 41.8279C184.209 43.8244 186.666 46.6472 188.246 49.9826C189.827 53.318 190.47 57.0353 190.105 60.7213Z" fill="#FFB494"/>
<path d="M171.948 75.4498C172.171 75.4463 172.392 75.4084 172.604 75.3374C172.709 75.3039 172.797 75.2291 172.848 75.1295C172.9 75.03 172.91 74.9137 172.877 74.8064C172.844 74.6991 172.771 74.6094 172.673 74.5572C172.576 74.505 172.462 74.4946 172.357 74.5281C171.812 74.7025 171.651 74.5281 171.599 74.4669C170.764 73.5488 172.033 68.9149 173.201 65.9168C173.223 65.8648 173.235 65.8088 173.236 65.7521C173.236 65.6953 173.226 65.6391 173.205 65.5866C173.183 65.5341 173.152 65.4865 173.113 65.4466C173.073 65.4067 173.026 65.3753 172.974 65.3544C172.923 65.3334 172.868 65.3233 172.812 65.3246C172.756 65.3259 172.702 65.3386 172.651 65.362C172.6 65.3853 172.555 65.4189 172.517 65.4606C172.479 65.5023 172.45 65.5513 172.431 65.6047C171.929 66.8934 169.501 73.4022 170.991 75.0415C171.113 75.1752 171.262 75.2808 171.427 75.3512C171.592 75.4216 171.77 75.4552 171.948 75.4498Z" fill="#3A395B"/>
<path d="M178.187 72.3056C178.113 71.1684 179.676 70.1361 181.679 70C183.682 69.8639 185.366 70.6754 185.44 71.8127C185.514 72.9499 183.951 73.9823 181.948 74.1184C179.945 74.2546 178.261 73.4429 178.187 72.3056Z" fill="#FC6D6D"/>
<path d="M184.765 62.0539C184.148 61.7416 183.502 61.4933 182.836 61.3129C182.155 61.1237 181.455 61.0139 180.749 60.9856C180.015 60.9661 179.283 61.07 178.581 61.2931C177.887 61.5298 177.243 61.8994 176.685 62.3821C176.621 62.431 176.567 62.4936 176.529 62.5656C176.491 62.6375 176.469 62.7171 176.464 62.7987C176.459 62.8804 176.471 62.9622 176.501 63.0384C176.53 63.1146 176.575 63.1834 176.633 63.24C176.759 63.3612 176.923 63.4326 177.096 63.4413C177.269 63.4501 177.44 63.3956 177.577 63.2877L177.6 63.267L177.648 63.2238C178.047 62.8312 178.516 62.5199 179.029 62.3066C179.58 62.0947 180.162 61.9762 180.75 61.9559C181.37 61.9459 181.988 62.0062 182.595 62.1357C183.205 62.2618 183.801 62.4479 184.375 62.6915L184.396 62.7004C184.489 62.7431 184.595 62.7493 184.694 62.718C184.792 62.6868 184.875 62.6201 184.929 62.5305C184.95 62.4885 184.963 62.4425 184.966 62.3952C184.97 62.348 184.964 62.3005 184.948 62.2558C184.933 62.2111 184.909 62.1701 184.877 62.1354C184.846 62.1007 184.807 62.0729 184.765 62.0539Z" fill="#3A395B"/>
<path d="M180.034 68.4147C179.479 68.3689 179.084 67.6338 179.153 66.773C179.221 65.9122 179.726 65.2515 180.281 65.2974C180.836 65.3433 181.231 66.0783 181.163 66.9391C181.094 67.8 180.589 68.4606 180.034 68.4147Z" fill="#3A395B"/>
<path d="M164.035 74.1273C162.032 73.9912 160.468 72.9589 160.543 71.8216C160.617 70.6843 162.301 69.8727 164.304 70.0089C166.306 70.145 167.87 71.1773 167.796 72.3146C167.721 73.4518 166.038 74.2635 164.035 74.1273Z" fill="#FC6D6D"/>
<path d="M161.205 62.0539C161.822 61.7416 162.468 61.4934 163.134 61.3129C163.815 61.1238 164.515 61.014 165.22 60.9856C165.955 60.966 166.687 61.0699 167.388 61.2931C168.083 61.5294 168.727 61.8991 169.285 62.3821C169.349 62.4309 169.403 62.4935 169.441 62.5655C169.479 62.6374 169.502 62.717 169.507 62.7988C169.511 62.8805 169.499 62.9623 169.47 63.0385C169.44 63.1147 169.395 63.1835 169.337 63.24C169.211 63.3612 169.047 63.4326 168.874 63.4413C168.701 63.45 168.531 63.3956 168.394 63.2877L168.369 63.267L168.323 63.2238C167.923 62.8316 167.455 62.5203 166.942 62.3066C166.39 62.0947 165.808 61.9762 165.22 61.9559C164.6 61.946 163.981 62.0063 163.375 62.1358C162.766 62.2617 162.17 62.4478 161.595 62.6915L161.574 62.7005C161.481 62.742 161.376 62.7477 161.279 62.7165C161.182 62.6853 161.099 62.6192 161.046 62.5305C161.024 62.4889 161.011 62.4431 161.007 62.396C161.003 62.3489 161.009 62.3016 161.024 62.2569C161.039 62.2122 161.063 62.1711 161.094 62.1362C161.125 62.1013 161.163 62.0733 161.205 62.0539Z" fill="#3A395B"/>
<path d="M164.826 66.9253C164.757 66.0645 165.152 65.3295 165.707 65.2836C166.262 65.2377 166.767 65.8984 166.836 66.7592C166.904 67.62 166.51 68.3551 165.955 68.4009C165.399 68.4468 164.894 67.7862 164.826 66.9253Z" fill="#3A395B"/>
<path d="M156.437 61.0072C155.745 61.0072 155.061 61.166 154.437 61.4719C153.812 61.7778 153.263 62.2229 152.83 62.7743C152.397 63.3258 152.091 63.9695 151.934 64.658C151.777 65.3464 151.774 66.0619 151.925 66.7517L152.747 70.5107C152.977 71.5571 153.549 72.4925 154.369 73.1627C155.189 73.8329 156.209 74.198 157.26 74.1977H158.442C158.442 74.1977 160.481 64.9702 156.437 61.0072Z" fill="#FFB494"/>
<path d="M189.452 61.0072C190.144 61.0073 190.828 61.1662 191.452 61.4722C192.076 61.7781 192.625 62.2232 193.059 62.7747C193.492 63.3261 193.798 63.9698 193.954 64.6582C194.111 65.3465 194.114 66.062 193.963 66.7517L193.142 70.5107C192.912 71.5571 192.34 72.4925 191.52 73.1627C190.7 73.8329 189.68 74.198 188.629 74.1977H187.448C187.448 74.1977 185.408 64.9702 189.452 61.0072Z" fill="#FFB494"/>
<path d="M155.537 61.0988L156.883 68.7425C158.437 64.6677 159.273 60.3446 159.351 55.973C159.351 55.973 208.067 64.4116 197.846 39.0759C187.626 13.7401 156.399 43.2853 156.399 43.2853C156.399 43.2853 150.13 40.9517 155.537 61.0988Z" fill="#3A395B"/>
<path d="M190.842 55.3199L188.877 68.7386C187.348 64.6294 186.548 60.2748 186.516 55.8792C186.689 49.4468 190.842 55.3199 190.842 55.3199Z" fill="#3A395B"/>
<path d="M155.043 71.2671L155.724 70.7851C153.742 67.8796 153.713 66.3571 154.038 65.5919C154.172 65.314 154.37 65.0728 154.614 64.8883C154.858 64.7038 155.142 64.5812 155.442 64.5307L155.328 63.6944C154.89 63.7659 154.475 63.9442 154.119 64.2141C153.763 64.4839 153.476 64.8375 153.283 65.2447C152.681 66.6449 153.272 68.6719 155.043 71.2671Z" fill="#3A395B"/>
<path d="M190.84 71.2676C192.611 68.6723 193.204 66.6454 192.603 65.2425C192.409 64.8353 192.122 64.4818 191.766 64.2119C191.41 63.942 190.996 63.7637 190.558 63.6922L190.444 64.5285C190.744 64.579 191.028 64.7016 191.272 64.8861C191.516 65.0706 191.713 65.3118 191.848 65.5896C192.173 66.3549 192.144 67.8774 190.162 70.7829L190.84 71.2676Z" fill="#3A395B"/>
<path d="M177.197 229.302C192.996 234.257 209.727 235.287 225.996 232.305C225.299 220.075 224.603 207.847 223.906 195.622V194.952L223.75 172.537V171.859L223.74 170.699L239.383 166.016L240.061 165.814L262.653 159.054L263.181 158.897C263.181 158.897 263.047 158.447 262.79 157.638C262.469 156.649 261.962 155.11 261.282 153.181C261.203 152.956 261.119 152.724 261.035 152.486C258.192 144.413 254.736 136.579 250.698 129.055C250.57 128.819 250.434 128.582 250.304 128.346C248.587 125.242 246.673 122.254 244.576 119.402C244.545 119.366 244.518 119.324 244.488 119.287C244.296 119.031 244.103 118.78 243.903 118.529C239.786 113.4 234.383 109.506 228.27 107.263C226.634 106.658 224.941 106.054 223.19 105.451C222.979 105.378 222.767 105.304 222.552 105.231C219.562 104.217 216.408 103.224 213.09 102.252C211.868 101.899 210.627 101.552 209.37 101.209C206.731 100.495 203.999 99.8094 201.173 99.153C200.956 99.1026 200.744 99.0567 200.526 99.0055C197.978 98.4246 195.358 97.879 192.668 97.3688L191.139 99.4003L190.664 100.03L176.715 118.56L175.958 119.563L175.919 119.613C175.919 119.613 175.919 119.77 175.906 120.069V120.1C175.87 121.296 175.774 124.636 175.666 129.524C175.578 133.452 175.49 138.383 175.402 143.993C175.402 144.213 175.402 144.442 175.395 144.664C175.307 151.361 175.236 158.998 175.231 167.049V167.723C175.231 175.001 175.278 182.6 175.414 190.144C175.414 190.369 175.414 190.594 175.425 190.817C175.565 198.514 175.789 206.141 176.135 213.287C176.143 213.515 176.156 213.744 176.164 213.968C176.438 219.431 176.776 224.603 177.197 229.302Z" fill="#5BA39B"/>
<path d="M77.7524 128.324L80.3919 134.569L80.6889 135.272L83.3999 141.684L83.9339 142.957L90.5694 158.655L90.8655 159.356L95.6537 170.68C95.6537 170.68 99.0557 168.91 103.667 166.307C103.894 166.177 104.126 166.046 104.362 165.914C106.704 164.581 109.323 163.053 111.942 161.444C112.254 161.255 112.558 161.06 112.876 160.865C118.957 157.088 124.879 152.944 127.26 149.875L127.268 149.865L127.054 158.215L126.809 167.657L126.356 185.283L126.341 185.955L125.766 208.299L125.747 208.972L125.298 226.435C129.052 228.322 132.974 229.838 137.011 230.963C145.384 233.271 154.117 233.895 162.724 232.801C162.804 229.219 162.929 224.433 163.101 220.73C163.137 219.957 163.314 216.643 163.488 212.713C163.498 212.492 163.507 212.263 163.522 212.043C163.874 204.71 164.26 197.19 164.645 189.755C164.659 189.533 164.668 189.305 164.678 189.085C165.077 181.464 165.471 173.936 165.864 166.802C165.873 166.577 165.887 166.353 165.897 166.132C166.338 158.048 166.751 150.478 167.118 143.85C167.132 143.627 167.146 143.406 167.156 143.184C167.735 132.843 168.189 124.868 168.421 120.905C168.433 120.666 168.448 120.444 168.459 120.235C168.536 118.873 168.58 118.138 168.58 118.138L156.105 97.5755L155.529 96.6322L155.48 96.5486L155.044 95.8292L153.663 93.5522C148.432 93.5576 142.464 93.7456 137.242 94.0639C135.806 94.1539 134.428 94.2438 133.136 94.3535C132.713 94.3859 132.302 94.4209 131.903 94.456C131.706 94.4704 131.51 94.4893 131.317 94.5081C126.039 94.9991 120.934 96.6775 116.368 99.4226C114.385 100.618 112.377 101.867 110.345 103.17C110.111 103.319 109.872 103.469 109.639 103.619C108.892 104.099 108.142 104.586 107.388 105.081C103.831 107.419 99.9203 110.099 95.9305 113.04C95.6661 113.234 95.4017 113.432 95.1373 113.63C92.1047 115.886 89.0351 118.291 86.0482 120.802C85.8076 121.002 85.5661 121.206 85.3291 121.41C82.7054 123.638 80.1549 125.953 77.7524 128.324Z" fill="#5BA39B"/>
<path d="M262.79 157.638C263.047 158.447 263.181 158.897 263.181 158.897L262.653 159.054L262.79 157.638ZM176.168 213.967C176.16 213.743 176.146 213.517 176.138 213.286L189.518 214.613L191.633 192.421L175.431 190.816C175.423 190.592 175.418 190.367 175.419 190.144L191.698 191.762L193.813 169.57L175.234 167.727V167.052L193.872 168.901L195.987 146.709L175.397 144.667C175.397 144.441 175.403 144.218 175.403 143.996L196.048 146.046L198.163 123.854L176.413 121.696L175.665 129.529C175.774 124.642 175.87 121.302 175.905 120.106V120.074L175.957 119.569L176.714 118.565L176.477 121.031L198.222 123.189L200.337 100.997L190.661 100.037L191.136 99.4075L200.396 100.328L200.523 99.0127C200.741 99.064 200.953 99.1099 201.17 99.1602L201.052 100.394L209.363 101.216C210.623 101.561 211.863 101.908 213.083 102.259L200.996 101.051L198.881 123.243L220.629 125.401L222.552 105.23C222.767 105.303 222.978 105.377 223.19 105.451L221.285 125.467L243.034 127.625L243.902 118.53C244.103 118.781 244.295 119.032 244.487 119.288L243.685 127.691L250.302 128.347C250.434 128.583 250.566 128.82 250.696 129.056L243.625 128.355L241.51 150.547L261.035 152.487C261.123 152.725 261.203 152.957 261.282 153.182L241.445 151.216L240.056 165.814L239.378 166.016L240.794 151.15L219.046 148.992L216.93 171.184L223.742 171.857V172.535L216.863 171.852L214.747 194.044L223.896 194.95V195.62L214.68 194.708L212.565 216.899L224.051 218.039V218.713L212.499 217.568L211.203 231.184L210.543 231.151L211.843 217.503L190.095 215.344L188.704 229.939L188.047 229.901L189.438 215.28L176.168 213.967ZM240.857 150.484L242.972 128.293L221.222 126.134L219.106 148.325L240.857 150.484ZM220.565 126.071L198.816 123.913L196.701 146.104L218.45 148.262L220.565 126.071ZM218.387 148.927L196.639 146.769L194.524 168.96L216.272 171.118L218.387 148.927ZM216.21 171.787L194.462 169.629L192.347 191.82L214.096 193.978L216.21 171.787ZM211.92 216.834L214.035 194.643L192.287 192.485L190.172 214.677L211.92 216.834ZM80.387 134.569L84.0339 134.928L85.3224 121.408C85.5595 121.204 85.801 121 86.0416 120.8L84.6896 134.994L106.438 137.152L108.553 114.96L95.1333 113.629C95.3977 113.431 95.6621 113.234 95.9265 113.039L108.618 114.298L109.634 103.621C109.867 103.468 110.106 103.317 110.339 103.172L109.272 114.368L131.021 116.526L133.136 94.3573C134.428 94.2476 135.806 94.154 137.241 94.0677L155.044 95.8329L155.479 96.5524L133.788 94.4031L131.673 116.594L153.422 118.752L155.526 96.6378L156.102 97.5811L154.075 118.818L168.453 120.241C168.442 120.449 168.428 120.671 168.415 120.911L154.01 119.482L151.895 141.674L167.148 143.19C167.138 143.412 167.124 143.633 167.11 143.855L151.831 142.342L149.716 164.534L165.888 166.138C165.878 166.36 165.864 166.582 165.854 166.808L149.651 165.198L147.536 187.389L164.666 189.091C164.657 189.312 164.647 189.54 164.633 189.76L147.472 188.058L145.356 210.249L163.512 212.048C163.497 212.27 163.488 212.497 163.478 212.718L145.297 210.919L143.245 232.294L142.588 232.26L144.641 210.858L125.736 208.983L125.756 208.31L144.704 210.19L146.819 187.998L126.332 185.966L126.348 185.294L146.883 187.333L148.998 165.142L127.249 162.984L126.801 167.675L127.047 158.232L128.776 140.058L107.027 137.9L104.912 160.092L112.866 160.881C112.554 161.075 112.25 161.27 111.932 161.46L104.847 160.757L104.353 165.929C104.118 166.061 103.886 166.192 103.657 166.322L104.192 160.696L90.8563 159.372L90.5601 158.67L104.257 160.027L106.372 137.835L84.6236 135.676L83.9273 142.969L83.3932 141.697L83.9723 135.611L80.6823 135.284L80.387 134.569ZM153.361 119.402L131.611 117.243L129.496 139.434L151.245 141.593L153.361 119.402ZM127.322 162.296L149.07 164.454L151.186 142.263L129.437 140.105L127.322 162.296ZM128.847 139.365L130.963 117.174L109.213 115.016L107.098 137.208L128.847 139.365Z" fill="white"/>
<path d="M77.75 128.322L30.6873 54.155L12.3839 65.0189L53.3215 167.021C54.3538 169.593 55.9163 171.909 57.9029 173.811C59.8895 175.713 62.2538 177.157 64.8354 178.045C67.417 178.933 70.1555 179.244 72.8652 178.957C75.5749 178.67 78.1925 177.791 80.5403 176.381L94.5129 167.989L77.75 128.322Z" fill="#FFB494"/>
<path d="M77.7509 128.321L90.9654 170.122L94.5172 167.99L77.7509 128.321Z" fill="#3A395B"/>
<path d="M43.2175 75.7831C43.2175 75.7831 33.1766 62.412 34.7568 30.5755C34.7698 30.351 34.7137 30.1281 34.5964 29.9377C34.4791 29.7473 34.3066 29.5991 34.1027 29.5137C33.8988 29.4283 33.6739 29.41 33.4593 29.4614C33.2448 29.5128 33.0514 29.6313 32.906 29.8003C29.56 33.6713 26.838 38.0602 24.8419 42.8027C24.7997 42.9095 24.7263 43.0004 24.6318 43.0632C24.5373 43.1261 24.4261 43.1578 24.3133 43.1541C24.2006 43.1503 24.0916 43.1114 24.0012 43.0424C23.9109 42.9735 23.8435 42.8779 23.8081 42.7686C22.3804 38.3307 18.2091 24.9479 16.7205 15.557C16.6798 15.31 16.5561 15.0853 16.3708 14.9211C16.1854 14.757 15.9498 14.6638 15.7045 14.6574C15.4592 14.651 15.2193 14.7319 15.026 14.8862C14.8327 15.0404 14.698 15.2585 14.645 15.503C13.9558 18.8968 13.6095 24.2258 15.1633 31.6771C15.1904 31.8041 15.171 31.9368 15.1089 32.0504C15.0469 32.1639 14.9464 32.2503 14.8262 32.2935C14.706 32.3367 14.5746 32.3336 14.4565 32.2849C14.3385 32.2361 14.2419 32.145 14.185 32.0287C12.1065 27.78 10.3436 23.378 8.91115 18.86C8.83831 18.6214 8.6866 18.416 8.48189 18.2789C8.27718 18.1417 8.03211 18.0813 7.78862 18.108C7.54513 18.1346 7.31823 18.2466 7.14667 18.425C6.97511 18.6033 6.86953 18.8368 6.84791 19.0857C6.57727 24.5304 7.44426 29.9716 9.3914 35.0484C9.43438 35.1693 9.43315 35.302 9.38796 35.4221C9.34277 35.5421 9.25671 35.6415 9.14547 35.702C9.03422 35.7625 8.90535 35.7799 8.78248 35.7512C8.65961 35.7225 8.55099 35.6496 8.47662 35.5457C6.75463 33.1361 5.23762 30.5807 3.94219 27.9074C3.83183 27.6824 3.64789 27.5037 3.42213 27.4025C3.19637 27.3012 2.94297 27.2836 2.70584 27.3527C2.46871 27.4218 2.26273 27.5733 2.12349 27.781C1.98425 27.9887 1.92058 28.2396 1.94339 28.4901C2.52505 33.1809 3.99726 37.7111 6.27772 41.8271C6.33218 41.9333 6.35043 42.055 6.32957 42.173C6.30872 42.2909 6.2499 42.3985 6.1625 42.4786C6.0751 42.5587 5.96404 42.6068 5.84685 42.6153C5.72966 42.6239 5.61307 42.5924 5.51538 42.5258C4.16877 41.5117 2.94324 40.3401 1.864 39.0348C1.70974 38.8494 1.49856 38.7225 1.26476 38.6748C1.03096 38.6272 0.788273 38.6615 0.576008 38.7723C0.363747 38.8831 0.194386 39.0639 0.0954323 39.2852C-0.00352097 39.5065 -0.0262527 39.7555 0.0308838 39.9917C2.17074 48.1749 8.19637 64.9722 24.923 89.6704L43.2175 75.7831Z" fill="#FFB494"/>
<path d="M16.6206 60.386C17.2084 53.4905 23.7805 47.4098 23.8475 47.3468L24.3066 46.9268L23.7619 46.6301C23.5337 46.506 18.0687 43.6536 9.2722 49.2316L9.72781 49.9789C16.4717 45.7029 21.1849 46.6427 22.7713 47.1732C21.1664 48.7793 16.2866 54.1317 15.7604 60.3023L16.6206 60.386Z" fill="#3A395B"/>
<path d="M260.845 159.594L268.053 187.256C268.737 189.884 268.855 192.633 268.399 195.312C267.942 197.991 266.922 200.537 265.409 202.775L227.73 258.523C226.966 259.654 225.942 260.578 224.748 261.213C223.554 261.849 222.226 262.177 220.879 262.169C219.532 262.161 218.208 261.817 217.021 261.167C215.834 260.517 214.821 259.581 214.07 258.441C211.95 255.224 210.611 251.538 210.164 247.689C209.717 243.839 210.175 239.936 211.499 236.303L229.683 186.412L223.727 170.697L260.845 159.594Z" fill="#FFB494"/>
<path d="M183.55 92.2125L192.672 97.368L182.586 124.018L175.923 119.611L183.55 92.2125Z" fill="#5BA39B"/>
<path d="M162.569 90.7507L153.67 93.6023L160.443 121.222L168.58 118.129L162.569 90.7507Z" fill="#5BA39B"/>
<path d="M192.672 97.3688L182.586 124.018L175.923 119.612" stroke="#3A395B" stroke-width="0.673976" stroke-miterlimit="10"/>
<path d="M153.67 93.6026L160.443 121.222L168.58 118.129" stroke="#3A395B" stroke-width="0.673976" stroke-miterlimit="10"/>
<path d="M223.737 170.698L215.401 139.037" stroke="#3A395B" stroke-width="0.673976" stroke-miterlimit="10"/>
<path d="M127.258 149.875L128.177 121.756" stroke="#3A395B" stroke-width="0.673976" stroke-miterlimit="10"/>
<path d="M171.384 272.99L168.455 244.593" stroke="#3A395B" stroke-width="0.673976" stroke-miterlimit="10"/>
<path d="M225.31 464.015H189.215" stroke="#3A395B" stroke-width="0.673976" stroke-miterlimit="10"/>
<path d="M153.184 464.015H116.217" stroke="#3A395B" stroke-width="0.673976" stroke-miterlimit="10"/>
<path d="M210.007 233.938C210.007 233.938 205.374 265.973 225.314 263.036" stroke="#3A395B" stroke-width="0.673976" stroke-miterlimit="10"/>
<path d="M137.01 230.954C137.01 230.954 140.187 255.528 126.422 255.364" stroke="#3A395B" stroke-width="0.673976" stroke-miterlimit="10"/>
<path d="M176.5 79.0995C176.631 79.0778 176.766 79.0925 176.89 79.1421C177.014 79.1917 177.122 79.2744 177.204 79.3815C177.286 79.4885 177.338 79.6161 177.355 79.7508C177.372 79.8854 177.354 80.0223 177.301 80.147C176.963 80.9944 176.401 81.7294 175.678 82.2705C174.955 82.8115 174.099 83.1373 173.206 83.2116C172.462 83.2519 171.719 83.1146 171.036 82.8107C170.353 82.5068 169.749 82.0446 169.271 81.4608C169.19 81.3582 169.137 81.2356 169.117 81.1053C169.097 80.975 169.11 80.8416 169.157 80.7185C169.203 80.5954 169.281 80.4869 169.381 80.404C169.482 80.3211 169.602 80.2666 169.73 80.246L176.5 79.0995Z" fill="white"/>
<path d="M564.896 480L564.859 471.25L530.244 471.309L529.611 480.106L564.896 480Z" fill="#FFB494"/>
<path d="M562.903 521.609L562.279 526.369L497.518 526.563C497.714 524.937 498.085 523.339 498.627 521.797C500.591 516.182 504.668 511.566 509.617 509.628C511.077 509.057 512.482 508.35 513.815 507.516C527.32 499.074 529.611 480.103 529.611 480.103L564.896 479.997L562.903 521.609Z" fill="#F8B600"/>
<path d="M562.942 521.561L562.316 526.321L497.556 526.515C497.752 524.889 498.124 523.291 498.665 521.748L562.942 521.561Z" fill="#3A395B"/>
<path d="M536.568 483.733C533.806 492.912 525.581 515.63 513.815 507.518C527.32 499.077 529.611 480.105 529.611 480.105C529.611 480.105 531.359 474.763 534.66 476.749C535.225 477.12 535.706 477.609 536.073 478.184C536.439 478.759 536.682 479.406 536.785 480.084C537.006 481.3 536.932 482.553 536.568 483.733Z" fill="white"/>
<path d="M525.509 509.68C525.578 509.677 525.645 509.656 525.705 509.62C525.764 509.584 525.814 509.534 525.851 509.473C525.921 509.38 525.956 509.265 525.951 509.147C525.946 509.03 525.9 508.919 525.823 508.832C523.494 506.754 517.679 504.582 517.432 504.491C517.324 504.465 517.21 504.483 517.114 504.542C517.019 504.601 516.95 504.695 516.921 504.804C516.872 504.906 516.864 505.023 516.9 505.131C516.935 505.238 517.011 505.327 517.11 505.378C517.169 505.4 523.065 507.602 525.306 509.605C525.362 509.655 525.434 509.681 525.509 509.68Z" fill="#3A395B"/>
<path d="M533.511 500.963C533.586 500.959 533.658 500.935 533.721 500.894C533.783 500.853 533.835 500.796 533.871 500.73C533.935 500.634 533.964 500.518 533.952 500.402C533.94 500.287 533.888 500.18 533.805 500.1C530.605 497.693 523.052 498.152 522.73 498.172C522.616 498.191 522.511 498.25 522.435 498.339C522.358 498.428 522.314 498.541 522.309 498.659C522.298 498.712 522.299 498.766 522.311 498.819C522.323 498.872 522.347 498.921 522.38 498.963C522.414 499.005 522.456 499.039 522.504 499.062C522.552 499.085 522.605 499.096 522.658 499.096C522.733 499.09 530.308 498.631 533.33 500.904C533.382 500.943 533.446 500.964 533.511 500.963Z" fill="#3A395B"/>
<path d="M526.668 491.239C526.695 491.239 526.723 491.235 526.75 491.228C526.806 491.214 532.478 489.789 536.694 490.448C536.807 490.452 536.918 490.413 537.006 490.34C537.093 490.266 537.151 490.162 537.169 490.047C537.187 489.996 537.194 489.941 537.191 489.886C537.187 489.832 537.172 489.778 537.147 489.73C537.123 489.681 537.088 489.638 537.046 489.604C537.004 489.57 536.956 489.545 536.904 489.53C532.557 488.848 526.937 490.264 526.7 490.324C526.589 490.362 526.493 490.437 526.428 490.537C526.363 490.636 526.332 490.755 526.341 490.875C526.338 490.967 526.37 491.057 526.431 491.125C526.492 491.193 526.577 491.234 526.668 491.239Z" fill="#3A395B"/>
<path d="M539.244 481.934C539.337 481.925 539.426 481.888 539.499 481.828C539.572 481.767 539.625 481.686 539.652 481.594C539.7 481.492 539.706 481.375 539.669 481.268C539.632 481.162 539.555 481.074 539.455 481.025C537.456 480.331 529.743 481.011 529.416 481.039C529.302 481.061 529.199 481.123 529.124 481.213C529.048 481.303 529.006 481.417 529.003 481.536C528.993 481.588 528.995 481.642 529.009 481.694C529.022 481.745 529.046 481.793 529.08 481.834C529.114 481.875 529.156 481.907 529.204 481.93C529.251 481.952 529.303 481.963 529.355 481.962C529.435 481.954 537.262 481.264 539.138 481.917C539.172 481.929 539.208 481.935 539.244 481.934Z" fill="#3A395B"/>
<path d="M530.326 481.808H530.462L531.069 481.795L530.879 481.139C530.636 480.297 528.411 472.909 525.516 472.865C524.591 472.842 523.738 473.548 522.965 474.934C522.591 475.474 522.342 476.095 522.238 476.748C522.133 477.401 522.176 478.07 522.363 478.703C523.512 481.698 529.332 481.81 530.326 481.808ZM525.375 473.792H525.394C527.267 473.818 529.144 478.422 529.939 480.877C527.846 480.817 523.863 480.279 523.072 478.218C522.941 477.734 522.918 477.225 523.007 476.731C523.096 476.237 523.294 475.77 523.586 475.365C524.176 474.308 524.763 473.793 525.375 473.793V473.792Z" fill="#3A395B"/>
<path d="M526.02 487.738C526.065 487.738 526.108 487.738 526.157 487.731C528.208 487.511 530.664 482.269 530.938 481.672L531.249 480.992L530.639 481.036C530.157 481.071 525.887 481.445 524.635 483.742C524.42 484.151 524.302 484.606 524.29 485.071C524.278 485.535 524.373 485.996 524.567 486.417C524.919 487.296 525.406 487.74 526.02 487.738ZM529.935 482.028C528.922 484.055 527.266 486.696 526.202 486.809C526.066 486.824 525.65 486.868 525.273 485.922C525.137 485.65 525.065 485.35 525.063 485.044C525.061 484.739 525.129 484.437 525.262 484.163C525.984 482.838 528.481 482.232 529.935 482.028Z" fill="#3A395B"/>
<path d="M529.95 496.021C530.012 496.019 530.072 496.002 530.127 495.972C530.182 495.943 530.23 495.901 530.267 495.85C530.462 495.602 535.014 489.747 532.55 486.118C530.486 483.077 530.946 481.652 530.95 481.638C530.996 481.537 531.004 481.423 530.971 481.317C530.939 481.211 530.868 481.121 530.774 481.066C530.671 481.035 530.562 481.046 530.467 481.097C530.373 481.147 530.302 481.233 530.268 481.336C530.189 481.524 529.563 483.273 531.927 486.757C533.993 489.8 529.79 495.21 529.747 495.265C529.671 495.355 529.628 495.468 529.624 495.586C529.62 495.705 529.656 495.821 529.726 495.915C529.754 495.948 529.788 495.974 529.827 495.993C529.865 496.011 529.907 496.021 529.95 496.021Z" fill="#3A395B"/>
<path d="M530.242 471.309L564.866 473.468L564.857 471.25L530.242 471.309Z" fill="#3A395B"/>
<path d="M608.226 480L608.263 471.25L642.878 471.309L643.512 480.106L608.226 480Z" fill="#FFB494"/>
<path d="M646.509 521.55L646.431 526.31L580.937 526.504C580.944 524.9 581.134 523.302 581.505 521.743C582.838 516.128 586.425 511.512 591.206 509.574C592.606 509.008 593.946 508.3 595.206 507.46C607.886 499.018 607.994 480.046 607.994 480.046L643.679 479.941L646.509 521.55Z" fill="#F8B600"/>
<path d="M646.509 521.504L646.431 526.264L580.937 526.458C580.944 524.853 581.134 523.255 581.504 521.696L646.509 521.504Z" fill="#3A395B"/>
<path d="M615.454 483.676C613.729 492.854 608.051 515.573 595.205 507.46C607.885 499.019 607.994 480.047 607.994 480.047C607.994 480.047 609.139 474.705 612.71 476.691C613.945 477.429 614.853 478.623 615.249 480.026C615.612 481.206 615.682 482.46 615.454 483.676Z" fill="white"/>
<path d="M607.29 509.623C607.357 509.62 607.422 509.6 607.479 509.564C607.536 509.528 607.582 509.476 607.613 509.416C607.671 509.313 607.692 509.194 607.673 509.077C607.654 508.96 607.597 508.854 607.51 508.776C604.912 506.697 598.776 504.525 598.52 504.433C598.468 504.418 598.414 504.415 598.361 504.423C598.307 504.431 598.256 504.451 598.211 504.48C598.166 504.51 598.127 504.549 598.097 504.595C598.068 504.641 598.048 504.693 598.039 504.747C598.006 504.858 598.014 504.978 598.061 505.084C598.109 505.189 598.192 505.274 598.296 505.321C598.359 505.343 604.58 507.544 607.081 509.547C607.141 509.596 607.214 509.622 607.29 509.623Z" fill="#3A395B"/>
<path d="M614.366 500.905C614.438 500.902 614.507 500.879 614.567 500.838C614.626 500.796 614.673 500.739 614.702 500.671C614.754 500.566 614.769 500.446 614.743 500.331C614.718 500.216 614.654 500.114 614.562 500.042C611.045 497.635 603.458 498.093 603.133 498.114C603.023 498.132 602.923 498.193 602.855 498.283C602.786 498.373 602.754 498.487 602.765 498.6C602.762 498.656 602.771 498.712 602.79 498.765C602.809 498.817 602.838 498.865 602.876 498.906C602.913 498.947 602.958 498.979 603.009 499.002C603.059 499.024 603.113 499.037 603.168 499.037C603.244 499.032 610.854 498.573 614.174 500.846C614.231 500.885 614.298 500.906 614.366 500.905Z" fill="#3A395B"/>
<path d="M606.316 491.183C606.343 491.182 606.371 491.179 606.398 491.172C606.453 491.157 612.025 489.733 616.366 490.391C616.421 490.395 616.476 490.388 616.527 490.37C616.579 490.352 616.627 490.323 616.667 490.286C616.708 490.248 616.741 490.203 616.764 490.152C616.786 490.102 616.799 490.047 616.801 489.991C616.821 489.878 616.798 489.762 616.736 489.666C616.675 489.569 616.58 489.501 616.47 489.474C611.994 488.792 606.473 490.208 606.24 490.268C606.132 490.306 606.042 490.383 605.987 490.485C605.932 490.586 605.916 490.705 605.941 490.818C605.951 490.915 605.995 491.004 606.063 491.07C606.132 491.137 606.221 491.177 606.316 491.183Z" fill="#3A395B"/>
<path d="M617.95 481.876C618.041 481.87 618.127 481.833 618.195 481.772C618.262 481.71 618.308 481.627 618.324 481.536C618.356 481.425 618.347 481.305 618.298 481.2C618.249 481.095 618.164 481.012 618.059 480.968C615.956 480.272 608.233 480.952 607.905 480.982C607.794 481.002 607.695 481.064 607.628 481.157C607.561 481.249 607.531 481.363 607.544 481.477C607.543 481.533 607.553 481.588 607.574 481.64C607.594 481.692 607.624 481.739 607.662 481.778C607.7 481.818 607.746 481.85 607.796 481.871C607.846 481.893 607.9 481.904 607.955 481.904C608.034 481.896 615.872 481.207 617.848 481.859C617.881 481.87 617.915 481.876 617.95 481.876Z" fill="#3A395B"/>
<path d="M608.914 481.751C608.986 481.751 609.032 481.751 609.051 481.751L609.664 481.738L609.399 481.082C609.055 480.24 605.948 472.852 603.011 472.808C602.072 472.785 601.291 473.491 600.67 474.876C600.354 475.448 600.175 476.086 600.145 476.741C600.116 477.395 600.237 478.048 600.5 478.646C602.008 481.641 607.908 481.753 608.914 481.751ZM602.971 473.734H602.99C604.889 473.76 607.323 478.365 608.413 480.821C606.289 480.76 602.196 480.222 601.157 478.162C600.967 477.704 600.885 477.208 600.918 476.712C600.95 476.217 601.096 475.736 601.344 475.308C601.819 474.251 602.351 473.736 602.971 473.734Z" fill="#3A395B"/>
<path d="M605.248 487.679C605.294 487.679 605.336 487.679 605.387 487.672C607.436 487.453 609.31 482.21 609.517 481.613L609.754 480.933L609.142 480.977C608.657 481.013 604.383 481.387 603.382 483.683C603.214 484.117 603.148 484.586 603.19 485.051C603.233 485.515 603.382 485.964 603.626 486.358C604.083 487.238 604.629 487.681 605.248 487.679ZM608.545 481.97C607.752 483.997 606.389 486.637 605.325 486.751C605.189 486.766 604.774 486.81 604.282 485.864C604.114 485.609 604.006 485.316 603.969 485.011C603.931 484.705 603.964 484.395 604.065 484.105C604.642 482.78 607.098 482.173 608.545 481.97Z" fill="#3A395B"/>
<path d="M610.19 495.963C610.25 495.962 610.309 495.945 610.361 495.915C610.414 495.885 610.458 495.843 610.491 495.791C610.659 495.544 614.583 489.689 611.668 486.06C609.226 483.019 609.524 481.594 609.527 481.58C609.558 481.47 609.55 481.352 609.505 481.247C609.459 481.143 609.379 481.058 609.278 481.008C609.229 480.991 609.177 480.985 609.126 480.99C609.074 480.995 609.024 481.011 608.979 481.037C608.934 481.063 608.895 481.098 608.864 481.14C608.833 481.182 608.811 481.231 608.799 481.282C608.741 481.47 608.31 483.22 611.109 486.704C613.553 489.748 609.931 495.156 609.894 495.211C609.829 495.31 609.798 495.428 609.808 495.546C609.818 495.664 609.867 495.776 609.948 495.861C610.012 495.927 610.099 495.963 610.19 495.963Z" fill="#3A395B"/>
<path d="M642.879 471.309L608.256 473.468L608.264 471.25L642.879 471.309Z" fill="#3A395B"/>
<path d="M644.142 203.463H541.144L528.036 471.502H566.738L587.129 257.493L607.104 471.502H644.35L644.142 203.463Z" fill="#3A395B"/>
<path d="M541.03 203.463H643.927V216.054H541.03V203.463Z" fill="#3A395B"/>
<path d="M538.351 77.6925C538.351 77.6925 585.979 57.9502 648.775 73.0164C654.617 74.4167 659.694 78.0863 662.927 83.2454C668.391 91.9916 675.86 108.828 679.956 139.044L643.392 146.597L643.928 203.467H541.031V142.219L514.767 131.829C514.767 131.829 531.004 80.2176 538.351 77.6925Z" fill="#D55459"/>
<path d="M678.228 139.485L683.637 166.255C684.492 170.484 683.825 174.886 681.758 178.654L646.921 242.141C646.11 243.341 645.024 244.321 643.757 244.995C642.49 245.668 641.081 246.016 639.652 246.007C638.224 245.998 636.819 245.633 635.56 244.944C634.301 244.254 633.227 243.261 632.43 242.051C630.18 238.638 628.759 234.728 628.284 230.643C627.809 226.558 628.293 222.417 629.698 218.561L648.994 165.621L643.389 146.589L678.228 139.485Z" fill="#FFB494"/>
<path d="M516.732 132.604L513.179 162.279C512.527 167.725 513.145 173.251 514.982 178.408L535.242 235.253C538.024 240.359 544.224 240.154 547.169 234.859C551.083 227.704 552.062 219.258 549.892 211.368L541.03 167.447V142.222L516.732 132.604Z" fill="#FFB494"/>
<path d="M678.228 139.485L644.12 149.061L643.393 146.593L678.228 139.485Z" fill="#3A395B"/>
<path d="M648.996 165.624H656.005" stroke="#3A395B" stroke-width="0.715043" stroke-miterlimit="10"/>
<path d="M587.132 257.492L584.025 227.36" stroke="#3A395B" stroke-width="0.715043" stroke-miterlimit="10"/>
<path d="M628.107 216.054C628.107 216.054 623.192 250.046 644.35 246.929" stroke="#3A395B" stroke-width="0.715043" stroke-miterlimit="10"/>
<path d="M550.656 212.888C550.656 212.888 554.027 238.966 539.421 238.787" stroke="#3A395B" stroke-width="0.715043" stroke-miterlimit="10"/>
<path d="M516.732 132.604L516.397 135.405L541.031 142.217L516.732 132.604Z" fill="#3A395B"/>
<path d="M541.031 167.443H534.845" stroke="#3A395B" stroke-width="0.715043" stroke-miterlimit="10"/>
<path d="M541.031 142.219V100.426" stroke="#3A395B" stroke-width="0.715043" stroke-miterlimit="10"/>
<path d="M643.392 146.594L628.109 100.426" stroke="#3A395B" stroke-width="0.715043" stroke-miterlimit="10"/>
<path d="M607.96 44.8805L608.603 67.0193L608.456 72.5453C608.363 75.8945 606.995 79.0751 604.642 81.4117C602.288 83.7483 599.135 85.0569 595.851 85.0595C592.568 85.0622 589.412 83.7588 587.055 81.4261C584.698 79.0934 583.325 75.915 583.227 72.566L583.088 67.7909L584.099 58.9197C584.099 58.9197 566.315 62.7523 572.341 34.2746C572.536 33.3627 572.755 32.4257 572.998 31.45C574.105 27.0776 575.448 22.7713 577.023 18.551C577.023 18.551 602.379 2.52982 606.263 30.5948L608.114 30.2621C608.83 30.1306 609.566 30.1534 610.273 30.329C610.98 30.5046 611.644 30.8292 612.221 31.2819C612.798 31.7346 613.276 32.3053 613.625 32.9576C613.973 33.6099 614.184 34.3293 614.243 35.0695L614.342 36.3285C614.495 38.3053 613.929 40.2703 612.752 41.848C611.575 43.4257 609.869 44.5053 607.96 44.8805Z" fill="#FFB494"/>
<path d="M614.334 36.3164L614.236 35.0754C614.178 34.3345 613.969 33.6142 613.621 32.9609C613.274 32.3076 612.796 31.7357 612.219 31.2822C611.642 30.8286 610.978 30.5034 610.27 30.3275C609.563 30.1516 608.827 30.1289 608.11 30.2608L606.265 30.5962L606.075 30.6322C605.057 30.8252 604.124 31.3353 603.402 32.0923C602.681 32.8492 602.207 33.8157 602.046 34.8587L600.137 47.2739C599.71 50.053 598.416 52.6175 596.448 54.5869C594.479 56.5564 591.941 57.8259 589.209 58.207L584.097 58.9265C582.089 59.1931 580.048 59.0149 578.113 58.404C565.863 54.4068 570.52 39.1131 571.566 36.133C571.618 35.9897 571.716 35.8685 571.844 35.7885C571.972 35.7085 572.122 35.6743 572.271 35.6914C574.777 35.8596 577.293 35.5858 579.707 34.8821C581.872 34.2014 584.995 38.6527 589.908 37.9621C590.665 37.8487 591.387 37.5637 592.022 37.128C592.657 36.6923 593.188 36.1169 593.577 35.4441L597.865 28.1107C598.189 27.5583 598.386 26.9388 598.442 26.298C598.499 25.6572 598.413 25.0117 598.191 24.4093L597.462 22.4238C597.269 21.8976 596.896 21.4604 596.412 21.1934C595.928 20.9263 595.365 20.8475 594.828 20.9715C591.033 21.8429 582.439 23.1891 576.772 19.244H576.763C569.32 14.0643 565.964 1.27413 576.009 0.248977C586.053 -0.776177 600.183 11.8242 608.599 8.53385C617.015 5.24347 616.384 17.5597 611.86 18.1289C611.86 18.1289 628.225 23.1837 608.253 55.066L607.957 44.8863C609.868 44.5103 611.576 43.4277 612.752 41.8462C613.929 40.2646 614.492 38.2955 614.334 36.3164Z" fill="#3A395B"/>
<path d="M573.68 16.4019C573.68 16.4019 569.201 19.7552 573.592 29.1524L576.769 19.2355C575.661 18.3831 574.628 17.4351 573.68 16.4019Z" fill="#3A395B"/>
<path d="M611.879 39.5574L610.822 39.0278C611.339 36.5638 611.145 34.8354 610.259 34.0297C609.088 32.964 606.925 33.67 606.905 33.67L606.36 32.741C606.478 32.7005 609.215 31.7851 610.933 33.3498C612.187 34.4955 612.505 36.5827 611.879 39.5574Z" fill="#3A395B"/>
<path d="M580.678 42.171C582.448 42.3651 584.225 41.875 585.657 40.7975L584.927 39.9651C584.839 40.046 582.646 41.9382 578.008 40.5745L577.705 41.6478C578.673 41.9404 579.67 42.116 580.678 42.171Z" fill="#D55459"/>
<path d="M580.386 38.1039C580.187 38.0809 579.995 38.018 579.82 37.9189C579.645 37.8198 579.491 37.6865 579.367 37.5266C577.82 35.5123 580.978 28.9001 581.627 27.5943C581.653 27.5379 581.69 27.4873 581.735 27.4457C581.781 27.4041 581.834 27.3722 581.892 27.352C581.95 27.3318 582.011 27.3236 582.072 27.3279C582.134 27.3323 582.193 27.3491 582.248 27.3774C582.302 27.4057 582.351 27.4449 582.39 27.4926C582.43 27.5403 582.459 27.5956 582.477 27.6553C582.495 27.7149 582.502 27.7777 582.496 27.8398C582.49 27.9019 582.471 27.9622 582.442 28.017C581.042 30.8344 579.164 35.7506 580.087 36.9511C580.157 37.041 580.371 37.3207 581.193 37.1264C581.311 37.0984 581.435 37.1194 581.538 37.1847C581.641 37.2501 581.714 37.3545 581.742 37.4749C581.769 37.5954 581.749 37.722 581.685 37.827C581.621 37.932 581.518 38.0067 581.4 38.0347C581.069 38.1215 580.725 38.145 580.386 38.1039Z" fill="#3A395B"/>
<path d="M593.188 26.2505C592.551 25.8733 591.881 25.5569 591.187 25.3054C590.499 25.0543 589.788 24.8736 589.064 24.7659C588.362 24.6727 587.65 24.6799 586.949 24.7874C586.277 24.9111 585.631 25.1547 585.042 25.5069L584.999 25.5311C584.836 25.6106 584.65 25.624 584.479 25.5687C584.307 25.5135 584.162 25.3936 584.074 25.2334C583.985 25.0733 583.96 24.8848 584.003 24.7063C584.046 24.5278 584.153 24.3726 584.304 24.2721L584.338 24.2551C585.1 23.8564 585.926 23.6003 586.777 23.4988C587.604 23.4225 588.437 23.4658 589.252 23.6274C590.041 23.7957 590.812 24.0449 591.552 24.3711C592.29 24.6922 592.996 25.0836 593.662 25.5401C593.755 25.6024 593.82 25.6994 593.844 25.8102C593.867 25.9211 593.847 26.0369 593.788 26.1328C593.728 26.2287 593.634 26.2969 593.526 26.3228C593.418 26.3487 593.304 26.3302 593.209 26.2712L593.188 26.2505Z" fill="#3A395B"/>
<path d="M571.578 23.2777C572.326 22.9861 573.101 22.7675 573.89 22.6248C574.683 22.4765 575.489 22.4102 576.295 22.427C577.125 22.4564 577.946 22.6053 578.735 22.8694C579.542 23.1628 580.291 23.6017 580.946 24.1652C581.018 24.2254 581.078 24.2995 581.122 24.3833C581.166 24.467 581.194 24.5588 581.203 24.6534C581.212 24.748 581.203 24.8436 581.177 24.9347C581.15 25.0257 581.105 25.1105 581.046 25.1841C580.987 25.2577 580.915 25.3188 580.833 25.3638C580.751 25.4088 580.661 25.4368 580.568 25.4464C580.475 25.4559 580.382 25.4467 580.292 25.4192C580.203 25.3918 580.12 25.3468 580.048 25.2866L580.022 25.2632L579.984 25.2282C579.487 24.7492 578.911 24.3629 578.284 24.087C577.624 23.8215 576.932 23.6514 576.227 23.5816C575.497 23.5215 574.764 23.5359 574.038 23.6248C573.306 23.7103 572.584 23.8651 571.88 24.087L571.86 24.0933C571.754 24.1287 571.64 24.1206 571.54 24.0708C571.44 24.0209 571.364 23.9332 571.327 23.8264C571.29 23.7197 571.296 23.6025 571.343 23.4999C571.389 23.3973 571.474 23.3175 571.578 23.2777Z" fill="#3A395B"/>
<path d="M587.356 30.916C586.766 30.8475 586.37 30.0487 586.472 29.1318C586.574 28.215 587.136 27.5273 587.726 27.5959C588.317 27.6644 588.713 28.4633 588.61 29.3801C588.508 30.2969 587.947 30.9846 587.356 30.916Z" fill="#3A395B"/>
<path d="M576.343 29.6381C575.752 29.5696 575.356 28.7708 575.459 27.8539C575.561 26.937 576.122 26.2494 576.713 26.3179C577.303 26.3865 577.699 27.1853 577.597 28.1022C577.495 29.019 576.933 29.7067 576.343 29.6381Z" fill="#3A395B"/>
<path d="M586.522 37.0711C584.896 36.7288 583.729 35.7025 583.916 34.7788C584.103 33.8552 585.572 33.3839 587.198 33.7262C588.824 34.0685 589.991 35.0948 589.804 36.0185C589.617 36.9421 588.148 37.4134 586.522 37.0711Z" fill="#FC6D6D"/>
<path d="M577.158 33.8265C576.975 34.7501 575.51 35.2096 573.885 34.8688C573.34 34.7633 572.817 34.5622 572.339 34.2744C572.535 33.3625 572.754 32.4255 572.997 31.4498C573.516 31.385 574.042 31.4118 574.552 31.5289C576.188 31.8688 577.354 32.903 577.158 33.8265Z" fill="#FC6D6D"/>
<path d="M585.529 216.054C580.641 216.054 576.679 213.309 576.679 209.923C576.679 206.537 580.641 203.792 585.529 203.792C590.417 203.792 594.379 206.537 594.379 209.923C594.379 213.309 590.417 216.054 585.529 216.054Z" fill="#F8B600"/>
<path d="M632.431 242.054L633.439 471.249" stroke="#3A395B" stroke-width="0.715043" stroke-miterlimit="10"/>
<path d="M585.042 237.216L554.554 471.25" stroke="#3A395B" stroke-width="0.715043" stroke-miterlimit="10"/>
<path d="M514.816 186.281H521.223" stroke="#3A395B" stroke-width="0.653846" stroke-miterlimit="10"/>
<path d="M437.159 270.562C437.159 270.562 456.492 468.196 459.821 482.158H497.918C497.918 482.158 482.494 294.46 489.095 270.562H437.159Z" fill="#FFB494"/>
<path d="M437.156 270.562C432.376 296.718 428.078 324.253 424.495 353.09C418.808 398.81 415.626 441.994 414.2 482.16H379.925C379.925 482.16 380.85 306.678 393.057 272.142L437.156 270.562Z" fill="#FFB494"/>
<path d="M369.729 465.745H423.888C424.791 439.92 419.942 412.898 422.462 384.795C426.117 344.018 431.226 305.853 437.157 270.564C439.032 302.477 438.271 335.288 441.423 368.943C444.537 402.126 446.54 434.409 450.574 465.744H504.776C497.989 439.503 493.571 412.683 491.578 385.62C489.903 362.933 490.56 348.605 491.26 306.665C491.625 284.813 492.054 252.542 492.142 212.693H398.545C390.416 259.27 385.813 299.771 383.068 332.142C379.196 377.938 369.745 457.033 369.729 465.745Z" fill="#F8B600"/>
<path d="M429.86 526.319H484.783L491.257 507.445L493.845 526.319H503.091L497.913 482.16H459.819C459.819 482.16 459.819 497.705 448.538 506.342C446.323 508.03 443.856 509.342 441.231 510.228C437.923 511.357 435.046 513.518 433.006 516.405C430.966 519.292 429.865 522.76 429.86 526.319Z" fill="#7091D1"/>
<path d="M448.54 506.342C449.157 508.338 450.755 509.705 453.718 510.088C467.245 511.813 470.427 489.681 471.111 482.16H459.823C459.823 482.16 459.823 497.706 448.54 506.342Z" fill="#FFB494"/>
<path d="M353.148 526.319H402.479L408.296 507.445L410.622 526.319H418.926L414.275 482.16H380.059C380.059 482.16 380.059 497.705 369.924 506.342C367.969 508.009 365.749 509.324 363.361 510.228C357.275 512.558 353.148 519.016 353.148 526.319Z" fill="#7091D1"/>
<path d="M369.926 506.342C370.484 508.338 371.916 509.705 374.577 510.088C386.727 511.813 389.585 489.681 390.199 482.16H380.064C380.064 482.16 380.06 497.706 369.926 506.342Z" fill="#FFB494"/>
<path d="M473.137 482.16H459.822L459.554 485.478H473.599L473.137 482.16Z" fill="#7091D1"/>
<path d="M393.083 482.16H380.004L379.739 485.478H393.538L393.083 482.16Z" fill="#7091D1"/>
<path d="M496.618 465.745H457.48L457.83 468.581L496.618 465.745Z" fill="#3A395B"/>
<path d="M414.877 465.745C414.877 465.745 414.782 467.818 414.776 467.943C414.771 468.068 380.094 465.745 380.094 465.745H414.877Z" fill="#3A395B"/>
<path d="M437.156 270.565L435.641 239.572" stroke="#3A395B" stroke-width="0.728732" stroke-miterlimit="10"/>
<path d="M427.102 86.8481C427.102 86.8481 418.31 90.598 416.913 99.1598C415.516 107.722 476.896 104.795 476.896 104.795C475.655 101.32 473.875 98.0711 471.624 95.1725C469.41 92.4623 467.878 89.2414 467.16 85.7897C466.442 82.338 466.562 78.7596 467.507 75.3655L427.102 86.8481Z" fill="#3A395B"/>
<path d="M372.444 159.165C380.002 141.105 394.601 107.572 399.494 105.891C399.494 105.891 431.729 87.8474 489.141 101.606C494.481 102.892 499.121 106.249 502.077 110.966C505.872 117.03 520.035 151.535 526.624 167.783C528.821 173.219 528.982 179.289 527.076 184.838L516.934 214.251L507.535 241.556L503.74 238.326L483.198 220.875H403.741L385.768 232.97L381.924 235.558L374.543 201.514V201.499L371.41 187.098V187.064L370.36 182.203C368.68 174.49 369.409 166.434 372.444 159.165ZM490.675 168.887L490.966 198.449L495.52 185.283L496.665 181.956L490.675 168.887Z" fill="#7091D1"/>
<path d="M424.936 50.3381C424.936 50.3381 416.598 69.8116 423.653 77.9733C430.708 86.135 424.936 50.3381 424.936 50.3381Z" fill="#3A395B"/>
<path d="M423.407 75.0712C423.671 81.991 426.015 88.3397 432.812 91.006L431.715 100.192C431.585 101.276 431.668 102.376 431.959 103.427C432.25 104.478 432.744 105.46 433.41 106.314C434.077 107.169 434.904 107.879 435.843 108.404C436.782 108.929 437.814 109.258 438.878 109.372C439.25 109.411 439.623 109.431 439.997 109.432C442.759 109.428 445.411 108.328 447.392 106.364C449.374 104.401 450.528 101.727 450.612 98.9105L451.779 83.722L457.243 82.9208C458.323 82.78 459.344 82.3419 460.198 81.6535C461.052 80.9651 461.707 80.0525 462.091 79.0135C462.133 78.8822 462.179 78.7509 462.214 78.6133L462.623 77.1152C462.868 76.2155 462.908 75.2707 462.742 74.3527C462.575 73.4346 462.205 72.5674 461.661 71.8168C461.117 71.0663 460.412 70.4522 459.6 70.0212C458.788 69.5902 457.891 69.3536 456.976 69.3294V69.0983C456.976 66.6406 456.541 45.3228 441.3 45.8713C437.667 46.0423 434.182 47.3929 431.353 49.7263C428.525 52.0596 426.501 55.2538 425.576 58.8431C424.392 63.1403 423.669 67.5557 423.419 72.0119C423.374 73.0415 423.369 74.0613 423.407 75.0712Z" fill="#FFB494"/>
<path d="M430.855 78.1478C431.101 78.1447 431.346 78.1093 431.583 78.0426C431.683 78.0112 431.766 77.9418 431.817 77.849C431.867 77.7561 431.881 77.647 431.854 77.5443C431.828 77.4416 431.763 77.3534 431.675 77.2979C431.586 77.2425 431.48 77.2241 431.378 77.2467C430.585 77.4599 430.363 77.1901 430.289 77.1011C429.372 75.9761 431.022 71.2371 432.278 68.5142C432.323 68.4155 432.328 68.3024 432.292 68.1998C432.256 68.0971 432.181 68.0134 432.084 67.967C431.988 67.9207 431.877 67.9154 431.776 67.9524C431.676 67.9894 431.594 68.0657 431.548 68.1644C431.196 68.9333 428.125 75.7342 429.67 77.628C429.815 77.8013 429.998 77.9382 430.204 78.0283C430.409 78.1184 430.632 78.1593 430.855 78.1478Z" fill="#3A395B"/>
<path d="M438.194 77.2526C436.165 77.0785 434.596 76.003 434.691 74.8504C434.786 73.6978 436.508 72.9046 438.538 73.0787C440.568 73.2528 442.137 74.3283 442.042 75.4809C441.947 76.6335 440.224 77.4267 438.194 77.2526Z" fill="#FC6D6D"/>
<path d="M423.406 75.0715C424.125 75.3285 424.89 75.4221 425.648 75.3457C427.514 75.1866 428.961 74.1938 428.875 73.1344C428.789 72.0751 427.2 71.3359 425.331 71.4995C424.668 71.5531 424.02 71.7277 423.417 72.0148C423.374 73.0418 423.368 74.0616 423.406 75.0715Z" fill="#FC6D6D"/>
<path d="M424.322 64.3875C427.813 62.6395 430.834 60.0506 433.124 56.8446C447.754 75.7972 456.975 69.3307 456.975 69.3307C456.975 69.3307 457.432 47.1398 443.129 45.9132C442.522 45.8625 441.912 45.8487 441.303 45.8718C437.669 46.0426 434.184 47.3932 431.355 49.727C428.526 52.0607 426.501 55.2554 425.577 58.8454C425.123 60.5522 424.683 62.4253 424.322 64.3875Z" fill="#FB7E60"/>
<path d="M432.81 91.0073C432.81 91.0073 436.953 92.4533 441.88 88.8051C440.89 90.3703 439.49 91.6218 437.839 92.4184C436.188 93.215 434.352 93.5248 432.538 93.313L432.81 91.0073Z" fill="#3A395B"/>
<path d="M423.994 64.5588C424.107 64.5039 424.215 64.4437 424.322 64.3888C427.813 62.6398 430.834 60.0504 433.126 56.844C447.756 75.7968 456.976 69.333 456.976 69.333C457.891 69.3573 458.789 69.5942 459.601 70.0256C460.413 70.457 461.118 71.0717 461.663 71.8228C462.207 72.5739 462.576 73.4417 462.743 74.3603C462.909 75.2789 462.868 76.2241 462.623 77.1241L462.214 78.6115C462.176 78.7482 462.133 78.8858 462.085 79.0171C461.704 80.0557 461.053 80.9686 460.201 81.6571C459.349 82.3457 458.328 82.7839 457.25 82.9244L451.781 83.7256L450.793 96.5562C454.084 96.6381 457.809 96.5176 461.294 96.7864C461.594 94.9338 462.133 93.1298 462.897 91.4215C466.188 82.499 467.635 75.135 468.009 69.154C468.885 55.2335 459.796 42.4973 446.374 39.8526C422.833 35.2079 418.707 67.2476 423.994 64.5588Z" fill="#3A395B"/>
<path d="M443.981 65.5502C443.336 65.1363 442.655 64.7855 441.946 64.5025C441.234 64.214 440.496 63.9992 439.742 63.8614C438.964 63.7312 438.172 63.7139 437.388 63.8101C436.583 63.9307 435.805 64.1975 435.092 64.5979C435.013 64.6398 434.943 64.6973 434.886 64.767C434.828 64.8367 434.786 64.9172 434.759 65.004C434.733 65.0908 434.723 65.182 434.732 65.2724C434.74 65.3629 434.766 65.4507 434.808 65.5309C434.849 65.6112 434.906 65.6821 434.975 65.7398C435.044 65.7974 435.123 65.8406 435.208 65.8668C435.294 65.893 435.383 65.9017 435.472 65.8925C435.56 65.8832 435.646 65.8561 435.724 65.8128L435.753 65.7966L435.795 65.7705C436.345 65.4189 436.952 65.1687 437.587 65.0313C438.25 64.9086 438.926 64.8813 439.596 64.9504C440.285 65.0329 440.964 65.1856 441.623 65.4063C442.289 65.6252 442.934 65.9067 443.55 66.2471L443.567 66.257C443.659 66.3127 443.769 66.3289 443.872 66.302C443.976 66.2751 444.065 66.2073 444.119 66.1136C444.174 66.0198 444.19 65.9078 444.164 65.8022C444.137 65.6965 444.071 65.6059 443.979 65.5502H443.981Z" fill="#3A395B"/>
<path d="M422.059 65.0151C422.722 64.7842 423.404 64.6165 424.096 64.5142C424.784 64.4092 425.479 64.3745 426.174 64.4108C426.846 64.4566 427.508 64.5985 428.141 64.8326C428.746 65.0761 429.303 65.4265 429.788 65.8676L429.823 65.8982C429.89 65.9573 429.968 66.0022 430.053 66.0305C430.137 66.0588 430.226 66.0699 430.314 66.0631C430.403 66.0564 430.489 66.0319 430.568 65.9911C430.647 65.9503 430.718 65.894 430.776 65.8254C430.834 65.7568 430.878 65.6772 430.906 65.5912C430.933 65.5052 430.944 65.4145 430.937 65.3242C430.931 65.2339 430.907 65.1459 430.867 65.0651C430.827 64.9843 430.772 64.9123 430.704 64.8532L430.677 64.8299C430.039 64.3136 429.316 63.9177 428.542 63.6608C427.785 63.4325 427.001 63.3144 426.212 63.3101C425.446 63.3175 424.682 63.4034 423.932 63.5664C423.187 63.7249 422.458 63.9547 421.755 64.2525C421.655 64.2915 421.574 64.3694 421.531 64.4689C421.487 64.5685 421.484 64.6817 421.522 64.7835C421.561 64.8854 421.637 64.9676 421.734 65.012C421.832 65.0564 421.943 65.0595 422.043 65.0205L422.059 65.0151Z" fill="#3A395B"/>
<path d="M438.733 70.8928C438.17 70.8445 437.772 70.0973 437.844 69.2238C437.916 68.3504 438.43 67.6814 438.993 67.7297C439.556 67.7779 439.953 68.5251 439.881 69.3986C439.81 70.2721 439.295 70.9411 438.733 70.8928Z" fill="#3A395B"/>
<path d="M427.069 69.8916C426.506 69.8434 426.109 69.0961 426.181 68.2227C426.253 67.3492 426.767 66.6802 427.33 66.7284C427.892 66.7767 428.29 67.5239 428.218 68.3974C428.146 69.2709 427.632 69.9399 427.069 69.8916Z" fill="#3A395B"/>
<path d="M437.043 81.2295C434.8 82.4086 432.259 82.8646 429.757 82.537C429.447 82.4902 429.238 82.9713 429.435 83.2806C430.604 85.1195 433.685 88.5922 437.42 81.9183C437.627 81.5487 437.365 81.0641 437.043 81.2295Z" fill="#D55459"/>
<path d="M459.467 79.3474C460.334 77.1379 460.358 75.3465 459.541 74.0219C459.109 73.4286 458.558 72.9368 457.924 72.58C457.29 72.2231 456.588 72.0095 455.866 71.9536L455.813 72.7746L455.84 72.3646L455.813 72.7746C456.408 72.8255 456.987 73.0024 457.512 73.2941C458.037 73.5858 458.496 73.9859 458.861 74.4688C459.53 75.5579 459.482 77.0974 458.719 79.0452L459.467 79.3474Z" fill="#3A395B"/>
<path d="M432.917 68.3773C432.932 68.2541 432.947 68.1156 432.962 67.9915C433.056 66.6443 433.472 65.3412 434.175 64.1966C434.878 63.0521 435.845 62.101 436.992 61.4269C437.765 61.0224 438.632 60.8464 439.498 60.9188C440.34 61.0178 441.147 61.3194 441.853 61.7987C442.559 62.278 443.144 62.9213 443.559 63.6759C443.898 64.2392 444.166 64.8434 444.358 65.4745C444.484 65.8719 444.58 66.2787 444.646 66.6912C444.72 67.1035 444.77 67.52 444.796 67.9385C444.829 68.4207 444.824 68.9048 444.781 69.3863C444.649 71.6651 443.673 73.8073 442.049 75.378V75.3933C441.11 76.3049 439.872 76.8266 438.577 76.8564C438.446 76.859 438.316 76.8539 438.185 76.8412C437.502 76.7629 436.842 76.5453 436.242 76.2012C435.643 75.8572 435.118 75.3938 434.698 74.8385C433.481 73.2437 432.841 71.2687 432.886 69.2478V69.1246C432.881 68.8751 432.892 68.6255 432.917 68.3773ZM435.287 73.8448C435.615 74.3695 436.053 74.8132 436.57 75.1435C437.087 75.4739 437.669 75.6827 438.275 75.7548C438.896 75.7889 439.517 75.6807 440.092 75.4381C440.666 75.1955 441.18 74.8247 441.596 74.3529C442.849 72.9664 443.595 71.1826 443.711 69.3008C443.775 68.6028 443.754 67.8994 443.651 67.2065C443.615 66.9266 443.565 66.6489 443.5 66.3746C443.485 66.3135 443.47 66.2667 443.455 66.2056C443.409 66.0228 443.353 65.8427 443.288 65.666C443.214 65.4339 443.123 65.2076 443.017 64.9889C442.906 64.7398 442.78 64.498 442.64 64.2649C442.312 63.6581 441.848 63.1384 441.287 62.7478C440.726 62.3573 440.083 62.1069 439.41 62.0168H439.122C438.672 62.0189 438.227 62.1077 437.809 62.2785C436.981 62.6103 436.256 63.1635 435.711 63.8801C435.543 64.0832 435.392 64.2997 435.259 64.5275C435.074 64.8061 434.912 65.0997 434.775 65.4052C434.334 66.3702 434.069 67.4085 433.99 68.4699C433.783 70.3623 434.244 72.2682 435.29 73.8448H435.287Z" fill="#3A395B"/>
<path d="M420.832 67.7152L420.847 67.3456C420.964 65.8071 421.383 64.3084 422.081 62.9392C422.26 62.5891 422.466 62.2541 422.698 61.9375C423.319 61.0022 424.227 60.3036 425.279 59.951C425.582 59.8537 425.897 59.8019 426.214 59.7972C426.325 59.7943 426.436 59.7994 426.547 59.8125C427.536 59.9114 428.447 60.4038 429.083 61.183C429.446 61.5977 429.755 62.0583 430.003 62.5534C430.379 63.3107 430.644 64.1203 430.788 64.9563V64.9715C430.832 65.1693 430.862 65.3701 430.876 65.5722C430.985 66.3163 431.01 67.0705 430.951 67.8204C430.954 67.9489 430.949 68.0774 430.936 68.2053C430.923 68.4584 430.893 68.7104 430.848 68.9597C430.758 69.634 430.611 70.2989 430.408 70.9471C430.316 71.158 430.235 71.3738 430.166 71.5937C429.895 72.3182 429.53 73.0021 429.079 73.6269C428.555 74.3813 427.854 74.9902 427.041 75.3984C426.57 75.6282 426.054 75.7492 425.532 75.7527C425.431 75.7554 425.33 75.75 425.23 75.7365C424.625 75.6791 424.043 75.4673 423.539 75.1205C423.494 75.09 423.451 75.0594 423.389 75.0135C421.969 73.9659 421.004 71.8553 420.822 69.3141C420.807 69.0218 420.792 68.7133 420.792 68.4058C420.791 68.175 420.804 67.9443 420.832 67.7152ZM423.383 73.4758C423.613 73.7955 423.904 74.0641 424.239 74.2651C424.574 74.4661 424.945 74.5953 425.33 74.6448C425.98 74.6921 426.624 74.495 427.141 74.0909C427.562 73.7801 427.929 73.4002 428.228 72.9668C428.353 72.8016 428.464 72.6263 428.56 72.4426C429.323 71.1245 429.773 69.6425 429.874 68.1153C429.94 67.3819 429.93 66.6434 429.844 65.9122C429.786 65.2823 429.654 64.6618 429.451 64.0642C429.343 63.7194 429.206 63.3846 429.043 63.0633C428.829 62.6294 428.56 62.2256 428.244 61.8619C427.786 61.3293 427.151 60.9889 426.462 60.9069H426.266C425.809 60.9115 425.361 61.039 424.968 61.2765C424.416 61.6086 423.938 62.0545 423.564 62.5858C423.279 62.9874 423.032 63.4152 422.825 63.8637C422.75 64.0091 422.684 64.1592 422.628 64.3133C422.553 64.5138 422.477 64.7135 422.417 64.914C422.154 65.7332 421.987 66.581 421.919 67.44C421.663 69.5679 422.186 71.7173 423.388 73.4758H423.383Z" fill="#3A395B"/>
<path d="M433.166 69.2642L433.688 68.3046C433.157 68.0222 432.576 67.8506 431.979 67.7998C431.382 67.749 430.781 67.82 430.212 68.0087L430.577 69.0412C431.436 68.7699 432.364 68.8499 433.166 69.2642Z" fill="#3A395B"/>
<path d="M456.978 69.8784C457.108 69.8774 457.233 69.8281 457.331 69.7397C457.428 69.6513 457.491 69.5299 457.507 69.3979C457.523 69.266 457.492 69.1326 457.419 69.0225C457.346 68.9124 457.236 68.8331 457.11 68.7993L443.903 65.3669C443.834 65.3467 443.762 65.341 443.69 65.3499C443.619 65.3589 443.55 65.3823 443.488 65.419C443.425 65.4556 443.371 65.5045 443.327 65.563C443.284 65.6215 443.252 65.6883 443.235 65.7594C443.217 65.8306 443.213 65.9046 443.224 65.9771C443.235 66.0497 443.26 66.1193 443.298 66.1818C443.336 66.2443 443.385 66.2985 443.444 66.3411C443.502 66.3837 443.569 66.4138 443.639 66.4298L456.845 69.8622C456.889 69.8732 456.933 69.8787 456.978 69.8784Z" fill="#3A395B"/>
<path d="M388.821 277.478C395.135 275.534 400.271 273.688 404.438 271.975C422.38 264.625 422.412 259.781 422.412 259.781C422.041 255.084 421.781 250.174 421.618 245.099C420.892 223.462 421.862 198.91 423.428 176.104C426.318 133.672 431.26 97.3388 431.26 97.3388C425.73 96.9827 420.182 97.6182 414.867 99.2164C410.441 100.475 406.183 102.285 402.19 104.605C403.776 111.709 397.087 129.01 397.087 129.01V176.949L398.621 187.034L403.74 220.88L393.888 227.505L393.792 227.57L388.821 277.478Z" fill="#3A5793"/>
<path d="M445.266 180.882C445.637 205.929 446.978 230.466 447.947 245.359C448.513 254.307 448.949 259.778 448.949 259.778C472.705 291.762 499.012 288.515 499.012 288.515L498.948 287.494L495.266 231.122L483.088 220.362L483.072 220.345L492.794 193.172L492.714 192.003L491.392 171.62L480.427 137.906C477.65 120.356 480.733 111.079 483.995 106.3C486.515 102.577 489.148 101.604 489.148 101.604C477.688 98.2879 465.836 96.5914 453.924 96.5615C446.203 107.043 444.701 144.498 445.266 180.882Z" fill="#3A5793"/>
<path d="M492.71 192.005C491.612 192.005 490.514 192.022 489.416 192.055C480.13 192.382 470.961 194.281 462.284 197.674C458.441 199.189 454.529 201.101 451.997 204.43C449.465 207.759 448.736 212.85 451.319 216.13C454.322 219.936 459.926 219.738 464.706 219.524C470.845 219.26 476.994 219.541 483.085 220.364" stroke="white" stroke-width="0.77624" stroke-miterlimit="10"/>
<path d="M498.948 287.497C496.419 286.674 493.999 285.533 491.745 284.102C476.387 274.858 460.48 265.07 450.838 249.779C449.902 248.296 448.997 246.746 447.948 245.362" stroke="white" stroke-width="0.77624" stroke-miterlimit="10"/>
<path d="M421.619 245.098C414.983 249.159 409.911 255.417 407.246 262.829C406.213 265.811 405.534 269.025 404.436 271.974" stroke="white" stroke-width="0.77624" stroke-miterlimit="10"/>
<path d="M398.623 187.029C400.819 187.029 403.016 187.111 405.212 187.325C406.451 187.336 407.661 187.708 408.7 188.396C410.153 189.534 410.463 191.609 410.654 193.488C411.72 204.099 411.72 216.607 403.515 223.232C400.661 225.372 397.371 226.83 393.89 227.5" stroke="white" stroke-width="0.77624" stroke-miterlimit="10"/>
<path d="M423.432 176.103C422.753 175.823 422.091 175.493 421.429 175.164C413.726 171.259 406.717 164.338 405.764 155.604C404.763 146.409 410.48 138.088 415.179 130.179C419.878 122.27 423.771 112.151 419.265 104.11C418.176 102.165 416.676 100.493 414.872 99.2154" stroke="white" stroke-width="0.77624" stroke-miterlimit="10"/>
<path d="M483.989 106.302C478.336 105.95 472.667 105.961 467.016 106.335C464.383 106.5 461.574 106.812 459.506 108.493C457.698 109.976 456.745 112.284 456.147 114.557C454.876 119.696 455.031 125.094 456.594 130.149C458.156 135.203 461.066 139.715 464.997 143.179C468.792 146.41 473.379 148.552 477.351 151.584C481.308 154.615 484.797 159.015 484.797 164.075C484.797 168.853 481.566 173.187 477.545 175.659C473.524 178.114 468.792 179.037 464.141 179.712C457.895 180.679 451.577 181.07 445.262 180.881" stroke="white" stroke-width="0.77624" stroke-miterlimit="10"/>
<path d="M485.22 225.119L473.541 221.962C473.541 221.962 469.827 237.846 472.073 241.556" stroke="#3A395B" stroke-width="0.653846" stroke-miterlimit="10"/>
<path d="M472.573 226.692L485.22 229.905" stroke="#3A395B" stroke-width="0.653846" stroke-miterlimit="10"/>
<path d="M453.663 274.644C456.828 273.359 461.381 270.687 466.618 265.219C466.707 265.123 466.827 265.064 466.955 265.054C467.083 265.043 467.211 265.081 467.313 265.161C467.416 265.241 467.486 265.357 467.509 265.486C467.533 265.615 467.509 265.749 467.441 265.861C465.122 269.992 462.504 273.942 459.609 277.676C459.455 277.87 459.371 278.112 459.372 278.362C459.372 278.611 459.458 278.853 459.614 279.045C459.77 279.238 459.986 279.369 460.227 279.417C460.467 279.464 460.716 279.426 460.931 279.307C464.064 277.509 468.295 274.216 472.574 268.267C472.651 268.167 472.759 268.098 472.88 268.072C473.001 268.045 473.128 268.063 473.237 268.122C473.347 268.181 473.433 268.277 473.48 268.394C473.527 268.511 473.533 268.641 473.495 268.762C472.482 271.573 471.234 274.291 469.765 276.885C469.637 277.105 469.591 277.364 469.634 277.615C469.676 277.867 469.804 278.095 469.996 278.259C470.188 278.424 470.431 278.513 470.681 278.512C470.931 278.51 471.173 278.419 471.363 278.252C474.877 275.15 477.762 271.378 479.858 267.147C479.911 267.036 480.001 266.947 480.111 266.896C480.222 266.844 480.346 266.833 480.463 266.864C480.581 266.895 480.684 266.966 480.756 267.065C480.829 267.165 480.865 267.286 480.86 267.41C480.777 269.123 480.5 270.82 480.036 272.468C479.965 272.703 479.975 272.955 480.064 273.183C480.153 273.41 480.317 273.6 480.527 273.719C480.737 273.839 480.98 273.882 481.217 273.84C481.454 273.798 481.67 273.675 481.828 273.49C486.399 268.201 494.329 257.342 503.147 237.815L484.477 221.962C480.763 227.978 472.365 238.491 454.826 249.135C454.632 249.247 454.478 249.418 454.385 249.624C454.292 249.83 454.265 250.061 454.308 250.284C454.351 250.506 454.461 250.71 454.624 250.864C454.787 251.019 454.993 251.118 455.214 251.146C460.245 251.841 465.352 251.72 470.346 250.786C470.457 250.766 470.571 250.78 470.674 250.828C470.776 250.875 470.862 250.954 470.919 251.052C470.977 251.151 471.003 251.265 470.995 251.38C470.987 251.494 470.945 251.603 470.875 251.693C468.049 255.368 459.409 266.375 452.561 272.852C452.384 273.023 452.271 273.252 452.24 273.499C452.209 273.746 452.264 273.997 452.393 274.208C452.523 274.419 452.72 274.577 452.952 274.657C453.183 274.736 453.434 274.732 453.663 274.644Z" fill="#FFB494"/>
<path d="M385.771 232.972L391.811 249.945C394.346 254.609 400.014 254.427 402.711 249.585C405.033 245.352 406.247 240.579 406.236 235.727C406.242 233.147 405.894 230.579 405.202 228.098L403.749 220.88L385.771 232.972Z" fill="#FFB494"/>
<path d="M397.095 176.939H391.441" stroke="#3A395B" stroke-width="0.653846" stroke-miterlimit="10"/>
<path d="M502.215 182.06H496.56" stroke="#3A395B" stroke-width="0.653846" stroke-miterlimit="10"/>
<path d="M498.85 465.746L490.804 440.576L488.857 465.746" stroke="#3A395B" stroke-width="0.653846" stroke-miterlimit="10"/>
<path d="M416.873 465.746L413.413 443.18L408.54 465.746" stroke="#3A395B" stroke-width="0.653846" stroke-miterlimit="10"/>
<path d="M404.594 225.118L387.237 237.102L390.702 258.556H406.228L412.547 241.836L408.539 226.462L404.594 225.118Z" fill="#3A5793"/>
<path d="M387.241 237.102L406.231 224.079C406.231 224.079 416.963 252.416 392.826 260.891" stroke="#3A395B" stroke-width="0.653846" stroke-miterlimit="10"/>
<path d="M407.523 228.605L387.96 241.556" stroke="#3A395B" stroke-width="0.653846" stroke-miterlimit="10"/>
<path d="M446.84 226.692H421.382" stroke="#3A395B" stroke-width="0.728732" stroke-miterlimit="10"/>
<path d="M249.024 510.654C248.959 510.65 248.896 510.631 248.84 510.597C248.783 510.563 248.736 510.516 248.702 510.459C248.636 510.371 248.603 510.263 248.608 510.152C248.613 510.042 248.655 509.937 248.728 509.855C250.923 507.896 256.403 505.849 256.635 505.763C256.738 505.739 256.845 505.756 256.935 505.811C257.025 505.866 257.09 505.955 257.118 506.058C257.163 506.154 257.17 506.264 257.137 506.364C257.104 506.465 257.034 506.549 256.941 506.598C256.885 506.618 251.329 508.694 249.216 510.58C249.163 510.628 249.095 510.654 249.024 510.654Z" fill="#3A395B"/>
<path d="M281.486 159.594L282.575 163.769L244.376 170.699L281.486 159.594Z" fill="#3A395B"/>
<path d="M250.335 186.411H256.939" stroke="#3A395B" stroke-width="0.673976" stroke-miterlimit="10"/>
<path d="M305.491 277.735C305.491 277.735 287.107 470.016 283.942 483.601H247.715C247.715 483.601 262.384 300.987 256.105 277.735H305.491Z" fill="#FFB494"/>
<path d="M305.49 277.735C310.035 303.184 314.12 329.971 317.53 358.027C322.938 402.509 325.964 444.523 327.32 483.601H359.912C359.912 483.601 359.031 312.873 347.427 279.271L305.49 277.735Z" fill="#FFB494"/>
<path d="M361.93 467.631H324.251C323.392 442.505 321.86 416.215 319.464 388.873C315.99 349.2 311.131 312.068 305.49 277.736C303.706 308.784 301.33 340.689 298.361 373.451C295.402 405.739 291.99 437.132 288.125 467.631H245.801C250.278 419.327 253.28 367.622 254.046 312.868C254.486 281.304 255.037 250.807 254.088 221.44H342.207C349.938 266.756 354.315 306.161 356.925 337.655C360.607 382.205 361.269 417.329 361.668 440.647C361.832 450.13 361.914 459.154 361.93 467.631Z" fill="#7091D1"/>
<path d="M219.197 526.563H271.424L277.579 508.2L280.042 526.563H288.834L283.91 483.6H247.687C247.687 483.6 247.687 498.724 236.959 507.126C234.86 508.763 232.513 510.039 230.011 510.903C226.836 512.042 224.089 514.162 222.15 516.969C220.212 519.776 219.18 523.129 219.197 526.563Z" fill="#3A5793"/>
<path d="M236.956 507.126C237.546 509.068 239.062 510.399 241.88 510.77C254.747 512.449 257.768 490.916 258.419 483.6H247.684C247.684 483.6 247.681 498.724 236.956 507.126Z" fill="#FFB494"/>
<path d="M385.372 526.563H338.458L332.93 508.2L330.719 526.563H322.821L327.245 483.6H359.786C359.786 483.6 359.786 498.724 369.423 507.126C371.275 508.742 373.386 510.02 375.664 510.903C381.451 513.175 385.372 519.457 385.372 526.563Z" fill="#3A5793"/>
<path d="M369.421 507.126C368.892 509.068 367.529 510.399 364.998 510.77C353.445 512.449 350.728 490.916 350.143 483.6H359.786C359.786 483.6 359.786 498.724 369.421 507.126Z" fill="#FFB494"/>
<path d="M247.688 483.599H260.348L260.603 486.828H247.248L247.688 483.599Z" fill="#3A5793"/>
<path d="M347.398 483.599H359.836L360.088 486.828H346.966L347.398 483.599Z" fill="#3A5793"/>
<path d="M248.949 467.63H286.166L285.833 470.39L248.949 467.63Z" fill="#3A395B"/>
<path d="M326.678 467.632C326.678 467.632 326.766 469.647 326.774 469.769C326.782 469.891 359.754 467.632 359.754 467.632H326.678Z" fill="#3A395B"/>
<path d="M305.491 277.735L306.932 247.581" stroke="#3A395B" stroke-width="0.701354" stroke-miterlimit="10"/>
<path d="M246.823 456.221H289.535" stroke="#3A395B" stroke-width="0.701354" stroke-miterlimit="10"/>
<path d="M323.817 456.221H361.87" stroke="#3A395B" stroke-width="0.701354" stroke-miterlimit="10"/>
<path d="M265.969 241.066C265.969 241.066 265.942 242.088 265.888 243.998" stroke="#3A395B" stroke-width="0.701354" stroke-miterlimit="10"/>
<path d="M265.717 249.978C264.747 282.741 261.078 397.327 255.707 450.323" stroke="#3A395B" stroke-width="0.701354" stroke-miterlimit="10" stroke-dasharray="5.36 5.36"/>
<path d="M255.396 453.305C255.29 454.303 255.182 455.275 255.073 456.222" stroke="#3A395B" stroke-width="0.701354" stroke-miterlimit="10"/>
<path d="M306.348 259.8C306.348 259.8 326.645 333.492 332.699 456.223" stroke="#3A395B" stroke-width="0.701354" stroke-miterlimit="10" stroke-dasharray="5.26 5.26"/>
<path d="M370.698 206.085C370.32 208.537 369.37 210.861 367.925 212.859C366.481 214.858 364.587 216.471 362.402 217.564C360.311 218.557 358.033 219.567 355.74 220.385C352.157 221.668 348.575 222.501 345.793 222.184L345.617 231.05L345.476 237.64C323.788 245.164 300.629 247.173 278.008 243.491H277.976C276.924 243.33 275.886 243.154 274.881 242.961C274.865 242.961 274.85 242.945 274.834 242.945C269.109 241.918 263.448 240.548 257.88 238.842C256.558 238.441 255.288 238.04 254.078 237.64V220.805C254.078 220.805 253.386 220.805 252.255 220.774H252.224C251.298 220.774 250.072 220.742 248.689 220.677H248.673C245.42 220.565 241.226 220.324 237.656 219.828C236.87 219.732 236.132 219.603 235.425 219.475C233.63 219.135 231.924 218.42 230.413 217.375V217.359C227.876 215.52 225.924 212.96 224.801 209.999C223.678 207.037 223.433 203.804 224.096 200.702C224.222 200.044 224.361 199.371 224.505 198.682L224.552 198.441C226.187 190.425 228.402 179.924 230.868 169.231C233.147 159.339 235.645 149.287 238.112 140.887C238.693 138.931 239.258 137.055 239.824 135.311C241.05 131.496 243.847 128.033 247.272 125.114C251.159 121.876 255.516 119.275 260.187 117.403H260.203L260.219 117.387C260.737 117.195 261.24 117.002 261.727 116.826C262.528 116.537 263.377 116.25 264.257 115.945H264.272C281.399 110.19 311.959 103.327 339.55 114.854C339.769 114.95 339.974 115.034 340.194 115.124C347.421 118.234 353 124.775 355.639 132.839C356.77 136.286 358.058 140.359 359.394 144.895C361.091 150.603 362.866 156.999 364.516 163.717C366.04 169.969 367.454 176.494 368.554 182.971C369.465 188.15 370.172 193.295 370.597 198.249C370.722 199.66 370.817 201.037 370.895 202.402C370.971 203.633 370.905 204.869 370.698 206.085Z" fill="#F8B600"/>
<path d="M260.227 117.379L260.211 117.395H260.195C256.99 120.168 256.032 125.908 250.894 126.132C249.611 126.213 248.338 125.852 247.28 125.106" stroke="white" stroke-width="0.717459" stroke-miterlimit="10"/>
<path d="M339.557 114.846C337.089 117.797 335.833 122.381 331.245 122.573C324.547 122.878 324.128 113.259 317.434 113.564C310.741 113.852 311.149 123.472 304.456 123.76C297.763 124.064 297.354 114.446 290.66 114.75C283.968 115.039 284.376 124.658 277.682 124.947C271.114 125.251 270.596 116.017 264.28 115.937H264.264" stroke="white" stroke-width="0.717459" stroke-miterlimit="10"/>
<path d="M359.403 144.89C358.954 145.026 358.49 145.101 358.022 145.114C351.324 145.403 350.919 135.8 344.226 136.088C337.528 136.393 337.941 145.996 331.248 146.285C324.55 146.59 324.13 136.97 317.437 137.275C310.743 137.564 311.152 147.182 304.458 147.471C297.765 147.776 297.357 138.157 290.663 138.461C283.97 138.75 284.378 148.369 277.684 148.657C270.992 148.962 270.583 139.343 263.874 139.648C257.176 139.936 257.589 149.556 250.896 149.844C244.563 150.133 243.857 141.523 238.122 140.882" stroke="white" stroke-width="0.717459" stroke-miterlimit="10"/>
<path d="M364.525 163.711C362.939 166.179 361.368 168.665 358.021 168.825C351.323 169.114 350.919 159.51 344.226 159.799C337.528 160.104 337.941 169.707 331.247 170.011C324.549 170.3 324.13 160.696 317.436 160.985C310.743 161.29 311.152 170.893 304.458 171.198C297.765 171.486 297.356 161.883 290.663 162.171C283.97 162.476 284.378 172.079 277.684 172.384C270.991 172.673 270.582 163.07 263.874 163.358C257.176 163.662 257.589 173.265 250.895 173.554C244.197 173.859 243.794 164.239 237.1 164.544C233.941 164.673 232.371 166.882 230.878 169.226" stroke="white" stroke-width="0.717459" stroke-miterlimit="10"/>
<path d="M368.561 182.965C364.272 185.146 363.77 192.279 358.019 192.536C351.321 192.824 350.916 183.221 344.224 183.51C337.526 183.815 337.939 193.418 331.245 193.723C324.547 194.011 324.128 184.408 317.434 184.697C310.74 185.001 311.149 194.604 304.456 194.909C297.763 195.198 297.354 185.594 290.66 185.883C283.968 186.188 284.376 195.791 277.682 196.095C270.989 196.384 270.58 186.78 263.872 187.069C257.174 187.374 257.587 196.977 250.893 197.282C244.195 197.57 243.791 187.968 237.098 188.255C230.561 188.56 230.797 197.731 224.559 198.436" stroke="white" stroke-width="0.717459" stroke-miterlimit="10"/>
<path d="M248.696 220.671H248.681C243.998 219.069 242.962 211.71 237.101 211.966C233.628 212.126 232.057 214.772 230.423 217.353V217.369" stroke="white" stroke-width="0.717459" stroke-miterlimit="10"/>
<path d="M370.699 206.085C364.32 206.646 364.603 215.96 358.019 216.246C351.321 216.551 350.917 206.932 344.224 207.237C337.526 207.525 337.939 217.144 331.246 217.432C324.552 217.721 324.128 208.118 317.435 208.423C310.741 208.711 311.15 218.314 304.456 218.619C297.763 218.907 297.354 209.304 290.661 209.593C283.968 209.897 284.376 219.501 277.682 219.805C270.99 220.094 270.581 210.491 263.872 210.78C257.666 211.068 257.571 219.323 252.261 220.767H252.229" stroke="white" stroke-width="0.717459" stroke-miterlimit="10"/>
<path d="M274.887 242.954C274.872 242.954 274.856 242.938 274.841 242.938C270.692 240.935 269.482 234.25 263.874 234.506C260.877 234.635 259.301 236.638 257.887 238.835" stroke="white" stroke-width="0.717459" stroke-miterlimit="10"/>
<path d="M345.62 231.045C345.158 230.963 344.69 230.931 344.222 230.949C337.524 231.237 337.937 240.857 331.243 241.146C324.545 241.449 324.126 231.831 317.432 232.135C310.739 232.424 311.148 242.043 304.454 242.332C297.761 242.636 297.352 233.017 290.659 233.322C284.075 233.611 284.358 242.909 278.011 243.484H277.979" stroke="white" stroke-width="0.717459" stroke-miterlimit="10"/>
<path d="M264.754 142.386C264.754 142.386 258.575 184.964 254.09 193.464C254.09 193.464 265.336 189.431 271.484 188.098" stroke="#3A395B" stroke-width="0.709406" stroke-miterlimit="10"/>
<path d="M254.088 193.467L244.046 197.074" stroke="#3A395B" stroke-width="0.709406" stroke-miterlimit="10"/>
<path d="M275.255 182.959C275.255 182.959 259.242 176.072 251.838 193.56C251.74 193.785 251.694 194.031 251.706 194.278C251.719 194.524 251.788 194.764 251.908 194.979C252.028 195.193 252.196 195.375 252.399 195.51C252.601 195.645 252.832 195.73 253.072 195.757C256.305 196.088 262.538 196.844 264.794 197.939L275.255 182.959Z" fill="#FFB494"/>
<path d="M345.791 222.173C345.791 222.173 279.812 210.643 264.333 198.963L275.791 181.936C275.791 181.936 328.473 188.141 339.246 192.263C339.246 192.263 331.843 152.627 330.828 141.699" stroke="#3A395B" stroke-width="0.709406" stroke-miterlimit="10"/>
<path d="M254.091 220.799C254.091 220.799 279.661 217.292 295.717 211.116" stroke="#3A395B" stroke-width="0.709406" stroke-miterlimit="10"/>
<path d="M339.246 192.263L349.852 195.527" stroke="#3A395B" stroke-width="0.709406" stroke-miterlimit="10"/>
<path d="M331.559 171.733L341.05 167.767C343.036 168.127 340.25 172.798 337.26 174.332C336.625 176.235 345.083 176.826 348.924 174.602C351.69 175.37 344.253 179.628 338.429 179.505C336.899 181.338 343.163 183.296 350.252 180.245C350.703 180.065 351.145 180.456 350.905 180.828C349.878 182.44 348.436 183.733 346.736 184.564C345.037 185.395 343.146 185.732 341.272 185.539C338.997 186.97 346.516 188.304 350.131 187.117C352.422 187.976 346.227 191.284 342.639 190.214C340.336 190.987 345.548 192.653 346.752 192.56C348.366 194.019 342.865 194.67 339.664 193.739C333.396 192.321 321.168 184.336 331.559 171.733Z" fill="#FFB494"/>
<path d="M291.636 183.932C291.636 183.932 320.797 179.368 328.001 177.997" stroke="#3A395B" stroke-width="0.709406" stroke-miterlimit="10"/>
<path d="M287.326 110.187C287.326 110.187 288.296 123.617 301.018 122.856C313.739 122.096 309.821 108.593 309.821 108.593C309.821 108.593 292.769 109.188 287.326 110.187Z" fill="#3A5793"/>
<path d="M317.549 87.2788C317.02 94.097 314.455 100.267 307.641 102.621L308.364 111.731C308.45 112.807 308.325 113.889 307.997 114.915C307.668 115.94 307.143 116.889 306.451 117.705C305.76 118.521 304.916 119.189 303.968 119.668C303.021 120.148 301.99 120.431 300.935 120.499C300.562 120.522 300.194 120.528 299.828 120.514C297.103 120.397 294.529 119.203 292.651 117.184C290.772 115.166 289.737 112.481 289.764 109.698L289.208 94.6608L283.847 93.6473C282.787 93.4638 281.797 92.9896 280.981 92.2754C280.166 91.5613 279.556 90.6342 279.218 89.5935C279.181 89.4622 279.144 89.33 279.111 89.1933L278.767 87.6978C278.561 86.7999 278.558 85.8659 278.758 84.9666C278.959 84.0673 279.358 83.2264 279.924 82.5079C280.491 81.7893 281.21 81.212 282.028 80.8197C282.846 80.4274 283.741 80.2305 284.645 80.2439L284.654 80.0164C284.751 77.5884 286.016 56.5691 301.036 57.7327C304.615 58.0497 308.002 59.5248 310.702 61.9431C313.402 64.3614 315.275 67.5964 316.047 71.1767C317.045 75.4662 317.586 79.8535 317.658 84.2618C317.66 85.2761 317.626 86.2842 317.549 87.2788Z" fill="#FFB494"/>
<path d="M309.38 90.0423C309.568 90.034 309.751 89.988 309.921 89.907C310.091 89.826 310.244 89.7116 310.371 89.5702C311.949 87.7879 309.417 81.3871 308.894 80.1201C308.849 80.0128 308.765 79.9278 308.659 79.8839C308.554 79.8399 308.435 79.8406 308.33 79.8858C308.225 79.931 308.142 80.017 308.098 80.1249C308.055 80.2327 308.056 80.3536 308.1 80.4609C309.23 83.1919 310.672 87.9246 309.732 88.983C309.66 89.0649 309.441 89.3104 308.684 89.073C308.575 89.0403 308.459 89.0526 308.359 89.1072C308.26 89.1618 308.185 89.2542 308.152 89.3644C308.119 89.4746 308.13 89.5937 308.182 89.6959C308.234 89.7981 308.324 89.8751 308.432 89.9101C308.737 90.0139 309.059 90.0587 309.38 90.0423Z" fill="#3A395B"/>
<path d="M299.132 86.9272C299.083 85.7854 300.674 84.7877 302.684 84.6987C304.694 84.6097 306.363 85.4632 306.412 86.6049C306.46 87.7467 304.87 88.7443 302.86 88.8333C300.85 88.9223 299.181 88.0689 299.132 86.9272Z" fill="#FC6D6D"/>
<path d="M317.549 87.2805C316.83 87.5046 316.071 87.566 315.326 87.4604C313.49 87.2275 312.101 86.1878 312.228 85.1464C312.355 84.105 313.953 83.444 315.789 83.6769C316.442 83.7569 317.075 83.9558 317.658 84.2642C317.66 85.2777 317.626 86.2859 317.549 87.2805Z" fill="#FC6D6D"/>
<path d="M307.644 102.624C307.644 102.624 303.501 103.883 298.778 100.08C299.695 101.666 301.028 102.959 302.626 103.812C304.225 104.666 306.026 105.047 307.825 104.911L307.644 102.624Z" fill="#3A395B"/>
<path d="M283.818 93.6422C283.018 93.4914 282.256 93.1806 281.574 92.7277C284.378 97.5296 287.744 101.708 289.467 101.736L289.202 94.6638L283.837 93.6476C283.837 93.6476 283.827 93.6422 283.818 93.6422Z" fill="#3A395B"/>
<path d="M278.151 67.5834C274.504 76.8223 277.895 85.198 278.642 86.9327C278.556 86.0825 278.647 85.2234 278.91 84.4117C279.172 83.6 279.599 82.854 280.164 82.2226C280.728 81.5912 281.417 81.0887 282.186 80.7478C282.954 80.407 283.784 80.2356 284.621 80.2449H284.644C284.644 80.2449 293.492 87.002 308.674 68.8918C310.809 72.15 313.689 74.8289 317.066 76.6974C317.166 76.7576 317.266 76.8233 317.376 76.8772C317.631 77.0084 317.917 77.0633 318.202 77.0355C319.012 76.8287 319.846 58.5323 310.622 54.0486C309.096 53.3067 307.459 53.2555 304.188 53.1494C299.064 52.9884 292.452 52.7816 286.342 57.0306C282.659 59.6558 279.812 63.3246 278.151 67.5834Z" fill="#3A395B"/>
<path d="M297.052 77.7474C297.673 77.4372 298.321 77.1859 298.987 76.9967C299.649 76.8057 300.328 76.6828 301.014 76.6298C301.678 76.5893 302.344 76.6438 302.993 76.7917C303.615 76.9534 304.204 77.2252 304.733 77.5945L304.772 77.6206C304.919 77.7194 305.099 77.7544 305.272 77.7178C305.445 77.6812 305.597 77.5761 305.694 77.4255C305.791 77.2749 305.825 77.0913 305.789 76.9149C305.753 76.7386 305.65 76.584 305.502 76.4851L305.473 76.4662C304.785 76.0422 304.028 75.7471 303.238 75.5951C302.468 75.4686 301.686 75.4532 300.913 75.5492C300.162 75.6538 299.424 75.8345 298.709 76.0886C297.998 76.3394 297.312 76.6575 296.659 77.0389C296.572 77.0929 296.508 77.179 296.481 77.2796C296.454 77.3802 296.466 77.4875 296.515 77.5794C296.563 77.6712 296.644 77.7405 296.741 77.773C296.838 77.8054 296.944 77.7985 297.036 77.7536L297.052 77.7474Z" fill="#3A395B"/>
<path d="M319.027 76.6726C318.344 76.3494 317.633 76.0929 316.903 75.9064C316.17 75.7147 315.42 75.5987 314.664 75.5602C313.885 75.5319 313.107 75.6164 312.351 75.8111C311.577 76.0319 310.847 76.3925 310.197 76.8759C310.053 76.98 309.955 77.1383 309.925 77.3161C309.895 77.4938 309.936 77.6764 310.038 77.8237C310.14 77.971 310.295 78.0709 310.469 78.1014C310.644 78.1319 310.823 78.0905 310.967 77.9864L310.992 77.9667L311.03 77.9361C311.527 77.5209 312.09 77.198 312.696 76.982C313.33 76.7772 313.989 76.664 314.654 76.6456C315.341 76.6384 316.026 76.7011 316.701 76.8327C317.38 76.9619 318.046 77.1551 318.691 77.41L318.71 77.4172C318.758 77.4384 318.81 77.4498 318.862 77.4506C318.914 77.4515 318.966 77.4419 319.014 77.4223C319.063 77.4027 319.107 77.3736 319.145 77.3365C319.182 77.2995 319.213 77.2552 319.233 77.2063C319.254 77.1574 319.265 77.1049 319.266 77.0516C319.267 76.9983 319.257 76.9454 319.238 76.8958C319.219 76.8462 319.191 76.801 319.154 76.7627C319.118 76.7244 319.075 76.6938 319.027 76.6726Z" fill="#3A395B"/>
<path d="M301.132 80.9846C301.095 80.1193 301.517 79.3978 302.074 79.3731C302.631 79.3484 303.113 80.0299 303.15 80.8953C303.186 81.7606 302.764 82.4821 302.207 82.5068C301.65 82.5314 301.168 81.8499 301.132 80.9846Z" fill="#3A395B"/>
<path d="M313.06 80.4748C313.023 79.6095 313.445 78.888 314.002 78.8633C314.56 78.8386 315.041 79.5201 315.078 80.3855C315.115 81.2508 314.693 81.9723 314.136 81.9969C313.578 82.0216 313.097 81.3401 313.06 80.4748Z" fill="#3A395B"/>
<path d="M281.762 90.0389L282.571 89.7467C281.897 87.8025 281.909 86.2909 282.606 85.2505C282.983 84.7928 283.448 84.42 283.974 84.1558C284.499 83.8915 285.072 83.7416 285.657 83.7154L285.634 82.8405C284.914 82.8663 284.208 83.0502 283.564 83.3796C282.92 83.7091 282.353 84.1763 281.902 84.7496C281.037 86.0328 280.991 87.8124 281.762 90.0389Z" fill="#3A395B"/>
<path d="M303.935 93.0937C303.824 93.081 303.712 93.0993 303.61 93.1466C303.509 93.1939 303.422 93.2685 303.358 93.3624C303.295 93.4563 303.258 93.566 303.251 93.6797C303.244 93.7935 303.267 93.907 303.318 94.0083C303.641 94.6984 304.146 95.2834 304.775 95.6983C305.405 96.1131 306.135 96.3416 306.884 96.3581C307.507 96.3542 308.12 96.2022 308.675 95.9142C309.23 95.6261 309.711 95.2101 310.081 94.699C310.143 94.6092 310.181 94.5044 310.191 94.395C310.201 94.2856 310.183 94.1755 310.138 94.0754C310.094 93.9754 310.024 93.889 309.937 93.8249C309.85 93.7607 309.747 93.721 309.64 93.7097L303.935 93.0937Z" fill="#D55459"/>
<path d="M262.459 85.5664C254.527 85.5664 248.098 79.0059 248.098 70.913C248.098 62.8202 254.527 56.2596 262.459 56.2596C270.39 56.2596 276.82 62.8202 276.82 70.913C276.82 79.0059 270.39 85.5664 262.459 85.5664Z" fill="#3A395B"/>
<path d="M277.632 67.3016C276.068 69.44 273.946 73.5181 275.942 78.143C275.984 78.2445 276.057 78.3292 276.151 78.3841C276.244 78.439 276.353 78.461 276.46 78.4468C276.567 78.4326 276.666 78.383 276.743 78.3055C276.819 78.228 276.869 78.127 276.884 78.018C277.203 75.59 277.858 70.8545 278.507 67.7071C278.53 67.5954 278.515 67.4788 278.465 67.3768C278.414 67.2748 278.331 67.1934 278.229 67.1461C278.127 67.0988 278.012 67.0885 277.904 67.1167C277.795 67.145 277.7 67.2102 277.632 67.3016Z" fill="#7091D1"/>
<path d="M237.901 216.825C237.903 217.829 237.824 218.832 237.666 219.823C236.88 219.727 236.141 219.598 235.434 219.469C227.502 217.978 222.362 209.37 224.106 200.697C224.232 200.039 224.37 199.366 224.515 198.677C228.374 199.809 231.768 202.192 234.183 205.466C236.598 208.74 237.903 212.727 237.901 216.825Z" fill="#3A5793"/>
<path d="M362.406 217.563C360.315 218.557 358.037 219.567 355.744 220.385C355.522 219.213 355.411 218.021 355.413 216.826C355.411 212.403 356.931 208.12 359.708 204.724C362.485 201.328 366.342 199.035 370.607 198.245C370.732 199.656 370.827 201.032 370.905 202.397C371.118 205.5 370.424 208.597 368.911 211.297C367.398 213.997 365.134 216.178 362.406 217.563Z" fill="#3A5793"/>
</svg>
