<svg width="24" height="24" viewBox="0 0 24 24" fill="none" xmlns="http://www.w3.org/2000/svg">
<path d="M11.9999 3.12C12.9029 3.11999 13.7971 3.29802 14.6312 3.6439C15.4654 3.98977 16.2232 4.49671 16.8613 5.13571C17.4993 5.7747 18.0052 6.53323 18.3498 7.36789C18.6945 8.20255 18.8712 9.09697 18.8699 10V17.91H5.12989V10C5.12858 9.09697 5.3053 8.20255 5.64996 7.36789C5.99463 6.53323 6.50046 5.7747 7.13853 5.13571C7.7766 4.49671 8.53438 3.98977 9.36854 3.6439C10.2027 3.29802 11.0969 3.11999 11.9999 3.12V3.12Z" stroke="#00004A" stroke-width="1.5" stroke-linecap="round" stroke-linejoin="round"/>
<circle cx="17" cy="5" r="3" fill="#E91135"/>
<path d="M3.37012 17.91H20.6301" stroke="#00004A" stroke-width="1.5" stroke-linecap="round" stroke-linejoin="round"/>
<path d="M15.2705 17.91C15.2538 18.322 15.1558 18.7267 14.9822 19.1008C14.8087 19.4748 14.5629 19.8109 14.259 20.0897C13.9551 20.3684 13.5992 20.5844 13.2116 20.7252C12.824 20.866 12.4124 20.9288 12.0005 20.91C11.5885 20.9288 11.1769 20.866 10.7893 20.7252C10.4017 20.5844 10.0458 20.3684 9.74193 20.0897C9.43806 19.8109 9.19228 19.4748 9.0187 19.1008C8.84512 18.7267 8.74717 18.322 8.73047 17.91" stroke="#00004A" stroke-width="1.5" stroke-linecap="round" stroke-linejoin="round"/>
</svg>
