<svg width="162" height="235" viewBox="0 0 162 235" fill="none" xmlns="http://www.w3.org/2000/svg">
<path opacity="0.7" d="M96.9809 234C96.9809 234 81.2829 188.361 96.9809 170.975C112.679 153.589 170.312 143.157 170.312 143.157" stroke="white"/>
<path opacity="0.5" d="M86.5575 233.974C86.5575 233.974 18.6958 129.27 203.277 85.2029" stroke="white"/>
<path opacity="0.3" d="M65.7106 233.54C65.7106 233.54 12.2578 146.212 56.2591 106.062C100.26 65.9129 181.816 38.1042 181.816 38.1042" stroke="white"/>
<path d="M110.123 233.54C110.123 233.54 96.0746 168.342 161.546 177.93" stroke="white"/>
<path opacity="0.1" d="M41.7175 220.091C41.7175 220.091 -31.8958 126.697 24.3865 80.043C80.6689 33.3895 159.734 0.999998 159.734 0.999998" stroke="white"/>
</svg>
