<svg width="150" height="228" viewBox="0 0 150 228" fill="none" xmlns="http://www.w3.org/2000/svg">
<path opacity="0.7" d="M90.3025 226.933C90.3025 226.933 75.6857 182.626 90.3025 165.747C104.919 148.868 158.583 138.741 158.583 138.741" stroke="#C761DA"/>
<path opacity="0.5" d="M80.5953 226.908C80.5953 226.908 17.4073 125.259 189.277 82.4772" stroke="#C761DA"/>
<path opacity="0.3" d="M61.1853 226.486C61.1853 226.486 11.4139 141.706 52.3848 102.728C93.3557 63.75 169.295 36.7527 169.295 36.7527" stroke="#C761DA"/>
<path d="M102.539 226.486C102.539 226.486 89.4578 163.19 150.42 172.498" stroke="#C761DA"/>
<path opacity="0.1" d="M38.8443 213.43C38.8443 213.43 -29.6991 122.76 22.707 77.4679C75.1131 32.1756 148.733 0.731137 148.733 0.731137" stroke="#C761DA"/>
</svg>
