<svg width="20" height="20" viewBox="0 0 20 20" fill="none" xmlns="http://www.w3.org/2000/svg">
<path d="M15.0004 5.96602C14.948 5.95768 14.8945 5.95768 14.8421 5.96602C14.2859 5.9459 13.7594 5.71036 13.3737 5.30915C12.9881 4.90795 12.7735 4.37252 12.7754 3.81602C12.7754 2.62435 13.7337 1.66602 14.9254 1.66602C15.4956 1.66602 16.0425 1.89253 16.4457 2.29574C16.8489 2.69894 17.0754 3.2458 17.0754 3.81602C17.0739 4.37291 16.8571 4.90765 16.4703 5.30836C16.0836 5.70907 15.5569 5.94472 15.0004 5.96602V5.96602Z" stroke="#54586F" stroke-width="1.2" stroke-linecap="round" stroke-linejoin="round"/>
<path d="M14.1422 12.0328C15.2839 12.2245 16.5422 12.0245 17.4255 11.4328C18.6005 10.6495 18.6005 9.36615 17.4255 8.58281C16.5339 7.99115 15.2589 7.79115 14.1172 7.99115" stroke="#54586F" stroke-width="1.2" stroke-linecap="round" stroke-linejoin="round"/>
<path d="M4.97539 5.96602C5.02539 5.95768 5.08372 5.95768 5.13372 5.96602C5.68986 5.9459 6.2164 5.71036 6.60205 5.30915C6.98771 4.90795 7.20227 4.37252 7.20039 3.81602C7.20039 2.62435 6.24206 1.66602 5.05039 1.66602C4.48018 1.66602 3.93331 1.89253 3.53011 2.29574C3.12691 2.69894 2.90039 3.2458 2.90039 3.81602C2.90872 4.98268 3.82539 5.92435 4.97539 5.96602Z" stroke="#54586F" stroke-width="1.2" stroke-linecap="round" stroke-linejoin="round"/>
<path d="M5.83353 12.0328C4.69186 12.2245 3.43353 12.0245 2.5502 11.4328C1.3752 10.6495 1.3752 9.36615 2.5502 8.58281C3.44186 7.99115 4.71686 7.79115 5.85853 7.99115" stroke="#54586F" stroke-width="1.2" stroke-linecap="round" stroke-linejoin="round"/>
<path d="M10.0004 12.1906C9.94795 12.1823 9.89452 12.1823 9.84207 12.1906C9.28593 12.1705 8.7594 11.935 8.37374 11.5338C7.98809 11.1326 7.77353 10.5971 7.7754 10.0406C7.7754 8.84896 8.73374 7.89062 9.9254 7.89062C10.4956 7.89062 11.0425 8.11714 11.4457 8.52035C11.8489 8.92355 12.0754 9.47041 12.0754 10.0406C12.0671 11.2073 11.1504 12.1573 10.0004 12.1906Z" stroke="#54586F" stroke-width="1.2" stroke-linecap="round" stroke-linejoin="round"/>
<path d="M7.57559 14.8158C6.40059 15.5992 6.40059 16.8825 7.57559 17.6658C8.90892 18.5575 11.0923 18.5575 12.4256 17.6658C13.6006 16.8825 13.6006 15.5992 12.4256 14.8158C11.1006 13.9325 8.90892 13.9325 7.57559 14.8158Z" stroke="#54586F" stroke-width="1.2" stroke-linecap="round" stroke-linejoin="round"/>
</svg>
