<svg width="64" height="64" viewBox="0 0 64 64" fill="none" xmlns="http://www.w3.org/2000/svg">
<mask id="mask0_1160_3511" style="mask-type:alpha" maskUnits="userSpaceOnUse" x="0" y="0" width="64" height="64">
<circle cx="32" cy="32" r="32" fill="#FF9A9A"/>
</mask>
<g mask="url(#mask0_1160_3511)">
<circle opacity="0.4" cx="32" cy="32" r="32" fill="#FF9A9A"/>
<ellipse cx="32.0004" cy="68" rx="41.6" ry="28" fill="#FEB5B5"/>
</g>
<rect x="47.6289" y="51.1676" width="31.259" height="37.5767" rx="3" transform="rotate(-180 47.6289 51.1676)" fill="#AC3113"/>
<path d="M38.5533 41.9709C38.001 41.9709 37.5533 42.4186 37.5533 42.9709L37.5533 48.3853L19.1049 48.3853C18.5526 48.3853 18.1049 47.9375 18.1049 47.3853L18.1049 17.3731C18.1049 16.8209 18.5526 16.3731 19.1049 16.3731L43.0361 16.3731C43.5884 16.3731 44.0361 16.8209 44.0361 17.3731L44.0361 41.9709L38.5533 41.9709Z" fill="#8D250C"/>
<path d="M39.3998 41.9792C38.8475 41.9792 38.3998 42.427 38.3998 42.9792L38.3998 48.3992L21.1998 48.3992C20.0952 48.3992 19.1998 47.5037 19.1998 46.3992L19.1998 18.3593C19.1998 17.2548 20.0952 16.3593 21.1998 16.3593L42.7998 16.3593C43.9044 16.3593 44.7998 17.2548 44.7998 18.3593L44.7998 41.9792L39.3998 41.9792Z" fill="white"/>
<path d="M31.0956 29.9614C32.2893 29.9614 33.4342 29.4872 34.2783 28.6431C35.1223 27.799 35.5965 26.6542 35.5965 25.4605C35.5965 24.2668 35.1223 23.122 34.2783 22.2779C33.4342 21.4338 32.2893 20.9596 31.0956 20.9596C29.9019 20.9596 28.7571 21.4338 27.913 22.2779C27.0689 23.122 26.5947 24.2668 26.5947 25.4605C26.5947 26.6542 27.0689 27.799 27.913 28.6431C28.7571 29.4872 29.9019 29.9614 31.0956 29.9614Z" fill="#FFD9D9"/>
<path d="M31.0957 32.2118C26.5858 32.2118 22.9131 35.2364 22.9131 38.9632C22.9131 39.2152 23.1111 39.4132 23.3632 39.4132H38.8283C39.0803 39.4132 39.2784 39.2152 39.2784 38.9632C39.2784 35.2364 35.6056 32.2118 31.0957 32.2118Z" fill="#FFD9D9"/>
<path d="M40.7764 37.6967L40.0465 36.9668C40.4306 36.3906 40.6515 35.6991 40.6515 34.9597C40.6515 34.2341 40.4364 33.5248 40.0332 32.9215C39.6301 32.3183 39.0572 31.8481 38.3869 31.5704C37.7165 31.2927 36.9789 31.2201 36.2673 31.3616C35.5557 31.5032 34.902 31.8526 34.3889 32.3656C33.8759 32.8787 33.5265 33.5323 33.3849 34.244C33.2434 34.9556 33.316 35.6932 33.5937 36.3635C33.8714 37.0339 34.3416 37.6068 34.9449 38.0099C35.5481 38.413 36.2574 38.6282 36.983 38.6282C37.7224 38.6282 38.4139 38.4073 38.9901 38.0232L39.72 38.753C39.864 38.8971 40.0561 38.9739 40.2482 38.9739C40.4402 38.9739 40.6323 38.8971 40.7764 38.753C41.0741 38.4553 41.0741 37.9848 40.7764 37.6967Z" fill="#ED6851"/>
<circle cx="36.9853" cy="34.9658" r="2.4316" fill="white"/>
<path d="M44.8117 41.9684L38.3867 48.3715V42.9684C38.3867 42.4161 38.8344 41.9684 39.3867 41.9684H44.8117Z" fill="#DFCBCB"/>
<rect x="26.4004" y="12.8324" width="11.2" height="4.46872" rx="2" fill="#80250F"/>
</svg>
