<svg width="24" height="18" viewBox="0 0 24 18" fill="none" xmlns="http://www.w3.org/2000/svg">
<rect x="9.82001" y="17.0396" width="9.81958" height="10.0232" rx="4.90979" transform="rotate(-180 9.82001 17.0396)" fill="#FF7867"/>
<path d="M2.84821 1.23669L0.232597 10.4204L5.07672 8.51969L6.16615 1.98321C6.33917 0.945095 5.53863 8.29697e-05 4.4862 8.29697e-05C3.72525 8.29697e-05 3.05664 0.504857 2.84821 1.23669Z" fill="#FF7867"/>
<rect x="23.7686" y="17.0396" width="9.81958" height="10.0232" rx="4.90979" transform="rotate(-180 23.7686 17.0396)" fill="#FF7867"/>
<path d="M16.7973 1.23669L14.1817 10.4204L19.0258 8.51969L20.1152 1.98321C20.2883 0.945095 19.4877 8.29697e-05 18.4353 8.29697e-05C17.6744 8.29697e-05 17.0057 0.504857 16.7973 1.23669Z" fill="#FF7867"/>
</svg>
