<svg width="100" height="100" viewBox="0 0 100 100" fill="none" xmlns="http://www.w3.org/2000/svg">
<mask id="mask0_967_170" style="mask-type:alpha" maskUnits="userSpaceOnUse" x="0" y="0" width="100" height="100">
<circle cx="50" cy="50" r="50" fill="#FFCF9A"/>
</mask>
<g mask="url(#mask0_967_170)">
<circle opacity="0.4" cx="50" cy="50" r="50" fill="#FFCF9A"/>
<ellipse cx="50" cy="106.25" rx="65" ry="43.75" fill="#FFDDB8"/>
</g>
<rect x="80.0003" y="26.8751" width="50" height="60" rx="4" transform="rotate(90 80.0003 26.8751)" fill="#D68808"/>
<rect x="80.0003" y="28.0328" width="48.8422" height="58.7136" rx="4" transform="rotate(90 80.0003 28.0328)" fill="#C67B00"/>
<rect x="76.9656" y="34.0234" width="40" height="50.0623" rx="2" transform="rotate(90 76.9656 34.0234)" fill="#AA6B03"/>
<rect x="75.0321" y="31.875" width="40" height="50.0623" rx="2" transform="rotate(90 75.0321 31.875)" fill="#FFDF8E"/>
<rect x="30.0003" y="23.125" width="5" height="7.5" rx="1" fill="#AA6B03"/>
<rect x="65.0003" y="23.125" width="5" height="7.5" rx="1" fill="#AA6B03"/>
<circle cx="50.0003" cy="51.8751" r="15" fill="white"/>
<path d="M44.3611 50.6888C44.0682 50.3959 43.5933 50.3959 43.3004 50.6888C43.0075 50.9817 43.0075 51.4565 43.3004 51.7494L44.3611 50.6888ZM43.3004 51.7494L47.7782 56.2278L48.8389 55.1672L44.3611 50.6888L43.3004 51.7494Z" fill="#60BD90"/>
<path d="M56.1693 47.9805L48.3802 55.7696" stroke="#60BD90" stroke-width="1.5" stroke-linecap="round"/>
</svg>
