<svg width="170" height="170" viewBox="0 0 170 170" fill="none" xmlns="http://www.w3.org/2000/svg">
<circle cx="85" cy="85" r="85" fill="#FFF7EB"/>
<path d="M149.168 120.389C148.131 116.686 143.465 117.082 143.465 117.082L143.594 119.595C146.317 119.066 148.002 122.373 148.002 122.373L149.168 120.389Z" fill="#CF8A29"/>
<path d="M33.9648 104.263C32.9278 100.56 28.2612 100.957 28.2612 100.957L28.3909 103.469C31.113 102.94 32.7981 106.247 32.7981 106.247L33.9648 104.263Z" fill="#EDBA6A"/>
<path d="M86.1683 43.5606C91.483 45.2799 94.8532 38.9317 94.8532 38.9317L91.6126 37.0801C90.0571 40.9155 84.6128 40.5188 84.6128 40.5188L86.1683 43.5606Z" fill="#EDBA6A"/>
<path d="M58.8518 59C56.3889 59.2645 56 62.4386 56 62.4386L57.6851 62.7031C57.6851 60.8516 60.0184 60.058 60.0184 60.058L58.8518 59Z" fill="#EDBA6A"/>
<path d="M159.41 73.7147C159.798 71.2019 156.817 70.1439 156.817 70.1439L156.169 71.7309C157.984 72.2599 158.113 74.6405 158.113 74.6405L159.41 73.7147Z" fill="#EDBA6A"/>
<path d="M66.0951 26.5709C66.484 24.058 63.5026 23 63.5026 23L62.8545 24.5871C64.6693 25.1161 64.7989 27.4967 64.7989 27.4967L66.0951 26.5709Z" fill="#CF8A29"/>
<path d="M11.0213 68.2899C10.6325 72.2575 15.6879 73.1833 15.6879 73.1833L16.5952 70.5382C13.4842 70.2737 13.0953 66.5706 13.0953 66.5706L11.0213 68.2899Z" fill="#CF8A29"/>
<path d="M124.15 37.4284C126.613 37.5606 127.52 34.5188 127.52 34.5188L125.965 33.9897C125.706 35.8413 123.243 36.2381 123.243 36.2381L124.15 37.4284Z" fill="#CF8A29"/>
<path d="M137.891 93.8765C137.891 94.0088 136.984 94.141 135.817 94.141C134.651 94.141 133.743 94.0088 133.743 93.8765C133.743 93.7443 134.651 93.612 135.817 93.612C136.854 93.612 137.891 93.7443 137.891 93.8765Z" fill="#CD8E37"/>
<path d="M140.096 88.1895C140.225 88.1895 140.355 89.1153 140.355 90.3056C140.355 91.4959 140.225 92.4217 140.096 92.4217C139.966 92.4217 139.836 91.4959 139.836 90.3056C139.836 89.1153 139.966 88.1895 140.096 88.1895Z" fill="#CD8E37"/>
<path d="M142.427 93.7442C142.427 93.612 143.335 93.4797 144.501 93.4797C145.668 93.4797 146.575 93.612 146.575 93.7442C146.575 93.8765 145.668 94.0088 144.501 94.0088C143.335 94.0088 142.427 93.8765 142.427 93.7442Z" fill="#CD8E37"/>
<path d="M140.223 99.5635C140.093 99.5635 139.964 98.6377 139.964 97.4474C139.964 96.2571 140.093 95.3314 140.223 95.3314C140.353 95.3314 140.482 96.2571 140.482 97.4474C140.353 98.5055 140.353 99.5635 140.223 99.5635Z" fill="#CD8E37"/>
<path d="M143.594 97.0506C143.465 97.1829 143.076 96.7861 142.687 96.2571C142.298 95.7281 142.039 95.3313 142.168 95.199C142.298 95.0668 142.687 95.4635 143.076 95.9926C143.335 96.5216 143.594 96.9183 143.594 97.0506Z" fill="#CD8E37"/>
<path d="M143.335 90.5701C143.464 90.7024 143.076 91.0992 142.687 91.4959C142.298 91.8927 141.909 92.1572 141.779 92.1572C141.65 92.0249 142.039 91.6282 142.427 91.2314C142.816 90.7024 143.205 90.4379 143.335 90.5701Z" fill="#CD8E37"/>
<path d="M138.539 92.1572C138.41 92.2895 138.021 92.025 137.632 91.7605C137.243 91.3637 136.984 91.0992 136.984 90.9669C137.114 90.8347 137.502 91.0992 137.891 91.3637C138.41 91.7605 138.669 92.025 138.539 92.1572Z" fill="#CD8E37"/>
<path d="M138.408 95.0669C138.538 95.1992 138.279 95.5959 137.89 95.9927C137.501 96.3895 137.112 96.654 136.982 96.654C136.853 96.5217 137.112 96.1249 137.501 95.7282C137.89 95.1992 138.279 94.9347 138.408 95.0669Z" fill="#CD8E37"/>
<path d="M40.148 42.8192C40.148 42.9514 39.2406 43.0837 38.074 43.0837C36.9074 43.0837 36 42.9514 36 42.8192C36 42.6869 36.9074 42.5547 38.074 42.5547C39.111 42.5547 40.148 42.6869 40.148 42.8192Z" fill="#CF8A29"/>
<path d="M42.2212 37C42.3508 37 42.4804 37.9258 42.4804 39.1161C42.4804 40.3064 42.3508 41.2322 42.2212 41.2322C42.0915 41.2322 41.9619 40.3064 41.9619 39.1161C42.0915 38.058 42.2212 37 42.2212 37Z" fill="#CF8A29"/>
<path d="M44.6836 42.6868C44.6836 42.5546 45.591 42.4223 46.7576 42.4223C47.9242 42.4223 48.8316 42.5546 48.8316 42.6868C48.8316 42.8191 47.9242 42.9513 46.7576 42.9513C45.591 42.8191 44.6836 42.8191 44.6836 42.6868Z" fill="#CF8A29"/>
<path d="M42.4795 48.3738C42.3498 48.3738 42.2202 47.448 42.2202 46.2577C42.2202 45.0674 42.3498 44.1417 42.4795 44.1417C42.6091 44.1417 42.7387 45.0674 42.7387 46.2577C42.6091 47.448 42.4795 48.3738 42.4795 48.3738Z" fill="#CF8A29"/>
<path d="M45.7213 45.9933C45.5917 46.1255 45.2028 45.7288 44.8139 45.1998C44.4251 44.6707 44.1658 44.274 44.2954 44.1417C44.4251 44.0095 44.8139 44.4062 45.2028 44.9353C45.5917 45.4643 45.8509 45.861 45.7213 45.9933Z" fill="#CF8A29"/>
<path d="M45.5907 39.3806C45.7203 39.5129 45.3314 39.9096 44.9426 40.3064C44.5537 40.7032 44.1648 40.9677 44.0352 40.9677C43.9056 40.8354 44.2944 40.4387 44.6833 40.0419C45.0722 39.6451 45.4611 39.3806 45.5907 39.3806Z" fill="#CF8A29"/>
<path d="M40.7948 41.0999C40.6651 41.2322 40.2763 40.9677 39.8874 40.7032C39.4985 40.3064 39.2393 40.0419 39.2393 39.9096C39.3689 39.7774 39.7578 40.0419 40.1466 40.3064C40.6651 40.7032 40.9244 40.9677 40.7948 41.0999Z" fill="#CF8A29"/>
<path d="M40.6652 44.0095C40.7948 44.1417 40.5355 44.5385 40.1467 44.9353C39.7578 45.332 39.3689 45.5965 39.2393 45.5965C39.1097 45.4643 39.3689 45.0675 39.7578 44.6707C40.1467 44.1417 40.5355 43.8772 40.6652 44.0095Z" fill="#CF8A29"/>
<path d="M98.1655 88.2152H79.0448C78.0483 88.2152 77.1751 87.5487 76.9124 86.5875C76.6497 85.6264 77.0625 84.6083 77.9202 84.1012C86.251 79.1786 90.5784 73.4363 91.1491 66.5463C91.3481 64.1552 93.4779 62.2452 95.8955 62.2768C98.3624 62.3162 100.674 63.3051 102.405 65.0615C104.137 66.8195 105.091 69.1475 105.092 71.6165C105.092 71.6168 105.092 71.6171 105.092 71.6174V72.3601C105.092 78.3913 103.306 82.2368 100.01 87.2233C99.6001 87.8428 98.9077 88.2152 98.1655 88.2152Z" fill="#FFB494"/>
<path d="M121.598 90.7207C121.598 86.9013 118.491 83.7939 114.671 83.7939H79.0444C78.6485 83.7939 78.2599 83.9002 77.9193 84.1017C75.4184 85.5804 72.8933 86.7976 70.8643 87.776C70.1566 88.1171 69.4882 88.4394 68.8802 88.7434C68.1313 89.1179 67.6582 89.8832 67.6582 90.7207V119.017C67.6582 119.855 68.1313 120.62 68.8802 120.994C77.8127 125.46 85.2378 126 93.8964 126C95.2372 126 96.6085 125.987 98.0186 125.974C99.5782 125.959 101.191 125.944 102.881 125.944H109.87C113.689 125.944 116.797 122.837 116.797 119.017C116.797 117.733 116.445 116.529 115.834 115.497C117.824 114.279 119.155 112.085 119.155 109.585C119.155 108.301 118.803 107.097 118.192 106.065C120.182 104.847 121.513 102.652 121.513 100.153C121.513 98.3563 120.825 96.7175 119.7 95.4855C120.925 94.1938 121.598 92.509 121.598 90.7207Z" fill="#FFB494"/>
<path d="M62.6181 114.329V125.972H58.1968V114.329C58.1968 113.109 59.1872 112.118 60.4074 112.118C61.6276 112.118 62.6181 113.109 62.6181 114.329Z" fill="#73C3FF"/>
<path d="M62.6181 114.329V125.972H58.1968V114.329C58.1968 113.109 59.1872 112.118 60.4074 112.118C61.6276 112.118 62.6181 113.109 62.6181 114.329Z" fill="#73C3FF"/>
<path d="M69.8396 83.7939H50.9753C49.7551 83.7939 48.7646 84.7844 48.7646 86.0046V123.733C48.7646 124.955 49.7551 125.944 50.9753 125.972H65.1235C67.8337 125.944 70.1844 124.38 71.3207 122.107C71.7879 121.177 72.0502 120.127 72.0502 119.017V86.0046C72.0502 84.7842 71.0598 83.7939 69.8396 83.7939Z" fill="#6E3A11"/>
<path d="M62.6181 114.182V125.972H58.1968V114.182C58.1968 112.961 59.1872 111.971 60.4074 111.971C61.6276 111.971 62.6181 112.961 62.6181 114.182Z" fill="#BE7841"/>
<path d="M122.823 71.6465C128.248 71.6465 132.646 67.2485 132.646 61.8232C132.646 56.398 128.248 52 122.823 52C117.398 52 113 56.398 113 61.8232C113 67.2485 117.398 71.6465 122.823 71.6465Z" fill="#72A142"/>
<path d="M119.172 61.7521L122.028 64.5196L127.12 58.3868" stroke="white" stroke-width="1.5" stroke-linecap="round" stroke-linejoin="round"/>
</svg>
