<svg width="39" height="39" viewBox="0 0 39 39" fill="none" xmlns="http://www.w3.org/2000/svg">
<path d="M8.125 35.75H30.875C32.6674 35.75 34.125 34.2924 34.125 32.5V8.125C34.125 6.33262 32.6674 4.875 30.875 4.875H27.625C27.625 4.44402 27.4538 4.0307 27.149 3.72595C26.8443 3.4212 26.431 3.25 26 3.25H13C12.569 3.25 12.1557 3.4212 11.851 3.72595C11.5462 4.0307 11.375 4.44402 11.375 4.875H8.125C6.33262 4.875 4.875 6.33262 4.875 8.125V32.5C4.875 34.2924 6.33262 35.75 8.125 35.75ZM8.125 8.125H11.375V11.375H27.625V8.125H30.875V32.5H8.125V8.125Z" fill="#FB6C37"/>
<path d="M17.8754 22.0777L14.9618 19.1641L12.6641 21.4618L17.8754 26.6732L26.3368 18.2118L24.0391 15.9141L17.8754 22.0777Z" fill="#FB6C37"/>
</svg>
