<svg width="1045" height="153" viewBox="0 0 1045 153" fill="none" xmlns="http://www.w3.org/2000/svg">
<path d="M686.424 97.4153C581.475 106.438 537.746 132.055 529 153H1045V9.60767C1018.76 2.3575 948.797 -7.79275 878.831 9.60767C791.373 31.3582 817.61 86.1373 686.424 97.4153Z" fill="#EEF0FB"/>
<path fill-rule="evenodd" clip-rule="evenodd" d="M1015.69 55.2386C1015.69 58.2635 1014.75 61.0681 1013.14 63.3743C1017.58 66.8491 1020.44 72.2595 1020.44 78.3367C1020.44 82.2511 1019.25 85.8887 1017.22 88.9107C1023.04 93.5487 1026.77 100.695 1026.77 108.713C1026.77 122.693 1015.43 134.026 1001.45 134.026C987.475 134.026 976.142 122.693 976.142 108.713C976.142 100.695 979.869 93.5488 985.685 88.9108C983.654 85.8888 982.47 82.2511 982.47 78.3367C982.47 72.2596 985.325 66.8493 989.768 63.3745C988.159 61.0683 987.216 58.2636 987.216 55.2386C987.216 47.3749 993.591 41 1001.45 41C1009.32 41 1015.69 47.3749 1015.69 55.2386Z" fill="#DEE3FA"/>
<mask id="mask0_67_416" style="mask-type:alpha" maskUnits="userSpaceOnUse" x="976" y="41" width="51" height="94">
<path fill-rule="evenodd" clip-rule="evenodd" d="M1015.69 55.2386C1015.69 58.2635 1014.75 61.0681 1013.14 63.3743C1017.58 66.8491 1020.44 72.2595 1020.44 78.3367C1020.44 82.2511 1019.25 85.8887 1017.22 88.9107C1023.04 93.5487 1026.77 100.695 1026.77 108.713C1026.77 122.693 1015.43 134.026 1001.45 134.026C987.475 134.026 976.142 122.693 976.142 108.713C976.142 100.695 979.869 93.5488 985.685 88.9108C983.654 85.8888 982.47 82.2511 982.47 78.3367C982.47 72.2596 985.325 66.8493 989.768 63.3745C988.159 61.0683 987.216 58.2636 987.216 55.2386C987.216 47.3749 993.591 41 1001.45 41C1009.32 41 1015.69 47.3749 1015.69 55.2386Z" fill="white"/>
</mask>
<g mask="url(#mask0_67_416)">
<path d="M1001.46 55.2387V160.333" stroke="#C6CDEA" stroke-width="2.58758" stroke-linecap="round" stroke-linejoin="round"/>
<path d="M1010.51 71.7108L1001.46 81.1005" stroke="#C6CDEA" stroke-width="2.58758" stroke-linecap="round" stroke-linejoin="round"/>
<path d="M1012.34 99.3416L1001.46 109.561" stroke="#C6CDEA" stroke-width="2.58758" stroke-linecap="round" stroke-linejoin="round"/>
<path d="M990.799 78.3368L1001.31 88.6339" stroke="#C6CDEA" stroke-width="2.58758" stroke-linecap="round" stroke-linejoin="round"/>
</g>
<path d="M1001.46 55.2386V152.655" stroke="#C6CDEA" stroke-width="2" stroke-linecap="round" stroke-linejoin="round"/>
<path fill-rule="evenodd" clip-rule="evenodd" d="M942.952 86.2735C942.952 88.3348 942.309 90.246 941.213 91.8175C944.24 94.1854 946.186 97.872 946.186 102.013C946.186 104.68 945.378 107.159 943.995 109.218C947.958 112.379 950.498 117.249 950.498 122.712C950.498 132.238 942.775 139.96 933.249 139.96C923.723 139.96 916 132.238 916 122.712C916 117.249 918.54 112.379 922.503 109.218C921.119 107.159 920.312 104.68 920.312 102.013C920.312 97.8718 922.258 94.1851 925.285 91.8172C924.189 90.2458 923.547 88.3347 923.547 86.2735C923.547 80.9149 927.891 76.571 933.249 76.571C938.608 76.571 942.952 80.9149 942.952 86.2735Z" fill="#DEE3FA"/>
<mask id="mask1_67_416" style="mask-type:alpha" maskUnits="userSpaceOnUse" x="916" y="76" width="35" height="64">
<path fill-rule="evenodd" clip-rule="evenodd" d="M942.952 86.2735C942.952 88.3348 942.309 90.246 941.213 91.8175C944.24 94.1854 946.186 97.872 946.186 102.013C946.186 104.68 945.378 107.159 943.995 109.218C947.958 112.379 950.498 117.249 950.498 122.712C950.498 132.238 942.775 139.96 933.249 139.96C923.723 139.96 916 132.238 916 122.712C916 117.249 918.54 112.379 922.503 109.218C921.119 107.159 920.312 104.68 920.312 102.013C920.312 97.8718 922.258 94.1851 925.285 91.8172C924.189 90.2458 923.547 88.3347 923.547 86.2735C923.547 80.9149 927.891 76.571 933.249 76.571C938.608 76.571 942.952 80.9149 942.952 86.2735Z" fill="white"/>
</mask>
<g mask="url(#mask1_67_416)">
<path d="M933.249 86.2735V157.887" stroke="#C6CDEA" stroke-width="1.76323" stroke-linecap="round" stroke-linejoin="round"/>
<path d="M939.421 97.4979L933.249 103.896" stroke="#C6CDEA" stroke-width="1.76323" stroke-linecap="round" stroke-linejoin="round"/>
<path d="M940.669 116.326L933.249 123.29" stroke="#C6CDEA" stroke-width="1.76323" stroke-linecap="round" stroke-linejoin="round"/>
<path d="M925.986 102.013L933.146 109.03" stroke="#C6CDEA" stroke-width="1.76323" stroke-linecap="round" stroke-linejoin="round"/>
</g>
<path d="M933.249 86.2734V152.655" stroke="#C6CDEA" stroke-width="1.76323" stroke-linecap="round" stroke-linejoin="round"/>
<path d="M358.576 97.4153C463.525 106.438 507.254 132.055 516 153H0V9.60767C26.2373 2.3575 96.2034 -7.79275 166.169 9.60767C253.627 31.3582 227.39 86.1373 358.576 97.4153Z" fill="#EEF0FB"/>
<path fill-rule="evenodd" clip-rule="evenodd" d="M29.3139 55.2386C29.3139 58.2635 30.2572 61.0681 31.8656 63.3743C27.423 66.8491 24.5675 72.2594 24.5675 78.3367C24.5675 82.251 25.7521 85.8887 27.7825 88.9107C21.9663 93.5486 18.2391 100.695 18.2391 108.713C18.2391 122.693 29.5722 134.026 43.5522 134.026C57.5322 134.026 68.8652 122.693 68.8652 108.713C68.8652 100.695 65.1381 93.5487 59.3221 88.9108C61.3524 85.8888 62.5371 82.2511 62.5371 78.3367C62.5371 72.2596 59.6816 66.8493 55.2393 63.3745C56.8478 61.0682 57.7911 58.2636 57.7911 55.2386C57.7911 47.3748 51.4162 41 43.5525 41C35.6887 41 29.3139 47.3748 29.3139 55.2386Z" fill="#DEE3FA"/>
<mask id="mask2_67_416" style="mask-type:alpha" maskUnits="userSpaceOnUse" x="18" y="41" width="51" height="94">
<path fill-rule="evenodd" clip-rule="evenodd" d="M29.3139 55.2386C29.3139 58.2635 30.2572 61.0681 31.8656 63.3743C27.423 66.8491 24.5675 72.2594 24.5675 78.3367C24.5675 82.251 25.7521 85.8887 27.7825 88.9107C21.9663 93.5486 18.2391 100.695 18.2391 108.713C18.2391 122.693 29.5722 134.026 43.5522 134.026C57.5322 134.026 68.8652 122.693 68.8652 108.713C68.8652 100.695 65.1381 93.5487 59.3221 88.9108C61.3524 85.8888 62.5371 82.2511 62.5371 78.3367C62.5371 72.2596 59.6816 66.8493 55.2393 63.3745C56.8478 61.0682 57.7911 58.2636 57.7911 55.2386C57.7911 47.3748 51.4162 41 43.5525 41C35.6887 41 29.3139 47.3748 29.3139 55.2386Z" fill="white"/>
</mask>
<g mask="url(#mask2_67_416)">
<path d="M43.5518 55.2386V160.333" stroke="#C6CDEA" stroke-width="2.58758" stroke-linecap="round" stroke-linejoin="round"/>
<path d="M34.4936 71.7108L43.5518 81.1005" stroke="#C6CDEA" stroke-width="2.58758" stroke-linecap="round" stroke-linejoin="round"/>
<path d="M32.6628 99.3416L43.5518 109.561" stroke="#C6CDEA" stroke-width="2.58758" stroke-linecap="round" stroke-linejoin="round"/>
<path d="M54.2077 78.3368L43.7002 88.6339" stroke="#C6CDEA" stroke-width="2.58758" stroke-linecap="round" stroke-linejoin="round"/>
</g>
<path d="M43.5518 55.2386V152.655" stroke="#C6CDEA" stroke-width="2" stroke-linecap="round" stroke-linejoin="round"/>
<path fill-rule="evenodd" clip-rule="evenodd" d="M102.056 86.2734C102.056 88.3348 102.699 90.246 103.795 91.8175C100.768 94.1853 98.8223 97.872 98.8223 102.013C98.8223 104.68 99.6295 107.159 101.013 109.218C97.0498 112.379 94.5101 117.249 94.5101 122.712C94.5101 132.238 102.233 139.96 111.759 139.96C121.285 139.96 129.008 132.238 129.008 122.712C129.008 117.249 126.468 112.379 122.505 109.218C123.888 107.159 124.696 104.68 124.696 102.013C124.696 97.8718 122.75 94.185 119.722 91.8172C120.818 90.2457 121.461 88.3346 121.461 86.2734C121.461 80.9149 117.117 76.571 111.759 76.571C106.4 76.571 102.056 80.9149 102.056 86.2734Z" fill="#DEE3FA"/>
<mask id="mask3_67_416" style="mask-type:alpha" maskUnits="userSpaceOnUse" x="94" y="76" width="36" height="64">
<path fill-rule="evenodd" clip-rule="evenodd" d="M102.056 86.2734C102.056 88.3348 102.699 90.246 103.795 91.8175C100.768 94.1853 98.8223 97.872 98.8223 102.013C98.8223 104.68 99.6295 107.159 101.013 109.218C97.0498 112.379 94.5101 117.249 94.5101 122.712C94.5101 132.238 102.233 139.96 111.759 139.96C121.285 139.96 129.008 132.238 129.008 122.712C129.008 117.249 126.468 112.379 122.505 109.218C123.888 107.159 124.696 104.68 124.696 102.013C124.696 97.8718 122.75 94.185 119.722 91.8172C120.818 90.2457 121.461 88.3346 121.461 86.2734C121.461 80.9149 117.117 76.571 111.759 76.571C106.4 76.571 102.056 80.9149 102.056 86.2734Z" fill="white"/>
</mask>
<g mask="url(#mask3_67_416)">
<path d="M111.758 86.2735V157.887" stroke="#C6CDEA" stroke-width="1.76323" stroke-linecap="round" stroke-linejoin="round"/>
<path d="M105.585 97.498L111.758 103.896" stroke="#C6CDEA" stroke-width="1.76323" stroke-linecap="round" stroke-linejoin="round"/>
<path d="M104.338 116.326L111.758 123.29" stroke="#C6CDEA" stroke-width="1.76323" stroke-linecap="round" stroke-linejoin="round"/>
<path d="M119.02 102.013L111.86 109.03" stroke="#C6CDEA" stroke-width="1.76323" stroke-linecap="round" stroke-linejoin="round"/>
</g>
<path d="M111.759 86.2734V152.655" stroke="#C6CDEA" stroke-width="1.76323" stroke-linecap="round" stroke-linejoin="round"/>
</svg>
