<svg width="24" height="24" viewBox="0 0 24 24" fill="none" xmlns="http://www.w3.org/2000/svg">
<path d="M23 15.3V8.7C23 3.2 20.8 1 15.3 1H8.7C3.2 1 1 3.2 1 8.7V15.3C1 20.8 3.2 23 8.7 23H15.3C20.8 23 23 20.8 23 15.3Z" stroke="#7C53D6" stroke-width="1.5" stroke-linecap="round" stroke-linejoin="round"/>
<path d="M1.57031 6.621H22.4263" stroke="#7C53D6" stroke-width="1.5" stroke-linecap="round" stroke-linejoin="round"/>
<path d="M8.17188 1.121V6.467" stroke="#7C53D6" stroke-width="1.5" stroke-linecap="round" stroke-linejoin="round"/>
<path d="M15.8281 1.121V5.972" stroke="#7C53D6" stroke-width="1.5" stroke-linecap="round" stroke-linejoin="round"/>
<path d="M9.52539 14.695V13.375C9.52539 11.681 10.7244 10.988 12.1874 11.835L13.3314 12.495L14.4754 13.155C15.9384 14.002 15.9384 15.388 14.4754 16.235L13.3314 16.895L12.1874 17.555C10.7244 18.402 9.52539 17.709 9.52539 16.015V14.695V14.695Z" stroke="#7C53D6" stroke-width="1.5" stroke-miterlimit="10" stroke-linecap="round" stroke-linejoin="round"/>
</svg>
