<svg width="18" height="18" viewBox="0 0 18 18" fill="none" xmlns="http://www.w3.org/2000/svg">
<path d="M2.32031 7.05273H15.6883" stroke="#54586F" stroke-width="1.2" stroke-linecap="round" stroke-linejoin="round"/>
<path d="M12.332 9.98242H12.3428" stroke="#54586F" stroke-width="1.2" stroke-linecap="round" stroke-linejoin="round"/>
<path d="M9.00391 9.98242H9.0147" stroke="#54586F" stroke-width="1.2" stroke-linecap="round" stroke-linejoin="round"/>
<path d="M5.66797 9.98242H5.67877" stroke="#54586F" stroke-width="1.2" stroke-linecap="round" stroke-linejoin="round"/>
<path d="M12.332 12.8965H12.3428" stroke="#54586F" stroke-width="1.2" stroke-linecap="round" stroke-linejoin="round"/>
<path d="M9.00391 12.8965H9.0147" stroke="#54586F" stroke-width="1.2" stroke-linecap="round" stroke-linejoin="round"/>
<path d="M5.66797 12.8965H5.67877" stroke="#54586F" stroke-width="1.2" stroke-linecap="round" stroke-linejoin="round"/>
<path d="M12.0332 1.5V3.96825" stroke="#54586F" stroke-width="1.2" stroke-linecap="round" stroke-linejoin="round"/>
<path d="M5.97461 1.5V3.96825" stroke="#54586F" stroke-width="1.2" stroke-linecap="round" stroke-linejoin="round"/>
<path fill-rule="evenodd" clip-rule="evenodd" d="M12.1785 2.68434H5.82825C3.6255 2.68434 2.25 3.90984 2.25 6.16509V12.9526C2.25 15.2438 3.6255 16.4993 5.82825 16.4993H12.1717C14.3812 16.4993 15.75 15.2656 15.75 13.0103V6.16584C15.7575 3.91059 14.388 2.68359 12.1785 2.68359V2.68434Z" stroke="#54586F" stroke-width="1.2" stroke-linecap="round" stroke-linejoin="round"/>
</svg>
