<svg width="20" height="20" viewBox="0 0 20 20" fill="none" xmlns="http://www.w3.org/2000/svg">
<path fill-rule="evenodd" clip-rule="evenodd" d="M14.334 0.75H5.665C2.645 0.75 0.75 2.89 0.75 5.916V14.084C0.75 17.111 2.635 19.25 5.665 19.25H14.333C17.364 19.25 19.25 17.111 19.25 14.084V5.916C19.25 2.89 17.364 0.75 14.334 0.75Z" stroke="#6B6B81" stroke-width="1.5" stroke-linecap="round" stroke-linejoin="round"/>
<path fill-rule="evenodd" clip-rule="evenodd" d="M8.69033 10.0004C8.69033 10.3667 8.58174 10.7247 8.37828 11.0293C8.17482 11.3338 7.88564 11.5712 7.54729 11.7114C7.20894 11.8516 6.83661 11.8883 6.47739 11.8169C6.11816 11.7455 5.78817 11.5693 5.52912 11.3104C5.27007 11.0514 5.09361 10.7215 5.02204 10.3624C4.95046 10.0032 4.987 9.63083 5.12702 9.2924C5.26704 8.95397 5.50426 8.66466 5.80869 8.46104C6.11311 8.25742 6.47108 8.14864 6.83733 8.14844H6.84033C7.33116 8.14897 7.80171 8.34432 8.1486 8.69158C8.49548 9.03884 8.69033 9.5096 8.69033 10.0004V10.0004Z" stroke="#6B6B81" stroke-width="1.5" stroke-linecap="round" stroke-linejoin="round"/>
<path d="M8.69238 10H15.0104V11.852" stroke="#6B6B81" stroke-width="1.5" stroke-linecap="round" stroke-linejoin="round"/>
<path d="M12.1816 11.852V10" stroke="#6B6B81" stroke-width="1.5" stroke-linecap="round" stroke-linejoin="round"/>
</svg>
