<svg width="22" height="22" viewBox="0 0 22 22" fill="none" xmlns="http://www.w3.org/2000/svg">
<path d="M13.2904 13.2083L10.6596 13.7491C10.5207 13.7683 10.3792 13.7554 10.246 13.7114C10.1128 13.6673 9.99155 13.5933 9.89149 13.495C9.79143 13.3968 9.71526 13.2768 9.66884 13.1445C9.62242 13.0121 9.607 12.8709 9.62375 12.7316L10.1738 10.1283C10.2384 9.78227 10.4043 9.46325 10.6504 9.2116L15.6279 4.2341C16.0602 3.80753 16.6431 3.56836 17.2504 3.56836C17.8577 3.56836 18.4406 3.80753 18.8729 4.2341L19.1021 4.47243C19.3155 4.68531 19.4848 4.9382 19.6004 5.21661C19.7159 5.49503 19.7753 5.7935 19.7753 6.09493C19.7753 6.39637 19.7159 6.69484 19.6004 6.97325C19.4848 7.25167 19.3155 7.50456 19.1021 7.71743L14.1246 12.7408C13.8971 12.9734 13.6076 13.1357 13.2904 13.2083V13.2083Z" stroke="#FB6C37" stroke-width="1.5" stroke-linecap="round" stroke-linejoin="round"/>
<path d="M17.8742 9.0475V16.3258C17.8742 16.6268 17.8149 16.9248 17.6997 17.2028C17.5846 17.4809 17.4158 17.7335 17.203 17.9463C16.9902 18.1591 16.7375 18.3279 16.4595 18.4431C16.1815 18.5582 15.8835 18.6175 15.5825 18.6175H7.03002C6.72908 18.6175 6.43108 18.5582 6.15304 18.4431C5.875 18.3279 5.62237 18.1591 5.40957 17.9463C5.19677 17.7335 5.02796 17.4809 4.9128 17.2028C4.79763 16.9248 4.73835 16.6268 4.73835 16.3258V7.81C4.73593 7.50752 4.79342 7.20754 4.90751 6.92739C5.02159 6.64723 5.19001 6.39243 5.40305 6.17768C5.61609 5.96294 5.86954 5.79249 6.14878 5.67618C6.42802 5.55987 6.72753 5.49999 7.03002 5.5H14.2809" stroke="#FB6C37" stroke-width="1.5" stroke-linecap="round" stroke-linejoin="round"/>
</svg>
