<svg width="48" height="48" viewBox="0 0 48 48" fill="none" xmlns="http://www.w3.org/2000/svg">
<mask id="mask0_1778_20661" style="mask-type:alpha" maskUnits="userSpaceOnUse" x="0" y="0" width="48" height="48">
<circle cx="24" cy="24" r="24" fill="#FFCF9A"/>
</mask>
<g mask="url(#mask0_1778_20661)">
<circle cx="24" cy="24" r="24" fill="#FFECD7"/>
<ellipse cx="23.9988" cy="51" rx="31.2" ry="21" fill="#FFDDB8"/>
</g>
<rect x="38.4023" y="12.8965" width="24" height="28.8" rx="4" transform="rotate(90 38.4023 12.8965)" fill="#D68808"/>
<rect x="38.4023" y="13.4531" width="23.4442" height="28.1825" rx="4" transform="rotate(90 38.4023 13.4531)" fill="#C67B00"/>
<rect x="36.9453" y="16.3301" width="19.2" height="24.0299" rx="2" transform="rotate(90 36.9453 16.3301)" fill="#AA6B03"/>
<rect x="36.0176" y="15.2988" width="19.2" height="24.0299" rx="2" transform="rotate(90 36.0176 15.2988)" fill="#FFDF8E"/>
<path d="M33.4653 22.6654H31.2431C30.936 22.6654 30.6875 22.4169 30.6875 22.1098V19.8876C30.6875 19.5805 30.936 19.332 31.2431 19.332H33.4653C33.7724 19.332 34.0208 19.5805 34.0208 19.8876V22.1098C34.0208 22.4169 33.7724 22.6654 33.4653 22.6654Z" fill="#FFF3D5"/>
<path d="M17.4457 22.6654H15.2235C14.9165 22.6654 14.668 22.4169 14.668 22.1098V19.8876C14.668 19.5805 14.9165 19.332 15.2235 19.332H17.4457C17.7528 19.332 18.0013 19.5805 18.0013 19.8876V22.1098C18.0013 22.4169 17.7528 22.6654 17.4457 22.6654Z" fill="#FFF3D5"/>
<path d="M17.5668 30.6751H15.3446C15.0375 30.6751 14.7891 30.4266 14.7891 30.1196V27.8974C14.7891 27.5903 15.0375 27.3418 15.3446 27.3418H17.5668C17.8739 27.3418 18.1224 27.5903 18.1224 27.8974V30.1196C18.1224 30.4266 17.8739 30.6751 17.5668 30.6751Z" fill="#FFF3D5"/>
<path d="M25.7078 19.332H23.4614C23.1571 19.332 22.918 19.5764 22.918 19.8876V22.1098C22.918 22.4209 23.1571 22.6654 23.4614 22.6654H25.7078C26.0122 22.6654 26.2513 22.4209 26.2513 22.1098V19.8876C26.2513 19.5764 26.0122 19.332 25.7078 19.332Z" fill="#FFF3D5"/>
<path d="M25.5906 27.3418H23.3443C23.0399 27.3418 22.8008 27.5862 22.8008 27.8974V30.1196C22.8008 30.4306 23.0399 30.6751 23.3443 30.6751H25.5906C25.895 30.6751 26.1341 30.4306 26.1341 30.1196V27.8974C26.1341 27.5862 25.895 27.3418 25.5906 27.3418Z" fill="#FFF3D5"/>
<path d="M34.4322 27.748C31.5757 27.748 29.252 30.0718 29.252 32.9283C29.252 35.7849 31.5757 38.1086 34.4322 38.1086C37.2888 38.1086 39.6125 35.7849 39.6125 32.9283C39.6125 30.0718 37.2888 27.748 34.4322 27.748Z" fill="#60BD90"/>
<path d="M32.6437 32.2606C32.3508 31.9677 31.876 31.9677 31.5831 32.2606C31.2902 32.5535 31.2901 33.0283 31.583 33.3212L32.6437 32.2606ZM31.583 33.3212L33.2167 34.9551L34.2774 33.8945L32.6437 32.2606L31.583 33.3212Z" fill="white"/>
<path d="M36.6152 31.6094L33.7735 34.4511" stroke="white" stroke-width="1.5" stroke-linecap="round"/>
<rect x="14.4023" y="11.0977" width="2.4" height="3.6" rx="1" fill="#AA6B03"/>
<rect x="31.2012" y="11.0977" width="2.4" height="3.6" rx="1" fill="#AA6B03"/>
</svg>
