<svg width="24" height="24" viewBox="0 0 24 24" fill="none" xmlns="http://www.w3.org/2000/svg">
<path fill-rule="evenodd" clip-rule="evenodd" d="M11.845 21.6633C8.153 21.6633 5 21.0883 5 18.7883C5 16.4873 8.133 14.3633 11.845 14.3633C15.536 14.3633 18.689 16.4663 18.689 18.7673C18.689 21.0673 15.556 21.6633 11.845 21.6633Z" stroke="#6B6B81" stroke-width="1.5" stroke-linecap="round" stroke-linejoin="round"/>
<path fill-rule="evenodd" clip-rule="evenodd" d="M11.8372 11.1744C13.0007 11.1744 14.1166 10.7122 14.9393 9.88947C15.762 9.06675 16.2242 7.9509 16.2242 6.78739C16.2242 5.62389 15.762 4.50804 14.9393 3.68531C14.1166 2.86259 13.0007 2.40039 11.8372 2.40039C10.6738 2.40066 9.5581 2.86294 8.73544 3.68561C7.91278 4.50827 7.45049 5.62397 7.45022 6.78739C7.44812 7.36148 7.55913 7.93037 7.77691 8.46155C7.9947 8.99274 8.31499 9.47582 8.71949 9.8832C9.124 10.2906 9.60479 10.6143 10.1344 10.8358C10.664 11.0574 11.2321 11.1724 11.8062 11.1744H11.8372Z" stroke="#6B6B81" stroke-width="1.5" stroke-linecap="round" stroke-linejoin="round"/>
</svg>
