<svg width="48" height="48" viewBox="0 0 48 48" fill="none" xmlns="http://www.w3.org/2000/svg">
<mask id="mask0_1761_2975" style="mask-type:alpha" maskUnits="userSpaceOnUse" x="0" y="0" width="48" height="48">
<circle cx="24" cy="24" r="24" fill="#FF9A9A"/>
</mask>
<g mask="url(#mask0_1761_2975)">
<circle opacity="0.4" cx="24" cy="24" r="24" fill="#FF9A9A"/>
<ellipse cx="24.0008" cy="51" rx="31.2" ry="21" fill="#FEB5B5"/>
</g>
<rect x="35.7217" y="38.375" width="23.4442" height="28.1825" rx="3" transform="rotate(-180 35.7217 38.375)" fill="#AC3113"/>
<path d="M29.1652 31.4763C28.6129 31.4763 28.1652 31.9241 28.1652 32.4763L28.1652 36.2871L14.5789 36.2871C14.0266 36.2871 13.5789 35.8394 13.5789 35.2871L13.5789 13.278C13.5789 12.7257 14.0266 12.278 14.5789 12.278L32.0273 12.278C32.5796 12.278 33.0273 12.7257 33.0273 13.278L33.0273 31.4763L29.1652 31.4763Z" fill="#8D250C"/>
<path d="M29.7996 31.4819C29.2473 31.4819 28.7996 31.9296 28.7996 32.4819L28.7996 36.2969L16.3996 36.2969C15.295 36.2969 14.3996 35.4014 14.3996 34.2969L14.3996 14.267C14.3996 13.1624 15.295 12.267 16.3996 12.267L31.5996 12.267C32.7042 12.267 33.5996 13.1624 33.5996 14.267L33.5996 31.4819L29.7996 31.4819Z" fill="white"/>
<path d="M23.321 22.4701C24.2163 22.4701 25.0749 22.1145 25.708 21.4814C26.341 20.8483 26.6967 19.9897 26.6967 19.0944C26.6967 18.1991 26.341 17.3405 25.708 16.7075C25.0749 16.0744 24.2163 15.7188 23.321 15.7188C22.4257 15.7188 21.5671 16.0744 20.934 16.7075C20.301 17.3405 19.9453 18.1991 19.9453 19.0944C19.9453 19.9897 20.301 20.8483 20.934 21.4814C21.5671 22.1145 22.4257 22.4701 23.321 22.4701Z" fill="#FFD9D9"/>
<path d="M23.3216 24.1582C19.9391 24.1582 17.1846 26.4267 17.1846 29.2217C17.1846 29.4108 17.3331 29.5593 17.5221 29.5593H29.121C29.31 29.5593 29.4585 29.4108 29.4585 29.2217C29.4585 26.4267 26.704 24.1582 23.3216 24.1582Z" fill="#FFD9D9"/>
<path d="M30.5925 28.3313L30.0794 27.8182C30.3494 27.4131 30.5047 26.927 30.5047 26.4071C30.5047 25.8971 30.3535 25.3984 30.0701 24.9743C29.7867 24.5502 29.3839 24.2196 28.9126 24.0244C28.4414 23.8292 27.9228 23.7782 27.4226 23.8777C26.9223 23.9772 26.4627 24.2228 26.1021 24.5835C25.7414 24.9442 25.4957 25.4037 25.3962 25.904C25.2967 26.4043 25.3478 26.9228 25.543 27.3941C25.7382 27.8653 26.0688 28.2681 26.4929 28.5515C26.917 28.8349 27.4156 28.9862 27.9257 28.9862C28.4456 28.9862 28.9317 28.8309 29.3367 28.5608L29.8498 29.0739C29.9511 29.1752 30.0861 29.2292 30.2212 29.2292C30.3562 29.2292 30.4912 29.1752 30.5925 29.0739C30.8018 28.8646 30.8018 28.5338 30.5925 28.3313Z" fill="#ED6851"/>
<circle cx="27.9282" cy="26.4126" r="1.70944" fill="white"/>
<path d="M33.6088 31.4766L28.79 36.2789V32.4766C28.79 31.9243 29.2378 31.4766 29.79 31.4766H33.6088Z" fill="#DFCBCB"/>
<rect x="19.7998" y="9.62305" width="8.4" height="3.35154" rx="1.67577" fill="#80250F"/>
</svg>
